<svg xmlns="http://www.w3.org/2000/svg" width="56" height="67" viewBox="0 0 56 67">
    <g fill="none" fill-rule="evenodd">
        <path fill="#3DD9B6" fill-rule="nonzero" d="M52.952 65.07v-.387c0-11.006-8.952-20.08-19.81-20.08H28.19c3.81 0 7.429-1.545 10.286-4.055h.381c1.714 0 3.62-.387 5.333-.966 4.381-1.738 7.62-5.02 8.572-8.882C54.667 29.928 56 27.997 56 25.873v-.386c0-2.317-1.524-4.248-3.429-5.02C50.286 8.689 40 0 28 0 16.19 0 5.714 8.689 3.429 20.274 1.524 21.046 0 22.977 0 25.294v.386c0 2.896 2.286 5.213 5.143 5.213h2.476c1.143 0 1.905-.772 1.905-1.93v-6.951c0-1.159-.762-1.931-1.905-1.931h-.19C9.905 10.813 18.286 3.86 28 3.86c9.714 0 18.286 6.759 20.571 16.22h-.38c-1.143 0-1.905.772-1.905 1.93v6.952c0 1.158.762 1.93 1.904 1.93h.381c-.952 2.124-3.047 3.862-5.714 4.827-.19 0-.38.194-.571.194 1.904-2.897 3.047-6.372 3.047-10.04 0-9.462-7.81-17.378-17.333-17.378-9.524 0-17.333 7.723-17.333 17.377 0 9.847 8 18.536 17.143 18.536h-4.953c-10.857 0-19.81 9.075-19.81 20.274v.386c0 1.159.763 1.931 1.905 1.931h45.905c1.143 0 2.095-.965 2.095-1.93zM5.714 27.031h-.571c-.762 0-1.333-.58-1.333-1.352v-.386c0-.772.571-1.352 1.333-1.352h.571v3.09zm44.572-3.09h.571c.762 0 1.333.58 1.333 1.352v.386c0 .772-.571 1.352-1.333 1.352h-.571v-3.09zm-35.81 1.931c0-7.337 6.095-13.516 13.524-13.516 7.429 0 13.524 5.986 13.524 13.516 0 4.055-1.714 7.917-4.381 10.62-1.143-.193-2.286-.58-3.62-1.352v-.193c.763-.772.572-1.93-.19-2.703-.762-.772-1.904-.58-2.666.193L27.81 35.72c-.762.773-.572 1.931.19 2.704.762.772 1.905.579 2.667-.193l.19-.194c.762.58 1.524.966 2.286 1.352-1.714.772-3.429 1.352-5.333 1.352-6.858-.193-13.334-7.144-13.334-14.868zm8.572 22.398h10.095c8.38 0 15.238 6.565 16 14.674H7.238c.572-8.11 7.429-14.674 15.81-14.674z"/>
    </g>
</svg>
