<svg xmlns="http://www.w3.org/2000/svg" width="56" height="56" fill="none" viewBox="0 0 56 56">
    <mask id="qe6ft9ck3a" width="56" height="56" x="0" y="0" maskUnits="userSpaceOnUse">
        <path fill="#fff" d="M44.516 0H11.484C5.142 0 0 5.142 0 11.484v33.032C0 50.858 5.142 56 11.484 56h33.032C50.858 56 56 50.858 56 44.516V11.484C56 5.142 50.858 0 44.516 0z"/>
    </mask>
    <g mask="url(#qe6ft9ck3a)">
        <path fill="#FF3C78" d="M56 0H0v56h56V0z"/>
        <path fill="#fff" d="M44.136 13.728L30.25 8.435c-1.564-.596-3.293-.591-4.853.013l-13.574 5.265c-2.6 1.009-4.313 3.512-4.313 6.3V35.98c0 2.789 1.713 5.292 4.313 6.3l13.579 5.269c1.56.604 3.29.61 4.853.013l13.888-5.293c2.62-1 4.35-3.514 4.349-6.318V20.04c-.001-2.804-1.734-5.316-4.355-6.313zm1.612 21.128c.001 2.412-1.486 4.574-3.74 5.435l-11.952 4.561c-1.346.513-2.834.509-4.177-.011l-11.7-4.536c-2.24-.868-3.715-3.023-3.714-5.425V21.132c-.002-2.403 1.473-4.56 3.714-5.43l11.686-4.532c1.343-.52 2.831-.524 4.177-.012l11.953 4.561c2.255.86 3.745 3.024 3.745 5.437l.008 13.7z"/>
        <path fill="url(#paint0_linear)" d="M27.744 24.73l-.06 20.481c-.616-.032-1.222-.161-1.797-.384l-11.695-4.535c-2.24-.869-3.715-3.023-3.715-5.425v-13.75c0-1.164.348-2.301 1.002-3.265l16.265 6.878z" opacity=".4"/>
        <path fill="#fff" d="M39.129 26.498c-1.155.404-1.582 1.002-2.116 1.752-.535-.443-1.399-1.035-2.597-.776-1.693.366-2.71 1.84-2.562 3.63.123 1.428 1.296 2.424 2.191 3.136.184.147 1.969 1.277 2.973 1.87.364.215.83.144 1.113-.171.978-1.082 1.9-2.212 2.761-3.388.769-1.129 1.387-2.179 1.382-3.808-.002-.766-.373-1.484-.997-1.93-.623-.445-1.423-.562-2.148-.315z"/>
    </g>
    <defs>
        <linearGradient id="paint0_linear" x1="10.477" x2="27.742" y1="31.532" y2="31.532" gradientUnits="userSpaceOnUse">
            <stop stop-color="#fff" stop-opacity=".5"/>
            <stop offset=".18" stop-color="#fff" stop-opacity=".52"/>
            <stop offset=".36" stop-color="#fff" stop-opacity=".56"/>
            <stop offset=".53" stop-color="#fff" stop-opacity=".64"/>
            <stop offset=".71" stop-color="#fff" stop-opacity=".75"/>
            <stop offset=".88" stop-color="#fff" stop-opacity=".89"/>
            <stop offset="1" stop-color="#fff"/>
        </linearGradient>
    </defs>
</svg>
