<?xml version="1.0" encoding="utf-8"?>
<!-- Generator: Adobe Illustrator 26.3.1, SVG Export Plug-In . SVG Version: 6.00 Build 0)  -->
<svg version="1.1" id="Layer_1" xmlns="http://www.w3.org/2000/svg" xmlns:xlink="http://www.w3.org/1999/xlink" x="0px" y="0px"
	 viewBox="0 0 833.3 683" style="enable-background:new 0 0 833.3 683;" xml:space="preserve">
<style type="text/css">
	.st0{opacity:0.85;}
	.st1{fill:url(#SVGID_1_);}
	.st2{fill:#E6A848;}
	.st3{display:none;}
	.st4{display:inline;}
	.st5{fill:#DC9740;}
	.st6{fill:#F6C963;}
	.st7{fill:url(#SVGID_00000163053399169484727890000015562005969380742805_);}
	.st8{opacity:0.4157;}
	.st9{fill:url(#SVGID_00000018217998880051911850000006380323202572569005_);}
	.st10{fill:url(#SVGID_00000151535252039538106950000000466372533163761082_);}
	.st11{fill:#D0832F;}
	.st12{fill:#D18430;}
	.st13{fill:#D18530;}
	.st14{fill:#D28731;}
	.st15{fill:#D38832;}
	.st16{fill:#D38933;}
	.st17{fill:#D48A34;}
	.st18{fill:#D48B35;}
	.st19{fill:#D58D36;}
	.st20{fill:#D68E37;}
	.st21{fill:#D68F38;}
	.st22{fill:#D79038;}
	.st23{fill:#D89239;}
	.st24{fill:#D8933A;}
	.st25{fill:#D9943B;}
	.st26{fill:#DA953C;}
	.st27{fill:#DA973D;}
	.st28{fill:#DB983E;}
	.st29{fill:#DC993F;}
	.st30{fill:#DC9B40;}
	.st31{fill:#DD9C41;}
	.st32{fill:#DE9E42;}
	.st33{fill:#DE9F44;}
	.st34{fill:#DFA045;}
	.st35{fill:#E0A246;}
	.st36{fill:#E0A347;}
	.st37{fill:#E1A448;}
	.st38{fill:#E2A649;}
	.st39{fill:#E3A74B;}
	.st40{fill:#E4A94C;}
	.st41{fill:#E4AA4D;}
	.st42{fill:#E5AC4E;}
	.st43{fill:url(#SVGID_00000087403727301496516470000015533990907691308186_);}
	.st44{fill:url(#SVGID_00000075155087570114462790000006529562920331109024_);}
	.st45{opacity:0.54;}
	.st46{fill:#E9D7E9;}
	.st47{clip-path:url(#SVGID_00000127723302234815824430000009070896064038652584_);fill:#ADAAD4;}
	.st48{fill:url(#SVGID_00000085961454929564793640000004276104669743409075_);}
	.st49{clip-path:url(#SVGID_00000168106803029112241180000009096470298721073343_);fill:#E9D7E9;}
	.st50{fill:#EEEEF4;}
	.st51{fill:url(#SVGID_00000076576480972612726880000004347507545946675130_);}
	.st52{clip-path:url(#SVGID_00000103244287704082030840000014739220165938350746_);fill:#E9D7E9;}
	.st53{clip-path:url(#SVGID_00000103976971904810579400000014210615871670171283_);fill:#ADAAD4;}
	.st54{fill:#E49BC0;}
	.st55{fill:#D382B6;}
	.st56{fill:#FFFFFF;}
	.st57{fill:#B885BB;}
	.st58{fill:#BA88BD;}
	.st59{fill:#BC8BBF;}
	.st60{fill:#BE8FC0;}
	.st61{fill:#BF92C2;}
	.st62{fill:#C196C4;}
	.st63{fill:#C399C6;}
	.st64{fill:#C59DC8;}
	.st65{fill:#C7A0CB;}
	.st66{fill:#C9A4CD;}
	.st67{fill:#CBA7CF;}
	.st68{fill:#CDABD1;}
	.st69{fill:#CFAFD3;}
	.st70{fill:#D1B3D5;}
	.st71{fill:#D3B7D8;}
	.st72{fill:#D5BADA;}
	.st73{fill:#D7BEDC;}
	.st74{fill:#D9C2DE;}
	.st75{fill:#DCC6E0;}
	.st76{fill:#DECAE3;}
	.st77{fill:#E0CEE5;}
	.st78{fill:#E3D2E7;}
	.st79{fill:#E5D6E9;}
	.st80{fill:#E7DAEB;}
	.st81{fill:#EADEEE;}
	.st82{fill:#ECE2F0;}
	.st83{fill:#EFE6F2;}
	.st84{fill:#F1EAF4;}
	.st85{fill:#F4EFF7;}
	.st86{fill:#F7F3F9;}
	.st87{fill:#FBF8FB;}
	.st88{enable-background:new    ;}
	.st89{clip-path:url(#SVGID_00000057108455172897415410000012300948619916943245_);}
	.st90{fill:url(#SVGID_00000164500256636505378260000016646511300538968970_);}
</style>
<g>
	<g class="st0">
		
			<image style="overflow:visible;" width="390" height="334" xlink:href="856472EDE9B462E9.png"  transform="matrix(0.24 0 0 0.24 61.8078 250.9745)">
		</image>
	</g>
	<g>
		
			<linearGradient id="SVGID_1_" gradientUnits="userSpaceOnUse" x1="486.0285" y1="560.025" x2="447.7186" y2="639.5916" gradientTransform="matrix(0.9939 0.1105 -0.1105 0.9939 -300.9695 -382.5749)">
			<stop  offset="0" style="stop-color:#FFF3C3"/>
			<stop  offset="0.4822" style="stop-color:#FAD26A"/>
			<stop  offset="1" style="stop-color:#D0832F"/>
		</linearGradient>
		<path class="st1" d="M131.5,278.2c-8.4,21.5-33.2,36.9-55.3,34.5c-22.2-2.5-33.3-21.9-24.9-43.4c8.4-21.5,33.2-36.9,55.3-34.5
			C128.8,237.3,139.9,256.7,131.5,278.2z"/>
		<g>
			
				<image style="overflow:visible;" width="357" height="326" xlink:href="856472EDE9B462EB.png"  transform="matrix(0.24 0 0 0.24 44.5278 228.6545)">
			</image>
			<path class="st2" d="M118.4,271.3c-6.5,16.7-25.8,28.7-43,26.8c-17.2-1.9-25.9-17-19.3-33.7c6.5-16.7,25.8-28.7,43-26.8
				C116.3,239.5,125,254.6,118.4,271.3z"/>
			<g>
				<defs>
					<path id="SVGID_00000179622299885915574380000009060297847782905749_" d="M118.4,271.3c-6.5,16.7-25.8,28.7-43,26.8
						c-17.2-1.9-25.9-17-19.3-33.7c6.5-16.7,25.8-28.7,43-26.8C116.3,239.5,125,254.6,118.4,271.3z"/>
				</defs>
				<clipPath id="SVGID_00000023252486635234982770000006075076724578095254_">
					<use xlink:href="#SVGID_00000179622299885915574380000009060297847782905749_"  style="overflow:visible;"/>
				</clipPath>
				<g style="clip-path:url(#SVGID_00000023252486635234982770000006075076724578095254_);">
					
						<image style="overflow:visible;" width="279" height="254" xlink:href="856472EDE9B462EE.png"  transform="matrix(0.24 0 0 0.24 52.4478 238.2545)">
					</image>
				</g>
			</g>
			
				<image style="overflow:visible;" width="297" height="272" xlink:href="856472EDE9B462EF.png"  transform="matrix(0.24 0 0 0.24 51.7278 235.1345)">
			</image>
			
				<image style="overflow:visible;" width="59" height="43" xlink:href="856472EDE9B462EA.png"  transform="matrix(0.24 0 0 0.24 66.6078 232.2545)">
			</image>
			
				<image style="overflow:visible;" width="165" height="182" xlink:href="856472EDE9B462E5.png"  transform="matrix(0.24 0 0 0.24 45.0078 260.8145)">
			</image>
			<g class="st3">
				<g class="st4">
					<path class="st5" d="M77,289.8l-1-0.9l2.9-4c-4-0.6-7.7-2.2-9.4-3.7l-1-0.9l5.3-5.3c2,1.6,5.2,3.3,9.2,3.8
						c3.3,0.4,6.1-0.5,6.9-2.6c0.8-2-0.7-3.3-4.7-5c-5.7-2.4-9.2-5.6-7.1-11.1c1.9-4.9,7.1-8.3,14-8.6l1.9-4.9l4.6-0.3l1,0.9
						l-1.8,4.6c3.5,0.5,5.4,1,7.1,1.9c0.2,0.1,0.8,0.8,1,0.9l-4.2,6.1c-1.2-0.8-3.6-2.5-8.1-3c-3.8-0.4-5.5,1-6.1,2.4
						c-0.7,1.7,1.2,3.2,5.5,5.2c6.3,2.9,8.2,6.1,6.1,11.2c-1.8,4.7-7.1,8.6-14.5,8.8l-2.1,5.3L77,289.8z"/>
				</g>
				<g class="st4">
					<path class="st6" d="M76,288.9l1.9-4.9c-4-0.6-7.7-2.2-9.4-3.7l4.3-6.3c2,1.6,5.2,3.3,9.2,3.8c3.3,0.4,6.1-0.5,6.9-2.6
						c0.8-2-0.7-3.3-4.7-5c-5.7-2.4-9.2-5.6-7.1-11.1c1.9-4.9,7.1-8.3,14-8.6l1.9-4.9l5.6,0.6l-1.8,4.6c4,0.6,6.4,1.7,8.1,2.8
						l-4.2,6.1c-1.2-0.8-3.6-2.5-8.1-3c-3.8-0.4-5.5,1-6.1,2.4c-0.7,1.7,1.2,3.2,5.5,5.2c6.3,2.9,8.2,6.1,6.1,11.2
						c-1.8,4.7-7.1,8.6-14.5,8.8l-2.1,5.3L76,288.9z"/>
				</g>
			</g>
		</g>
	</g>
</g>
<g>
	<g class="st0">
		
			<image style="overflow:visible;" width="244" height="154" xlink:href="856472EDE9B462E6.png"  transform="matrix(0.24 0 0 0.24 723.0078 416.0945)">
		</image>
	</g>
	<g>
		
			<linearGradient id="SVGID_00000028288061300865821550000000025718428851816349_" gradientUnits="userSpaceOnUse" x1="1165.1984" y1="1208.6329" x2="1141.8961" y2="1257.0299" gradientTransform="matrix(0.7583 -0.6519 0.6519 0.7583 -935.4461 232.0545)">
			<stop  offset="0" style="stop-color:#FFF3C3"/>
			<stop  offset="0.4822" style="stop-color:#FAD26A"/>
			<stop  offset="1" style="stop-color:#D0832F"/>
		</linearGradient>
		<path style="fill:url(#SVGID_00000028288061300865821550000000025718428851816349_);" d="M763.2,404.8c6.1,12.6,2.7,30.1-7.6,38.9
			c-10.3,8.8-23.5,5.8-29.6-6.9c-6.1-12.6-2.7-30.1,7.6-38.9C743.9,389.1,757.1,392.2,763.2,404.8z"/>
		<g>
			
				<image style="overflow:visible;" width="180" height="233" xlink:href="856472EDE9B462E7.png"  transform="matrix(0.24 0 0 0.24 718.6878 392.3345)">
			</image>
			<path class="st2" d="M754.7,407.8c4.7,9.8,2.1,23.3-5.9,30.2c-8,6.9-18.3,4.5-23-5.4c-4.7-9.8-2.1-23.4,5.9-30.2
				C739.7,395.5,750,397.9,754.7,407.8z"/>
			<g>
				<defs>
					<path id="SVGID_00000086657895006067253370000005598641479678063797_" d="M754.7,407.8c4.7,9.8,2.1,23.3-5.9,30.2
						c-8,6.9-18.3,4.5-23-5.4c-4.7-9.8-2.1-23.4,5.9-30.2C739.7,395.5,750,397.9,754.7,407.8z"/>
				</defs>
				<clipPath id="SVGID_00000154415579348413069850000011539279029429376956_">
					<use xlink:href="#SVGID_00000086657895006067253370000005598641479678063797_"  style="overflow:visible;"/>
				</clipPath>
				<g style="clip-path:url(#SVGID_00000154415579348413069850000011539279029429376956_);">
					
						<image style="overflow:visible;" width="141" height="182" xlink:href="856472EDE9B462F9.png"  transform="matrix(0.24 0 0 0.24 723.2478 399.2945)">
					</image>
				</g>
			</g>
			
				<image style="overflow:visible;" width="150" height="194" xlink:href="47849C62C7124BB2.png"  transform="matrix(0.24 0 0 0.24 722.2878 396.8945)">
			</image>
			
				<image style="overflow:visible;" width="20" height="40" xlink:href="47849C62C7124BB5.png"  transform="matrix(0.24 0 0 0.24 719.4078 408.4145)">
			</image>
			
				<image style="overflow:visible;" width="139" height="67" xlink:href="47849C62C7124BB6.png"  transform="matrix(0.24 0 0 0.24 721.0878 431.2145)">
			</image>
			<g class="st3">
				<g class="st4">
					<path class="st5" d="M745.8,433.9l-0.8,0.1l-0.6-3c-1.9,1.5-4.1,2.5-5.6,2.6l-0.8,0.1l-0.2-4.6c1.6-0.2,3.6-1,5.5-2.6
						c1.5-1.3,2.3-2.9,1.7-4.2c-0.6-1.2-1.8-1.1-4.2,0c-3.4,1.5-6.3,1.8-7.9-1.4c-1.4-2.9-0.8-6.6,2-9.8l-1.4-2.9l1.8-2.2l0.8-0.1
						l1.3,2.7c1.7-1.4,2.7-2,3.8-2.4c0.2,0,0.7,0,0.8-0.1l1,4.4c-0.9,0.2-2.6,0.6-4.7,2.4c-1.8,1.5-1.9,2.9-1.5,3.7
						c0.5,1,1.9,0.8,4.6-0.3c3.9-1.6,6.1-1.1,7.5,1.9c1.3,2.8,0.8,6.7-2.1,10.1l1.5,3.1L745.8,433.9z"/>
				</g>
				<g class="st4">
					<path class="st6" d="M745,433.9l-1.4-2.9c-1.9,1.5-4.1,2.5-5.6,2.6l-1-4.5c1.6-0.2,3.6-1,5.5-2.6c1.5-1.3,2.3-2.9,1.7-4.2
						c-0.6-1.2-1.8-1.1-4.2,0c-3.4,1.5-6.3,1.8-7.9-1.4c-1.4-2.9-0.8-6.6,2-9.8l-1.4-2.9l2.6-2.2l1.3,2.7c1.9-1.6,3.4-2.1,4.6-2.4
						l1,4.4c-0.9,0.2-2.6,0.6-4.7,2.4c-1.8,1.5-1.9,2.9-1.5,3.7c0.5,1,1.9,0.8,4.6-0.3c3.9-1.6,6.1-1.1,7.5,1.9
						c1.3,2.8,0.9,6.7-2.1,10.1l1.5,3.1L745,433.9z"/>
				</g>
			</g>
		</g>
	</g>
</g>
<g>
	<g>
		<g class="st8">
			
				<image style="overflow:visible;" width="273" height="231" xlink:href="47849C62C7124BB4.png"  transform="matrix(0.24 0 0 0.24 288.3678 568.4945)">
			</image>
		</g>
		<g>
			
				<linearGradient id="SVGID_00000143578973085718734690000013920801042418399371_" gradientUnits="userSpaceOnUse" x1="415.4073" y1="555.2493" x2="389.1508" y2="609.7821" gradientTransform="matrix(0.9721 0.2344 -0.2344 0.9721 65.9086 -86.253)">
				<stop  offset="0" style="stop-color:#FFF3C3"/>
				<stop  offset="0.4822" style="stop-color:#FAD26A"/>
				<stop  offset="1" style="stop-color:#D0832F"/>
			</linearGradient>
			<path style="fill:url(#SVGID_00000143578973085718734690000013920801042418399371_);" d="M343,586.1
				c-7.6,13.9-25.7,22.2-40.6,18.7c-14.9-3.6-20.8-17.7-13.2-31.6c7.6-13.9,25.7-22.2,40.6-18.7C344.6,558.1,350.5,572.3,343,586.1z
				"/>
			<g>
				
					<image style="overflow:visible;" width="252" height="217" xlink:href="47849C62C7124BB3.png"  transform="matrix(0.24 0 0 0.24 283.5678 549.2945)">
				</image>
				<path class="st2" d="M334.7,580.3c-5.9,10.8-20,17.3-31.5,14.5c-11.5-2.8-16.1-13.8-10.3-24.6c5.9-10.8,20-17.3,31.5-14.5
					C335.9,558.5,340.5,569.5,334.7,580.3z"/>
				<g>
					<defs>
						<path id="SVGID_00000021807371622186547920000010176525173555699841_" d="M334.7,580.3c-5.9,10.8-20,17.3-31.5,14.5
							c-11.5-2.8-16.1-13.8-10.3-24.6c5.9-10.8,20-17.3,31.5-14.5C335.9,558.5,340.5,569.5,334.7,580.3z"/>
					</defs>
					<clipPath id="SVGID_00000145740185234863341100000008633195563570256546_">
						<use xlink:href="#SVGID_00000021807371622186547920000010176525173555699841_"  style="overflow:visible;"/>
					</clipPath>
					<g style="clip-path:url(#SVGID_00000145740185234863341100000008633195563570256546_);">
						
							<image style="overflow:visible;" width="197" height="169" xlink:href="47849C62C7124BAD.png"  transform="matrix(0.24 0 0 0.24 289.0878 555.5345)">
						</image>
					</g>
				</g>
				
					<image style="overflow:visible;" width="210" height="180" xlink:href="47849C62C7124BAE.png"  transform="matrix(0.24 0 0 0.24 288.6078 553.6145)">
				</image>
				
					<image style="overflow:visible;" width="43" height="26" xlink:href="47849C62C7124BAC.png"  transform="matrix(0.24 0 0 0.24 302.0478 550.4945)">
				</image>
				
					<image style="overflow:visible;" width="106" height="134" xlink:href="47849C62C7124BD2.png"  transform="matrix(0.24 0 0 0.24 284.0478 567.5345)">
				</image>
				<g class="st3">
					<g class="st4">
						<path class="st5" d="M304.9,589.3l-0.6-0.7l2.3-2.5c-2.7-0.8-5-2.1-6.1-3.4l-0.6-0.7l4.1-3.2c1.3,1.3,3.3,2.7,6,3.3
							c2.2,0.5,4.2,0.2,4.9-1.2c0.7-1.3-0.2-2.3-2.7-3.8c-3.7-2.1-5.8-4.6-3.9-8.2c1.7-3.2,5.5-5,10.2-4.7l1.7-3.2l3.2,0.2l0.6,0.7
							l-1.6,3c2.4,0.7,3.6,1.1,4.6,1.9c0.1,0.1,0.5,0.6,0.6,0.7l-3.4,3.8c-0.8-0.6-2.2-2-5.3-2.7c-2.6-0.6-3.8,0.2-4.3,1.1
							c-0.6,1.1,0.5,2.2,3.3,4c4.1,2.5,5,4.8,3.2,8.2c-1.7,3.1-5.6,5.2-10.7,4.8l-1.9,3.4L304.9,589.3z"/>
					</g>
					<g class="st4">
						<path class="st6" d="M304.3,588.6l1.7-3.2c-2.7-0.8-5-2.1-6.1-3.4l3.5-3.9c1.3,1.3,3.3,2.7,6,3.3c2.2,0.5,4.2,0.2,4.9-1.2
							c0.7-1.3-0.2-2.3-2.7-3.8c-3.7-2.1-5.8-4.6-3.9-8.2c1.7-3.2,5.5-5,10.2-4.7l1.7-3.2l3.8,0.9l-1.6,3c2.7,0.8,4.2,1.7,5.2,2.6
							l-3.4,3.8c-0.8-0.6-2.2-2-5.3-2.7c-2.6-0.6-3.8,0.2-4.3,1.1c-0.6,1.1,0.5,2.2,3.3,4c4.1,2.5,5,4.8,3.2,8.2
							c-1.7,3.1-5.6,5.2-10.7,4.8l-1.9,3.4L304.3,588.6z"/>
					</g>
				</g>
			</g>
		</g>
	</g>
</g>
<g>
	<g class="st0">
		
			<image style="overflow:visible;" width="268" height="214" xlink:href="47849C62C7124BD5.png"  transform="matrix(0.24 0 0 0.24 629.6478 138.8945)">
		</image>
	</g>
	<g>
		
			<linearGradient id="SVGID_00000001649641905213039580000017403128908304457379_" gradientUnits="userSpaceOnUse" x1="-1772.7805" y1="1391.7043" x2="-1819.7278" y2="1449.7662" gradientTransform="matrix(0.8224 -0.5689 -0.5689 -0.8224 2946.7056 303.6404)">
			<stop  offset="0" style="stop-color:#FFF3C3"/>
			<stop  offset="0.4822" style="stop-color:#FAD26A"/>
			<stop  offset="1" style="stop-color:#D0832F"/>
		</linearGradient>
		<path style="fill:url(#SVGID_00000001649641905213039580000017403128908304457379_);" d="M692,166.6l1.8-0.3l-3.4,5.9
			c-2.4,3.8-7.2,6.4-14,7c-14.9,1.2-33.8-7.7-42.3-19.9c-3.8-5.6-4.8-10.8-3.4-15.1l0,0l0,0c0.4-1.1,0.9-2.1,1.6-3l2.5-4.9l-0.1,2.4
			c2.6-2,6.4-3.4,11.1-3.8c14.9-1.2,33.8,7.7,42.3,19.9C690.9,159,692.2,163.1,692,166.6z"/>
		<g>
			<g>
				
					<image style="overflow:visible;" width="259" height="191" xlink:href="47849C62C7124BC9.png"  transform="matrix(0.24 0 0 0.24 633.4878 127.3745)">
				</image>
				<path class="st2" d="M643.4,151.3c-6.3-9.8-1.9-18.2,9.8-18.8c11.7-0.5,26.3,7,32.6,16.8c6.3,9.8,1.9,18.2-9.8,18.8
					C664.3,168.6,649.7,161.1,643.4,151.3z"/>
				<g>
					<defs>
						<path id="SVGID_00000013162353606176134110000012201901850432530842_" d="M643.4,151.3c-6.3-9.8-1.9-18.2,9.8-18.8
							c11.7-0.5,26.3,7,32.6,16.8c6.3,9.8,1.9,18.2-9.8,18.8C664.3,168.6,649.7,161.1,643.4,151.3z"/>
					</defs>
					<clipPath id="SVGID_00000066493159302846694710000013676632470983349682_">
						<use xlink:href="#SVGID_00000013162353606176134110000012201901850432530842_"  style="overflow:visible;"/>
					</clipPath>
					<g style="clip-path:url(#SVGID_00000066493159302846694710000013676632470983349682_);">
						
							<image style="overflow:visible;" width="202" height="150" xlink:href="47849C62C7124BCB.png"  transform="matrix(0.24 0 0 0.24 640.6878 131.6945)">
						</image>
					</g>
				</g>
				
					<image style="overflow:visible;" width="215" height="159" xlink:href="47849C62C7124BC8.png"  transform="matrix(0.24 0 0 0.24 638.7678 131.2145)">
				</image>
				
					<image style="overflow:visible;" width="29" height="27" xlink:href="47849C62C7124BF7.png"  transform="matrix(0.24 0 0 0.24 687.2478 162.8945)">
				</image>
				
					<image style="overflow:visible;" width="196" height="94" xlink:href="47849C62C7124BF9.png"  transform="matrix(0.24 0 0 0.24 645.4878 128.8145)">
				</image>
				<g class="st3">
					<g class="st4">
						<path class="st5" d="M657.4,137.2l1.2,0.4l0.7,2.5c2.8,0,6,0.5,8.1,1.2l1.2,0.4l0,3.4c-2.2-0.7-5.2-1.3-8-1.2
							c-2.2,0.1-3.5,0.8-2.7,2.1c0.8,1.2,2.5,1.8,6,2.3c5,0.8,9.1,2.3,11.2,5.5c1.9,2.9,0.8,5.2-3.2,6.1l1.9,2.9l-2.7,0.6l-1.2-0.4
							l-1.7-2.7c-2.5,0-3.9,0-5.5-0.4c-0.2-0.1-1-0.4-1.2-0.4l-1.2-3.7c1.2,0.3,3.8,1,6.8,0.9c2.6-0.1,2.8-1.1,2.3-1.9
							c-0.6-1-2.7-1.6-6.6-2.4c-5.7-1-8.7-2.6-10.7-5.6c-1.8-2.8-0.9-5.4,3.5-6.2l-2-3.1L657.4,137.2z"/>
					</g>
					<g class="st4">
						<path class="st6" d="M658.5,137.7l1.9,2.9c2.8,0,6,0.5,8.1,1.2l1.2,3.9c-2.2-0.7-5.2-1.3-8-1.2c-2.2,0.1-3.5,0.8-2.7,2.1
							c0.7,1.2,2.5,1.8,6,2.3c5,0.8,9.1,2.3,11.2,5.5c1.9,2.9,0.8,5.2-3.2,6.1l1.9,2.9l-3.8,0.2l-1.7-2.7c-2.9,0-5-0.4-6.7-0.8
							l-1.2-3.7c1.2,0.3,3.8,1,6.8,0.9c2.6-0.1,2.8-1.1,2.3-1.9c-0.6-1-2.7-1.6-6.6-2.4c-5.7-1-8.7-2.6-10.7-5.6
							c-1.8-2.8-0.9-5.4,3.5-6.2l-2-3.1L658.5,137.7z"/>
					</g>
				</g>
			</g>
			
				<image style="overflow:visible;" width="104" height="104" xlink:href="47849C62C7124BFB.png"  transform="matrix(0.24 0 0 0.24 634.2078 127.8545)">
			</image>
			
				<image style="overflow:visible;" width="45" height="26" xlink:href="47849C62C7124BF8.png"  transform="matrix(0.24 0 0 0.24 654.6078 164.8145)">
			</image>
		</g>
	</g>
</g>
<g>
	<g>
		
			<image style="overflow:visible;" width="347" height="347" xlink:href="47849C62C7124BFF.png"  transform="matrix(0.24 0 0 0.24 271.8078 70.2545)">
		</image>
	</g>
	<g>
		<g>
			<g>
				<path class="st11" d="M303.9,67.1l9.8,15.5c0.5,0.8,1.3,1.3,2.1,1.4l17.4,2.5c2.2,0.3,3.4,2.9,2,4.4l-10.7,12
					c-0.5,0.6-0.7,1.4-0.4,2.3l5.3,17c0.7,2.1-1.3,3.7-3.4,2.7l-16.4-8c-0.8-0.4-1.7-0.4-2.4,0l-14.2,8c-1.8,1-4.2-0.6-4.1-2.7
					l0.5-17c0-0.8-0.4-1.7-1.1-2.3l-14.1-12c-1.7-1.5-1.3-4.1,0.8-4.4l16.7-2.5c0.8-0.1,1.5-0.6,1.7-1.4l5.5-15.5
					C299.9,65.2,302.7,65.2,303.9,67.1z"/>
				<path class="st12" d="M304,67l9.8,15.5c0.5,0.8,1.3,1.3,2.1,1.4l17.4,2.5c2.2,0.3,3.4,2.9,2,4.4l-10.7,12
					c-0.5,0.6-0.7,1.4-0.4,2.3l5.3,17c0.7,2.1-1.3,3.7-3.4,2.7l-16.4-8c-0.8-0.4-1.7-0.4-2.4,0l-14.1,8c-1.7,1-4.2-0.6-4.1-2.7
					l0.5-17c0-0.8-0.4-1.7-1.1-2.3l-14-12c-1.7-1.5-1.3-4.1,0.8-4.4l16.7-2.5c0.8-0.1,1.5-0.6,1.7-1.4l5.5-15.5
					C300.1,65,302.8,65,304,67z"/>
				<path class="st13" d="M304.1,66.8l9.8,15.4c0.5,0.8,1.3,1.3,2.1,1.4l17.4,2.5c2.2,0.3,3.4,2.9,2,4.4l-10.6,12
					c-0.5,0.6-0.7,1.4-0.4,2.3l5.3,17c0.7,2.1-1.3,3.7-3.3,2.7l-16.4-8c-0.8-0.4-1.7-0.4-2.4,0l-14.1,8c-1.7,1-4.2-0.6-4.1-2.7
					l0.5-17c0-0.8-0.4-1.7-1.1-2.3l-14-12c-1.7-1.5-1.3-4.1,0.8-4.4l16.7-2.5c0.8-0.1,1.5-0.6,1.7-1.4l5.5-15.4
					C300.2,64.9,302.9,64.9,304.1,66.8z"/>
				<path class="st14" d="M304.3,66.6l9.8,15.4c0.5,0.8,1.3,1.3,2.1,1.4l17.4,2.5c2.1,0.3,3.4,2.9,2,4.4l-10.6,12
					c-0.5,0.6-0.7,1.4-0.4,2.3l5.3,17c0.7,2.1-1.3,3.7-3.3,2.7l-16.4-8c-0.8-0.4-1.7-0.4-2.4,0l-14.1,8c-1.7,1-4.2-0.6-4.1-2.7
					l0.5-17c0-0.8-0.4-1.7-1.1-2.3l-14-12c-1.7-1.5-1.3-4.1,0.8-4.4l16.7-2.5c0.8-0.1,1.5-0.6,1.7-1.4l5.4-15.4
					C300.3,64.7,303.1,64.7,304.3,66.6z"/>
				<path class="st15" d="M304.4,66.5l9.8,15.4c0.5,0.8,1.3,1.3,2.1,1.4l17.4,2.5c2.1,0.3,3.4,2.9,2,4.4l-10.6,12
					c-0.5,0.6-0.7,1.4-0.4,2.3l5.3,16.9c0.7,2.1-1.3,3.7-3.3,2.7l-16.3-8c-0.8-0.4-1.7-0.4-2.4,0l-14.1,8c-1.7,1-4.2-0.6-4.1-2.7
					l0.5-16.9c0-0.8-0.4-1.7-1.1-2.3l-14-12c-1.7-1.5-1.3-4.1,0.8-4.4l16.7-2.5c0.8-0.1,1.5-0.6,1.7-1.4l5.4-15.4
					C300.5,64.5,303.2,64.5,304.4,66.5z"/>
				<path class="st16" d="M304.5,66.3l9.8,15.4c0.5,0.8,1.3,1.3,2.1,1.4l17.3,2.5c2.1,0.3,3.3,2.9,2,4.4l-10.6,12
					c-0.5,0.6-0.7,1.4-0.4,2.3l5.3,16.9c0.7,2.1-1.3,3.7-3.3,2.7l-16.3-8c-0.8-0.4-1.7-0.4-2.4,0l-14.1,8c-1.7,1-4.2-0.6-4.1-2.7
					l0.5-16.9c0-0.8-0.4-1.7-1.1-2.3l-14-12c-1.7-1.5-1.3-4.1,0.8-4.4l16.6-2.5c0.8-0.1,1.5-0.6,1.7-1.4l5.4-15.4
					C300.6,64.4,303.3,64.4,304.5,66.3z"/>
				<path class="st17" d="M304.7,66.1l9.7,15.4c0.5,0.8,1.3,1.3,2.1,1.4l17.3,2.5c2.1,0.3,3.3,2.9,2,4.4l-10.6,12
					c-0.5,0.6-0.7,1.4-0.4,2.3l5.3,16.9c0.7,2.1-1.3,3.7-3.3,2.7l-16.3-8c-0.8-0.4-1.7-0.4-2.4,0l-14.1,8c-1.7,1-4.2-0.6-4.1-2.7
					l0.5-16.9c0-0.8-0.4-1.7-1.1-2.3l-14-12c-1.7-1.5-1.3-4.1,0.8-4.4l16.6-2.5c0.8-0.1,1.5-0.6,1.7-1.4l5.4-15.4
					C300.7,64.2,303.5,64.2,304.7,66.1z"/>
				<path class="st18" d="M304.8,66l9.7,15.4c0.5,0.8,1.3,1.3,2.1,1.4l17.3,2.5c2.1,0.3,3.3,2.9,2,4.4l-10.6,12
					c-0.5,0.6-0.7,1.4-0.4,2.3l5.3,16.9c0.7,2.1-1.3,3.7-3.3,2.7l-16.3-8c-0.8-0.4-1.7-0.4-2.4,0l-14,8c-1.7,1-4.2-0.6-4.1-2.7
					l0.5-16.9c0-0.8-0.4-1.7-1.1-2.3l-13.9-12c-1.7-1.5-1.2-4.1,0.8-4.4l16.6-2.5c0.8-0.1,1.5-0.6,1.7-1.4l5.4-15.4
					C300.9,64,303.6,64,304.8,66z"/>
				<path class="st19" d="M304.9,65.8l9.7,15.3c0.5,0.8,1.3,1.3,2.1,1.4L334,85c2.1,0.3,3.3,2.9,2,4.4l-10.6,11.9
					c-0.5,0.6-0.7,1.4-0.4,2.3l5.3,16.9c0.7,2.1-1.3,3.7-3.3,2.7l-16.3-8c-0.8-0.4-1.7-0.4-2.4,0l-14,8c-1.7,1-4.1-0.6-4.1-2.7
					l0.5-16.9c0-0.8-0.4-1.7-1.1-2.3l-13.9-11.9c-1.7-1.5-1.2-4,0.8-4.4l16.6-2.5c0.8-0.1,1.5-0.6,1.7-1.4l5.4-15.3
					C301,63.9,303.7,63.9,304.9,65.8z"/>
				<path class="st20" d="M305,65.6l9.7,15.3c0.5,0.8,1.3,1.3,2.1,1.4l17.3,2.5c2.1,0.3,3.3,2.9,2,4.3l-10.6,11.9
					c-0.5,0.6-0.7,1.4-0.4,2.3l5.3,16.8c0.6,2.1-1.3,3.7-3.3,2.7l-16.2-7.9c-0.8-0.4-1.7-0.4-2.4,0l-14,7.9c-1.7,1-4.1-0.6-4.1-2.7
					l0.5-16.8c0-0.8-0.4-1.7-1.1-2.3L276,89.1c-1.7-1.5-1.2-4,0.8-4.3l16.6-2.5c0.8-0.1,1.5-0.6,1.7-1.4l5.4-15.3
					C301.1,63.7,303.8,63.7,305,65.6z"/>
				<path class="st21" d="M305.2,65.4l9.7,15.3c0.5,0.8,1.3,1.3,2.1,1.4l17.2,2.5c2.1,0.3,3.3,2.9,2,4.3l-10.5,11.9
					c-0.5,0.6-0.7,1.4-0.4,2.3l5.2,16.8c0.6,2.1-1.3,3.7-3.3,2.7l-16.2-7.9c-0.8-0.4-1.7-0.4-2.4,0l-14,7.9c-1.7,1-4.1-0.6-4.1-2.7
					l0.5-16.8c0-0.8-0.4-1.7-1-2.3l-13.9-11.9c-1.7-1.5-1.2-4,0.8-4.3l16.5-2.5c0.8-0.1,1.5-0.6,1.7-1.4l5.4-15.3
					C301.3,63.6,304,63.6,305.2,65.4z"/>
				<path class="st22" d="M305.3,65.3l9.7,15.3c0.5,0.8,1.3,1.3,2.1,1.4l17.2,2.4c2.1,0.3,3.3,2.9,2,4.3l-10.5,11.9
					c-0.5,0.6-0.7,1.4-0.4,2.3l5.2,16.8c0.6,2.1-1.3,3.7-3.3,2.7l-16.2-7.9c-0.8-0.4-1.7-0.4-2.4,0l-14,7.9c-1.7,1-4.1-0.6-4.1-2.7
					l0.5-16.8c0-0.8-0.4-1.7-1-2.3l-13.9-11.9c-1.7-1.5-1.2-4,0.8-4.3l16.5-2.4c0.8-0.1,1.5-0.6,1.7-1.4l5.4-15.3
					C301.4,63.4,304.1,63.4,305.3,65.3z"/>
				<path class="st23" d="M305.4,65.1l9.7,15.3c0.5,0.7,1.3,1.3,2.1,1.4l17.2,2.4c2.1,0.3,3.3,2.9,2,4.3l-10.5,11.9
					c-0.5,0.6-0.7,1.4-0.4,2.2l5.2,16.8c0.6,2.1-1.3,3.7-3.3,2.7l-16.2-7.9c-0.8-0.4-1.7-0.4-2.4,0l-14,7.9c-1.7,1-4.1-0.6-4.1-2.7
					l0.5-16.8c0-0.8-0.4-1.7-1-2.2l-13.9-11.9c-1.7-1.5-1.2-4,0.8-4.3l16.5-2.4c0.8-0.1,1.5-0.6,1.7-1.4l5.4-15.3
					C301.5,63.2,304.2,63.2,305.4,65.1z"/>
				<path class="st24" d="M305.6,64.9l9.7,15.2c0.5,0.7,1.3,1.3,2.1,1.4l17.2,2.4c2.1,0.3,3.3,2.9,2,4.3L326,100.2
					c-0.5,0.6-0.7,1.4-0.4,2.2l5.2,16.8c0.6,2.1-1.3,3.7-3.3,2.7l-16.2-7.9c-0.8-0.4-1.7-0.4-2.4,0l-13.9,7.9
					c-1.7,1-4.1-0.6-4.1-2.7l0.5-16.8c0-0.8-0.4-1.7-1-2.2l-13.8-11.9c-1.7-1.5-1.2-4,0.8-4.3l16.5-2.4c0.8-0.1,1.5-0.6,1.7-1.4
					l5.4-15.2C301.7,63.1,304.4,63.1,305.6,64.9z"/>
				<path class="st25" d="M305.7,64.8l9.7,15.2c0.5,0.7,1.3,1.3,2.1,1.4l17.2,2.4c2.1,0.3,3.3,2.9,2,4.3L326.1,100
					c-0.5,0.6-0.7,1.4-0.4,2.2l5.2,16.7c0.6,2.1-1.3,3.6-3.3,2.7l-16.1-7.9c-0.8-0.4-1.7-0.4-2.4,0l-13.9,7.9
					c-1.7,1-4.1-0.6-4.1-2.7l0.5-16.7c0-0.8-0.4-1.7-1-2.2l-13.8-11.9c-1.7-1.5-1.2-4,0.8-4.3l16.5-2.4c0.8-0.1,1.5-0.6,1.7-1.4
					l5.4-15.2C301.8,62.9,304.5,62.9,305.7,64.8z"/>
				<path class="st26" d="M305.8,64.6l9.6,15.2c0.5,0.7,1.3,1.3,2.1,1.4l17.1,2.4c2.1,0.3,3.3,2.9,2,4.3l-10.5,11.8
					c-0.5,0.6-0.7,1.4-0.4,2.2l5.2,16.7c0.6,2.1-1.3,3.6-3.3,2.7l-16.1-7.9c-0.8-0.4-1.7-0.4-2.4,0l-13.9,7.9c-1.7,1-4.1-0.6-4-2.7
					l0.5-16.7c0-0.8-0.4-1.7-1-2.2L277,88c-1.7-1.5-1.2-4,0.8-4.3l16.4-2.4c0.8-0.1,1.4-0.6,1.7-1.4l5.4-15.2
					C301.9,62.7,304.6,62.7,305.8,64.6z"/>
				<path class="st27" d="M306,64.4l9.6,15.2c0.5,0.7,1.3,1.3,2.1,1.4l17.1,2.4c2.1,0.3,3.3,2.9,2,4.3l-10.5,11.8
					c-0.5,0.6-0.7,1.4-0.4,2.2l5.2,16.7c0.6,2.1-1.3,3.6-3.3,2.7l-16.1-7.9c-0.8-0.4-1.7-0.4-2.4,0l-13.9,7.9c-1.7,1-4.1-0.6-4-2.7
					l0.5-16.7c0-0.8-0.4-1.7-1-2.2l-13.8-11.8c-1.7-1.5-1.2-4,0.8-4.3l16.4-2.4c0.8-0.1,1.4-0.6,1.7-1.4l5.4-15.2
					C302.1,62.6,304.8,62.6,306,64.4z"/>
				<path class="st28" d="M306.1,64.3l9.6,15.2c0.5,0.7,1.3,1.3,2.1,1.4l17.1,2.4c2.1,0.3,3.3,2.8,2,4.3l-10.5,11.8
					c-0.5,0.6-0.7,1.4-0.4,2.2l5.2,16.7c0.6,2.1-1.3,3.6-3.3,2.7l-16.1-7.9c-0.8-0.4-1.7-0.4-2.4,0l-13.9,7.9c-1.7,1-4.1-0.6-4-2.7
					l0.5-16.7c0-0.8-0.4-1.7-1-2.2l-13.8-11.8c-1.7-1.5-1.2-4,0.8-4.3l16.4-2.4c0.8-0.1,1.4-0.6,1.7-1.4l5.4-15.2
					C302.2,62.4,304.9,62.4,306.1,64.3z"/>
				<path class="st29" d="M306.2,64.1l9.6,15.2c0.5,0.7,1.3,1.3,2.1,1.4l17.1,2.4c2.1,0.3,3.3,2.8,2,4.3l-10.4,11.8
					c-0.5,0.6-0.7,1.4-0.4,2.2l5.2,16.7c0.6,2.1-1.3,3.6-3.3,2.7l-16.1-7.9c-0.8-0.4-1.7-0.4-2.3,0l-13.9,7.9c-1.7,1-4.1-0.6-4-2.7
					l0.5-16.7c0-0.8-0.4-1.7-1-2.2l-13.8-11.8c-1.7-1.5-1.2-4,0.8-4.3l16.4-2.4c0.8-0.1,1.4-0.6,1.7-1.4l5.4-15.2
					C302.4,62.2,305,62.2,306.2,64.1z"/>
				<path class="st30" d="M306.3,63.9l9.6,15.1c0.5,0.7,1.3,1.3,2.1,1.4l17.1,2.4c2.1,0.3,3.3,2.8,2,4.3L326.7,99
					c-0.5,0.6-0.7,1.4-0.4,2.2l5.2,16.6c0.6,2.1-1.3,3.6-3.3,2.7l-16.1-7.9c-0.8-0.4-1.7-0.4-2.3,0l-13.8,7.9c-1.7,1-4.1-0.6-4-2.7
					l0.5-16.6c0-0.8-0.4-1.7-1-2.2l-13.8-11.8c-1.7-1.5-1.2-4,0.8-4.3l16.4-2.4c0.8-0.1,1.4-0.6,1.7-1.4l5.3-15.1
					C302.5,62.1,305.2,62.1,306.3,63.9z"/>
				<path class="st31" d="M306.5,63.8l9.6,15.1c0.5,0.7,1.3,1.3,2.1,1.4l17,2.4c2.1,0.3,3.3,2.8,2,4.3l-10.4,11.8
					c-0.5,0.6-0.7,1.4-0.4,2.2l5.2,16.6c0.6,2.1-1.3,3.6-3.3,2.7l-16-7.8c-0.8-0.4-1.7-0.4-2.3,0l-13.8,7.8c-1.7,1-4.1-0.6-4-2.7
					l0.5-16.6c0-0.8-0.4-1.6-1-2.2L277.8,87c-1.7-1.5-1.2-4,0.8-4.3l16.4-2.4c0.8-0.1,1.4-0.6,1.7-1.4l5.3-15.1
					C302.6,61.9,305.3,61.9,306.5,63.8z"/>
				<path class="st32" d="M306.6,63.6l9.6,15.1c0.5,0.7,1.3,1.3,2.1,1.4l17,2.4c2.1,0.3,3.3,2.8,2,4.3l-10.4,11.8
					c-0.5,0.6-0.7,1.4-0.4,2.2l5.2,16.6c0.6,2.1-1.3,3.6-3.3,2.7l-16-7.8c-0.8-0.4-1.7-0.4-2.3,0l-13.8,7.8c-1.7,1-4.1-0.6-4-2.7
					l0.5-16.6c0-0.8-0.4-1.6-1-2.2l-13.7-11.8c-1.7-1.5-1.2-4,0.8-4.3l16.3-2.4c0.8-0.1,1.4-0.6,1.7-1.4l5.3-15.1
					C302.8,61.7,305.4,61.7,306.6,63.6z"/>
				<path class="st33" d="M306.7,63.4l9.6,15.1c0.5,0.7,1.3,1.3,2.1,1.4l17,2.4c2.1,0.3,3.3,2.8,2,4.3L327,98.4
					c-0.5,0.6-0.7,1.4-0.4,2.2l5.2,16.6c0.6,2.1-1.3,3.6-3.3,2.6l-16-7.8c-0.8-0.4-1.7-0.4-2.3,0l-13.8,7.8c-1.7,1-4.1-0.6-4-2.6
					l0.5-16.6c0-0.8-0.4-1.6-1-2.2l-13.7-11.7c-1.7-1.5-1.2-4,0.8-4.3l16.3-2.4c0.8-0.1,1.4-0.6,1.7-1.4l5.3-15.1
					C302.9,61.6,305.6,61.6,306.7,63.4z"/>
				<path class="st34" d="M306.9,63.3l9.6,15.1c0.5,0.7,1.2,1.3,2.1,1.4l17,2.4c2.1,0.3,3.3,2.8,2,4.3l-10.4,11.7
					c-0.5,0.6-0.7,1.4-0.4,2.2l5.2,16.6c0.6,2-1.3,3.6-3.3,2.6l-16-7.8c-0.8-0.4-1.7-0.4-2.3,0l-13.8,7.8c-1.7,1-4.1-0.6-4-2.6
					l0.5-16.6c0-0.8-0.4-1.6-1-2.2l-13.7-11.7c-1.7-1.5-1.2-4,0.8-4.3l16.3-2.4c0.8-0.1,1.4-0.6,1.7-1.4l5.3-15.1
					C303,61.4,305.7,61.4,306.9,63.3z"/>
				<path class="st35" d="M307,63.1l9.5,15.1c0.5,0.7,1.2,1.3,2.1,1.4l17,2.4c2.1,0.3,3.3,2.8,2,4.3l-10.4,11.7
					c-0.5,0.6-0.7,1.4-0.4,2.2l5.2,16.5c0.6,2-1.3,3.6-3.3,2.6l-16-7.8c-0.8-0.4-1.7-0.4-2.3,0l-13.8,7.8c-1.7,1-4.1-0.6-4-2.6
					l0.5-16.5c0-0.8-0.4-1.6-1-2.2l-13.7-11.7c-1.7-1.4-1.2-4,0.8-4.3l16.3-2.4c0.8-0.1,1.4-0.6,1.7-1.4l5.3-15.1
					C303.2,61.2,305.8,61.2,307,63.1z"/>
				<path class="st36" d="M307.1,62.9l9.5,15c0.5,0.7,1.2,1.3,2.1,1.4l16.9,2.4c2.1,0.3,3.3,2.8,2,4.3l-10.4,11.7
					c-0.5,0.6-0.7,1.4-0.4,2.2l5.2,16.5c0.6,2-1.3,3.6-3.3,2.6l-15.9-7.8c-0.8-0.4-1.7-0.4-2.3,0l-13.7,7.8c-1.7,1-4.1-0.6-4-2.6
					l0.5-16.5c0-0.8-0.4-1.6-1-2.2L278.6,86c-1.7-1.4-1.2-4,0.8-4.3l16.3-2.4c0.8-0.1,1.4-0.6,1.7-1.4l5.3-15
					C303.3,61.1,305.9,61.1,307.1,62.9z"/>
				<path class="st37" d="M307.3,62.8l9.5,15c0.5,0.7,1.2,1.2,2.1,1.4l16.9,2.4c2.1,0.3,3.3,2.8,2,4.3l-10.4,11.7
					c-0.5,0.6-0.7,1.4-0.4,2.2l5.2,16.5c0.6,2-1.3,3.6-3.3,2.6l-15.9-7.8c-0.8-0.4-1.7-0.4-2.3,0l-13.7,7.8c-1.7,1-4.1-0.6-4-2.6
					l0.5-16.5c0-0.8-0.4-1.6-1-2.2l-13.6-11.7c-1.7-1.4-1.2-4,0.8-4.3l16.2-2.4c0.8-0.1,1.4-0.6,1.7-1.4l5.3-15
					C303.4,60.9,306.1,60.9,307.3,62.8z"/>
				<path class="st38" d="M307.4,62.6l9.5,15c0.5,0.7,1.2,1.2,2.1,1.4l16.9,2.4c2.1,0.3,3.3,2.8,2,4.3l-10.3,11.7
					c-0.5,0.6-0.7,1.4-0.4,2.2l5.1,16.5c0.6,2-1.3,3.6-3.3,2.6l-15.9-7.8c-0.8-0.4-1.7-0.4-2.3,0l-13.7,7.8c-1.7,1-4.1-0.6-4-2.6
					l0.5-16.5c0-0.8-0.4-1.6-1-2.2l-13.6-11.7c-1.7-1.4-1.2-4,0.8-4.3l16.2-2.4c0.8-0.1,1.4-0.6,1.7-1.4l5.3-15
					C303.6,60.8,306.2,60.8,307.4,62.6z"/>
				<path class="st39" d="M307.5,62.4l9.5,15c0.5,0.7,1.2,1.2,2.1,1.4l16.9,2.4c2.1,0.3,3.3,2.8,2,4.3l-10.3,11.7
					c-0.5,0.6-0.7,1.4-0.4,2.2l5.1,16.5c0.6,2-1.3,3.6-3.2,2.6l-15.9-7.8c-0.8-0.4-1.6-0.4-2.3,0l-13.7,7.8c-1.7,1-4.1-0.6-4-2.6
					l0.5-16.5c0-0.8-0.4-1.6-1-2.2l-13.6-11.7c-1.7-1.4-1.2-4,0.8-4.3l16.2-2.4c0.8-0.1,1.4-0.6,1.7-1.4l5.3-15
					C303.7,60.6,306.3,60.6,307.5,62.4z"/>
				<path class="st40" d="M307.6,62.3l9.5,15c0.5,0.7,1.2,1.2,2.1,1.4l16.9,2.4c2.1,0.3,3.3,2.8,2,4.2l-10.3,11.6
					c-0.5,0.6-0.7,1.4-0.4,2.2l5.1,16.4c0.6,2-1.3,3.6-3.2,2.6l-15.9-7.8c-0.8-0.4-1.6-0.4-2.3,0l-13.7,7.8c-1.7,1-4-0.6-4-2.6
					l0.5-16.4c0-0.8-0.4-1.6-1-2.2l-13.6-11.6c-1.7-1.4-1.2-4,0.8-4.2l16.2-2.4c0.8-0.1,1.4-0.6,1.7-1.4l5.3-15
					C303.8,60.4,306.5,60.4,307.6,62.3z"/>
				<path class="st41" d="M307.8,62.1l9.5,14.9c0.5,0.7,1.2,1.2,2.1,1.4l16.8,2.4c2.1,0.3,3.3,2.8,2,4.2l-10.3,11.6
					c-0.5,0.6-0.7,1.4-0.4,2.2l5.1,16.4c0.6,2-1.3,3.6-3.2,2.6l-15.8-7.8c-0.8-0.4-1.6-0.4-2.3,0l-13.7,7.8c-1.7,1-4-0.6-4-2.6
					l0.5-16.4c0-0.8-0.4-1.6-1-2.2l-13.6-11.6c-1.7-1.4-1.2-3.9,0.8-4.2l16.2-2.4c0.8-0.1,1.4-0.6,1.7-1.4l5.3-14.9
					C304,60.3,306.6,60.3,307.8,62.1z"/>
				<path class="st42" d="M307.9,61.9l9.5,14.9c0.5,0.7,1.2,1.2,2.1,1.4l16.8,2.4c2.1,0.3,3.2,2.8,2,4.2l-10.3,11.6
					c-0.5,0.6-0.7,1.4-0.4,2.2l5.1,16.4c0.6,2-1.3,3.6-3.2,2.6l-15.8-7.7c-0.8-0.4-1.6-0.4-2.3,0l-13.6,7.7c-1.7,1-4-0.6-4-2.6
					l0.5-16.4c0-0.8-0.4-1.6-1-2.2l-13.6-11.6c-1.7-1.4-1.2-3.9,0.8-4.2l16.1-2.4c0.8-0.1,1.4-0.6,1.7-1.4l5.3-14.9
					C304.1,60.1,306.7,60.1,307.9,61.9z"/>
			</g>
		</g>
		
			<linearGradient id="SVGID_00000037673358642128314950000008484660479574193338_" gradientUnits="userSpaceOnUse" x1="2090.6306" y1="114.7336" x2="2047.0861" y2="74.8615" gradientTransform="matrix(-1 0 0 1 2379.4199 0)">
			<stop  offset="0" style="stop-color:#FFF3C3"/>
			<stop  offset="0.4822" style="stop-color:#FAD26A"/>
			<stop  offset="1" style="stop-color:#D0832F"/>
		</linearGradient>
		<path style="fill:url(#SVGID_00000037673358642128314950000008484660479574193338_);" d="M307.9,61.9l9.5,14.9
			c0.5,0.7,1.2,1.2,2.1,1.4l16.8,2.4c2.1,0.3,3.2,2.8,2,4.2l-10.3,11.6c-0.5,0.6-0.7,1.4-0.4,2.2l5.1,16.4c0.6,2-1.3,3.6-3.2,2.6
			l-15.8-7.7c-0.8-0.4-1.6-0.4-2.3,0l-13.6,7.7c-1.7,1-4-0.6-4-2.6l0.5-16.4c0-0.8-0.4-1.6-1-2.2l-13.6-11.6
			c-1.7-1.4-1.2-3.9,0.8-4.2l16.1-2.4c0.8-0.1,1.4-0.6,1.7-1.4l5.3-14.9C304.1,60.1,306.7,60.1,307.9,61.9z"/>
	</g>
</g>
<g>
	<g>
		
			<image style="overflow:visible;" width="288" height="288" xlink:href="47849C62C7124BFA.png"  transform="matrix(0.24 0 0 0.24 506.2878 542.3345)">
		</image>
	</g>
	<g>
		<g>
			<g>
				<path class="st11" d="M557.1,535.7l-15.6,11c-0.8,0.5-1.7,0.7-2.6,0.5l-17.8-4.6c-2.2-0.6-4.4,1.4-3.7,3.4l5.4,15.9
					c0.3,0.8,0.1,1.7-0.5,2.4l-11.9,14.2c-1.5,1.8-0.2,4.1,2.1,4l19-1.2c0.9-0.1,1.8,0.3,2.3,1l10.4,13.4c1.3,1.7,4.3,1.1,5-1
					l6.3-16.6c0.3-0.8,1-1.5,1.9-1.8l18.3-6c2.3-0.7,2.8-3.4,1-4.5l-15.1-9.1c-0.7-0.4-1.2-1.2-1.1-2.1l0.9-17.1
					C561.7,535.4,559.1,534.3,557.1,535.7z"/>
				<path class="st12" d="M557.1,535.5l-15.6,10.9c-0.8,0.5-1.7,0.7-2.6,0.5l-17.7-4.6c-2.2-0.6-4.4,1.4-3.7,3.4l5.4,15.8
					c0.3,0.8,0.1,1.7-0.5,2.4l-11.9,14.2c-1.5,1.8-0.2,4.1,2.1,4l19-1.2c0.9-0.1,1.8,0.3,2.3,1l10.4,13.4c1.3,1.7,4.3,1.1,5-1
					l6.3-16.5c0.3-0.8,1-1.5,1.9-1.8l18.3-6c2.3-0.7,2.8-3.4,1-4.5l-15.1-9.1c-0.7-0.4-1.2-1.2-1.1-2.1l0.9-17
					C561.6,535.2,559,534.1,557.1,535.5z"/>
				<path class="st13" d="M557,535.3l-15.6,10.9c-0.8,0.5-1.7,0.7-2.6,0.5l-17.7-4.6c-2.2-0.6-4.4,1.4-3.7,3.4l5.4,15.8
					c0.3,0.8,0.1,1.7-0.5,2.4l-11.9,14.2c-1.5,1.8-0.2,4.1,2.1,3.9l19-1.2c0.9-0.1,1.8,0.3,2.3,1l10.4,13.4c1.3,1.7,4.3,1.1,5-1
					l6.3-16.5c0.3-0.8,1-1.5,1.9-1.8l18.3-5.9c2.3-0.7,2.8-3.4,1-4.5l-15.1-9.1c-0.7-0.4-1.2-1.2-1.1-2l0.9-17
					C561.6,535,559,533.9,557,535.3z"/>
				<path class="st14" d="M557,535.1L541.4,546c-0.8,0.5-1.7,0.7-2.6,0.5l-17.7-4.6c-2.2-0.6-4.4,1.4-3.7,3.4l5.4,15.8
					c0.3,0.8,0.1,1.7-0.5,2.4l-11.9,14.2c-1.5,1.8-0.2,4.1,2.1,3.9l18.9-1.2c0.9-0.1,1.8,0.3,2.3,1l10.4,13.3c1.3,1.7,4.3,1.1,5-1
					l6.3-16.5c0.3-0.8,1-1.5,1.9-1.8l18.3-5.9c2.3-0.7,2.8-3.4,1-4.5l-15-9.1c-0.7-0.4-1.2-1.2-1.1-2l0.9-17
					C561.5,534.8,558.9,533.7,557,535.1z"/>
				<path class="st15" d="M556.9,534.8l-15.6,10.9c-0.8,0.5-1.7,0.7-2.6,0.5l-17.7-4.6c-2.2-0.6-4.4,1.4-3.7,3.4l5.4,15.8
					c0.3,0.8,0.1,1.7-0.5,2.4l-11.9,14.2c-1.5,1.8-0.2,4.1,2.1,3.9l18.9-1.2c0.9-0.1,1.8,0.3,2.3,1l10.3,13.3c1.3,1.6,4.2,1.1,5-1
					l6.3-16.5c0.3-0.8,1-1.5,1.9-1.8l18.3-5.9c2.3-0.7,2.8-3.4,1-4.5l-15-9c-0.7-0.4-1.2-1.2-1.1-2l0.9-17
					C561.4,534.6,558.8,533.5,556.9,534.8z"/>
				<path class="st16" d="M556.8,534.6l-15.5,10.9c-0.8,0.5-1.7,0.7-2.6,0.5l-17.7-4.6c-2.2-0.6-4.4,1.4-3.7,3.4l5.4,15.8
					c0.3,0.8,0.1,1.7-0.5,2.3l-11.8,14.2c-1.5,1.8-0.2,4.1,2.1,3.9l18.9-1.2c0.9-0.1,1.8,0.3,2.3,1l10.3,13.3c1.3,1.6,4.2,1.1,5-1
					l6.3-16.5c0.3-0.8,1-1.5,1.9-1.8l18.2-5.9c2.3-0.7,2.8-3.4,1-4.5l-15-9c-0.7-0.4-1.2-1.2-1.1-2l0.9-17
					C561.4,534.4,558.8,533.3,556.8,534.6z"/>
				<path class="st17" d="M556.8,534.4l-15.5,10.9c-0.8,0.5-1.7,0.7-2.6,0.5l-17.6-4.6c-2.2-0.6-4.4,1.4-3.7,3.4l5.4,15.7
					c0.3,0.8,0.1,1.7-0.5,2.3l-11.8,14.1c-1.5,1.7-0.2,4.1,2.1,3.9l18.9-1.1c0.9-0.1,1.8,0.3,2.3,1l10.3,13.3c1.3,1.6,4.2,1.1,5-1
					l6.3-16.5c0.3-0.8,1-1.5,1.9-1.8l18.2-5.9c2.3-0.7,2.8-3.4,1-4.5l-15-9c-0.7-0.4-1.1-1.2-1.1-2l0.9-17
					C561.3,534.2,558.7,533.1,556.8,534.4z"/>
				<path class="st18" d="M556.7,534.2l-15.5,10.9c-0.8,0.5-1.7,0.7-2.6,0.5L521,541c-2.2-0.6-4.4,1.4-3.7,3.4l5.4,15.7
					c0.3,0.8,0.1,1.6-0.5,2.3l-11.8,14.1c-1.5,1.7-0.2,4.1,2.1,3.9l18.8-1.1c0.9-0.1,1.8,0.3,2.3,1l10.3,13.3c1.3,1.6,4.2,1.1,5-1
					l6.3-16.4c0.3-0.8,1-1.5,1.9-1.8l18.2-5.9c2.3-0.7,2.8-3.4,1-4.5l-15-9c-0.7-0.4-1.1-1.2-1.1-2l0.9-16.9
					C561.3,533.9,558.6,532.9,556.7,534.2z"/>
				<path class="st19" d="M556.7,534l-15.5,10.9c-0.8,0.5-1.7,0.7-2.6,0.5l-17.6-4.5c-2.2-0.6-4.4,1.4-3.7,3.4l5.4,15.7
					c0.3,0.8,0.1,1.6-0.5,2.3l-11.8,14.1c-1.5,1.7-0.2,4.1,2.1,3.9l18.8-1.1c0.9-0.1,1.8,0.3,2.3,1l10.3,13.3c1.3,1.6,4.2,1.1,5-1
					l6.2-16.4c0.3-0.8,1-1.5,1.9-1.8l18.2-5.9c2.2-0.7,2.8-3.4,1-4.5l-15-9c-0.7-0.4-1.1-1.2-1.1-2l0.9-16.9
					C561.2,533.7,558.6,532.7,556.7,534z"/>
				<path class="st20" d="M556.6,533.8l-15.5,10.8c-0.8,0.5-1.7,0.7-2.6,0.5l-17.6-4.5c-2.2-0.6-4.4,1.4-3.7,3.4l5.4,15.7
					c0.3,0.8,0.1,1.6-0.5,2.3l-11.8,14.1c-1.5,1.7-0.2,4.1,2.1,3.9l18.8-1.1c0.9-0.1,1.8,0.3,2.3,0.9l10.3,13.2c1.3,1.6,4.2,1.1,5-1
					l6.2-16.4c0.3-0.8,1-1.5,1.9-1.8l18.2-5.9c2.2-0.7,2.8-3.4,1-4.5l-14.9-9c-0.7-0.4-1.1-1.2-1.1-2l0.9-16.9
					C561.1,533.5,558.5,532.4,556.6,533.8z"/>
				<path class="st21" d="M556.6,533.6l-15.5,10.8c-0.8,0.5-1.7,0.7-2.6,0.5l-17.6-4.5c-2.2-0.6-4.3,1.4-3.7,3.4l5.4,15.7
					c0.3,0.8,0.1,1.6-0.5,2.3l-11.8,14.1c-1.5,1.7-0.2,4.1,2.1,3.9l18.8-1.1c0.9-0.1,1.8,0.3,2.3,0.9l10.3,13.2c1.3,1.6,4.2,1.1,5-1
					l6.2-16.4c0.3-0.8,1-1.5,1.9-1.7l18.1-5.9c2.2-0.7,2.8-3.4,1-4.5l-14.9-9c-0.7-0.4-1.1-1.2-1.1-2l0.9-16.9
					C561.1,533.3,558.5,532.2,556.6,533.6z"/>
				<path class="st22" d="M556.5,533.4l-15.4,10.8c-0.8,0.5-1.7,0.7-2.6,0.5l-17.5-4.5c-2.2-0.6-4.3,1.4-3.7,3.4l5.4,15.7
					c0.3,0.8,0.1,1.6-0.5,2.3l-11.8,14.1c-1.5,1.7-0.2,4,2.1,3.9l18.8-1.1c0.9-0.1,1.8,0.3,2.3,0.9l10.3,13.2c1.3,1.6,4.2,1.1,5-1
					l6.2-16.4c0.3-0.8,1-1.5,1.9-1.7l18.1-5.9c2.2-0.7,2.8-3.4,1-4.5l-14.9-9c-0.7-0.4-1.1-1.2-1.1-2l0.9-16.9
					C561,533.1,558.4,532,556.5,533.4z"/>
				<path class="st23" d="M556.4,533.1L541,543.9c-0.8,0.5-1.7,0.7-2.6,0.5l-17.5-4.5c-2.2-0.6-4.3,1.4-3.7,3.4l5.4,15.6
					c0.3,0.8,0.1,1.6-0.5,2.3l-11.8,14c-1.5,1.7-0.2,4,2.1,3.9l18.7-1.1c0.9-0.1,1.8,0.3,2.3,0.9l10.3,13.2c1.3,1.6,4.2,1.1,5-0.9
					l6.2-16.3c0.3-0.8,1-1.5,1.9-1.7l18.1-5.9c2.2-0.7,2.8-3.4,1-4.5l-14.9-9c-0.7-0.4-1.1-1.2-1.1-2l0.9-16.8
					C560.9,532.9,558.3,531.8,556.4,533.1z"/>
				<path class="st24" d="M556.4,532.9L541,543.7c-0.8,0.5-1.7,0.7-2.6,0.5l-17.5-4.5c-2.2-0.6-4.3,1.4-3.7,3.4l5.4,15.6
					c0.3,0.8,0.1,1.6-0.5,2.3l-11.7,14c-1.5,1.7-0.2,4,2.1,3.9l18.7-1.1c0.9-0.1,1.8,0.3,2.3,0.9l10.2,13.2c1.3,1.6,4.2,1.1,5-0.9
					l6.2-16.3c0.3-0.8,1-1.5,1.9-1.7l18.1-5.9c2.2-0.7,2.8-3.4,1-4.5l-14.9-8.9c-0.7-0.4-1.1-1.2-1.1-2l0.9-16.8
					C560.9,532.7,558.3,531.6,556.4,532.9z"/>
				<path class="st25" d="M556.3,532.7l-15.4,10.8c-0.8,0.5-1.7,0.7-2.6,0.5l-17.5-4.5c-2.2-0.6-4.3,1.4-3.7,3.4l5.3,15.6
					c0.3,0.8,0.1,1.6-0.5,2.3l-11.7,14c-1.5,1.7-0.2,4,2.1,3.9l18.7-1.1c0.9-0.1,1.8,0.3,2.3,0.9l10.2,13.2c1.3,1.6,4.2,1.1,5-0.9
					l6.2-16.3c0.3-0.8,1-1.5,1.9-1.7l18-5.9c2.2-0.7,2.8-3.4,1-4.5l-14.9-8.9c-0.7-0.4-1.1-1.2-1.1-2l0.9-16.8
					C560.8,532.5,558.2,531.4,556.3,532.7z"/>
				<path class="st26" d="M556.3,532.5l-15.4,10.8c-0.8,0.5-1.7,0.7-2.6,0.5l-17.5-4.5c-2.2-0.6-4.3,1.4-3.7,3.3l5.3,15.6
					c0.3,0.8,0.1,1.6-0.5,2.3l-11.7,14c-1.4,1.7-0.2,4,2.1,3.9l18.7-1.1c0.9-0.1,1.8,0.3,2.3,0.9l10.2,13.2c1.3,1.6,4.2,1.1,5-0.9
					l6.2-16.3c0.3-0.8,1-1.4,1.9-1.7l18-5.9c2.2-0.7,2.8-3.4,1-4.5l-14.8-8.9c-0.7-0.4-1.1-1.2-1.1-2l0.9-16.8
					C560.8,532.2,558.2,531.2,556.3,532.5z"/>
				<path class="st27" d="M556.2,532.3L540.9,543c-0.8,0.5-1.7,0.7-2.6,0.5l-17.4-4.5c-2.2-0.6-4.3,1.4-3.7,3.3l5.3,15.6
					c0.3,0.8,0.1,1.6-0.5,2.3l-11.7,14c-1.4,1.7-0.2,4,2.1,3.9l18.6-1.1c0.9-0.1,1.8,0.3,2.3,0.9l10.2,13.1c1.3,1.6,4.2,1.1,5-0.9
					l6.2-16.3c0.3-0.8,1-1.4,1.9-1.7l18-5.9c2.2-0.7,2.8-3.4,1-4.5l-14.8-8.9c-0.7-0.4-1.1-1.2-1.1-2l0.9-16.8
					C560.7,532,558.1,531,556.2,532.3z"/>
				<path class="st28" d="M556.2,532.1l-15.3,10.7c-0.8,0.5-1.7,0.7-2.6,0.5l-17.4-4.5c-2.2-0.6-4.3,1.4-3.7,3.3l5.3,15.5
					c0.3,0.8,0.1,1.6-0.5,2.3l-11.7,14c-1.4,1.7-0.2,4,2.1,3.9l18.6-1.1c0.9-0.1,1.8,0.3,2.3,0.9l10.2,13.1c1.3,1.6,4.2,1.1,5-0.9
					l6.2-16.2c0.3-0.8,1-1.4,1.9-1.7l18-5.8c2.2-0.7,2.8-3.4,1-4.5l-14.8-8.9c-0.7-0.4-1.1-1.2-1.1-2l0.9-16.7
					C560.6,531.8,558,530.8,556.2,532.1z"/>
				<path class="st29" d="M556.1,531.9l-15.3,10.7c-0.8,0.5-1.7,0.7-2.6,0.5l-17.4-4.5c-2.2-0.6-4.3,1.4-3.6,3.3l5.3,15.5
					c0.3,0.8,0.1,1.6-0.5,2.3l-11.7,13.9c-1.4,1.7-0.2,4,2.1,3.9l18.6-1.1c0.9-0.1,1.8,0.3,2.3,0.9l10.2,13.1
					c1.3,1.6,4.2,1.1,4.9-0.9l6.2-16.2c0.3-0.8,1-1.4,1.9-1.7l18-5.8c2.2-0.7,2.8-3.4,1-4.5l-14.8-8.9c-0.7-0.4-1.1-1.2-1.1-2
					l0.9-16.7C560.6,531.6,558,530.5,556.1,531.9z"/>
				<path class="st30" d="M556,531.7l-15.3,10.7c-0.8,0.5-1.7,0.7-2.6,0.5l-17.4-4.5c-2.1-0.6-4.3,1.4-3.6,3.3l5.3,15.5
					c0.3,0.8,0.1,1.6-0.5,2.3l-11.7,13.9c-1.4,1.7-0.2,4,2.1,3.9l18.6-1.1c0.9-0.1,1.8,0.3,2.3,0.9l10.2,13.1
					c1.3,1.6,4.2,1.1,4.9-0.9l6.2-16.2c0.3-0.8,1-1.4,1.9-1.7l17.9-5.8c2.2-0.7,2.8-3.4,1-4.5l-14.8-8.9c-0.7-0.4-1.1-1.2-1.1-2
					l0.9-16.7C560.5,531.4,557.9,530.3,556,531.7z"/>
				<path class="st31" d="M556,531.4l-15.3,10.7c-0.8,0.5-1.7,0.7-2.6,0.5l-17.4-4.5c-2.1-0.6-4.3,1.4-3.6,3.3l5.3,15.5
					c0.3,0.8,0.1,1.6-0.5,2.3l-11.6,13.9c-1.4,1.7-0.2,4,2.1,3.9l18.6-1.1c0.9-0.1,1.8,0.3,2.3,0.9l10.2,13.1
					c1.3,1.6,4.2,1.1,4.9-0.9l6.2-16.2c0.3-0.8,1-1.4,1.9-1.7l17.9-5.8c2.2-0.7,2.8-3.3,1-4.4l-14.8-8.9c-0.7-0.4-1.1-1.2-1.1-2
					l0.9-16.7C560.4,531.2,557.9,530.1,556,531.4z"/>
				<path class="st32" d="M555.9,531.2l-15.3,10.7c-0.7,0.5-1.7,0.7-2.6,0.5l-17.3-4.5c-2.1-0.6-4.3,1.4-3.6,3.3l5.3,15.5
					c0.3,0.8,0.1,1.6-0.5,2.3l-11.6,13.9c-1.4,1.7-0.2,4,2.1,3.9l18.5-1.1c0.9-0.1,1.8,0.3,2.3,0.9l10.1,13.1
					c1.3,1.6,4.2,1.1,4.9-0.9l6.2-16.2c0.3-0.8,1-1.4,1.9-1.7l17.9-5.8c2.2-0.7,2.8-3.3,1-4.4l-14.7-8.9c-0.7-0.4-1.1-1.2-1.1-2
					l0.9-16.7C560.4,531,557.8,529.9,555.9,531.2z"/>
				<path class="st33" d="M555.9,531l-15.2,10.7c-0.7,0.5-1.7,0.7-2.6,0.5l-17.3-4.5c-2.1-0.6-4.3,1.4-3.6,3.3l5.3,15.5
					c0.3,0.8,0.1,1.6-0.5,2.3l-11.6,13.9c-1.4,1.7-0.2,4,2.1,3.9l18.5-1.1c0.9-0.1,1.8,0.3,2.2,0.9l10.1,13c1.3,1.6,4.2,1.1,4.9-0.9
					l6.1-16.2c0.3-0.8,1-1.4,1.9-1.7l17.9-5.8c2.2-0.7,2.8-3.3,1-4.4l-14.7-8.9c-0.7-0.4-1.1-1.2-1.1-2l0.9-16.6
					C560.3,530.8,557.7,529.7,555.9,531z"/>
				<path class="st34" d="M555.8,530.8l-15.2,10.7c-0.7,0.5-1.7,0.7-2.6,0.5l-17.3-4.5c-2.1-0.6-4.3,1.4-3.6,3.3l5.3,15.4
					c0.3,0.8,0.1,1.6-0.5,2.3l-11.6,13.9c-1.4,1.7-0.2,4,2.1,3.9l18.5-1.1c0.9-0.1,1.7,0.3,2.2,0.9l10.1,13c1.3,1.6,4.2,1.1,4.9-0.9
					l6.1-16.1c0.3-0.8,1-1.4,1.9-1.7l17.9-5.8c2.2-0.7,2.8-3.3,1-4.4l-14.7-8.8c-0.7-0.4-1.1-1.2-1.1-2l0.9-16.6
					C560.2,530.5,557.7,529.5,555.8,530.8z"/>
				<path class="st35" d="M555.7,530.6l-15.2,10.7c-0.7,0.5-1.7,0.7-2.5,0.5l-17.3-4.5c-2.1-0.6-4.3,1.4-3.6,3.3l5.3,15.4
					c0.3,0.8,0.1,1.6-0.5,2.3l-11.6,13.8c-1.4,1.7-0.2,4,2.1,3.8l18.5-1.1c0.9-0.1,1.7,0.3,2.2,0.9l10.1,13c1.2,1.6,4.2,1.1,4.9-0.9
					l6.1-16.1c0.3-0.8,1-1.4,1.9-1.7l17.8-5.8c2.2-0.7,2.8-3.3,1-4.4l-14.7-8.8c-0.7-0.4-1.1-1.2-1.1-2l0.9-16.6
					C560.2,530.3,557.6,529.3,555.7,530.6z"/>
				<path class="st36" d="M555.7,530.4L540.5,541c-0.7,0.5-1.7,0.7-2.5,0.5l-17.3-4.5c-2.1-0.6-4.3,1.4-3.6,3.3l5.3,15.4
					c0.3,0.8,0.1,1.6-0.5,2.3l-11.6,13.8c-1.4,1.7-0.2,4,2.1,3.8l18.5-1.1c0.9-0.1,1.7,0.3,2.2,0.9l10.1,13c1.2,1.6,4.1,1.1,4.9-0.9
					l6.1-16.1c0.3-0.8,1-1.4,1.9-1.7l17.8-5.8c2.2-0.7,2.8-3.3,1-4.4l-14.7-8.8c-0.7-0.4-1.1-1.2-1.1-2l0.9-16.6
					C560.1,530.1,557.6,529.1,555.7,530.4z"/>
				<path class="st37" d="M555.6,530.2l-15.2,10.6c-0.7,0.5-1.7,0.7-2.5,0.5l-17.2-4.5c-2.1-0.6-4.3,1.4-3.6,3.3l5.3,15.4
					c0.3,0.8,0.1,1.6-0.5,2.3l-11.6,13.8c-1.4,1.7-0.2,4,2.1,3.8l18.4-1.1c0.9-0.1,1.7,0.3,2.2,0.9l10.1,13c1.2,1.6,4.1,1.1,4.9-0.9
					l6.1-16.1c0.3-0.8,1-1.4,1.9-1.7l17.8-5.8c2.2-0.7,2.8-3.3,1-4.4l-14.7-8.8c-0.7-0.4-1.1-1.2-1.1-2l0.9-16.6
					C560.1,529.9,557.5,528.9,555.6,530.2z"/>
				<path class="st38" d="M555.6,530l-15.2,10.6c-0.7,0.5-1.7,0.7-2.5,0.5l-17.2-4.4c-2.1-0.5-4.3,1.4-3.6,3.3l5.3,15.4
					c0.3,0.8,0.1,1.6-0.5,2.3l-11.5,13.8c-1.4,1.7-0.2,4,2.1,3.8l18.4-1.1c0.9-0.1,1.7,0.3,2.2,0.9l10.1,13c1.2,1.6,4.1,1.1,4.9-0.9
					l6.1-16.1c0.3-0.8,1-1.4,1.9-1.7l17.8-5.8c2.2-0.7,2.8-3.3,0.9-4.4l-14.6-8.8c-0.7-0.4-1.1-1.2-1.1-2l0.9-16.5
					C560,529.7,557.4,528.6,555.6,530z"/>
				<path class="st39" d="M555.5,529.7l-15.1,10.6c-0.7,0.5-1.7,0.7-2.5,0.5l-17.2-4.4c-2.1-0.5-4.3,1.4-3.6,3.3l5.3,15.3
					c0.3,0.8,0.1,1.6-0.5,2.3l-11.5,13.8c-1.4,1.7-0.2,4,2.1,3.8l18.4-1.1c0.9-0.1,1.7,0.3,2.2,0.9l10.1,13c1.2,1.6,4.1,1.1,4.9-0.9
					l6.1-16c0.3-0.8,1-1.4,1.9-1.7l17.8-5.8c2.2-0.7,2.8-3.3,0.9-4.4L560,550c-0.7-0.4-1.1-1.2-1.1-2l0.9-16.5
					C559.9,529.5,557.4,528.4,555.5,529.7z"/>
				<path class="st40" d="M555.5,529.5l-15.1,10.6c-0.7,0.5-1.7,0.7-2.5,0.5l-17.2-4.4c-2.1-0.5-4.3,1.4-3.6,3.3l5.3,15.3
					c0.3,0.8,0.1,1.6-0.5,2.3l-11.5,13.8c-1.4,1.7-0.2,4,2.1,3.8l18.4-1.1c0.9-0.1,1.7,0.3,2.2,0.9l10,12.9c1.2,1.6,4.1,1.1,4.9-0.9
					l6.1-16c0.3-0.8,1-1.4,1.9-1.7l17.7-5.8c2.2-0.7,2.8-3.3,0.9-4.4l-14.6-8.8c-0.7-0.4-1.1-1.2-1.1-2l0.9-16.5
					C559.9,529.3,557.3,528.2,555.5,529.5z"/>
				<path class="st41" d="M555.4,529.3l-15.1,10.6c-0.7,0.5-1.7,0.7-2.5,0.5l-17.2-4.4c-2.1-0.5-4.2,1.4-3.6,3.3l5.3,15.3
					c0.3,0.8,0.1,1.6-0.5,2.3l-11.5,13.7c-1.4,1.7-0.2,4,2.1,3.8l18.3-1.1c0.9-0.1,1.7,0.3,2.2,0.9l10,12.9c1.2,1.6,4.1,1.1,4.9-0.9
					l6.1-16c0.3-0.8,1-1.4,1.9-1.7l17.7-5.8c2.2-0.7,2.8-3.3,0.9-4.4l-14.6-8.8c-0.7-0.4-1.1-1.2-1.1-2l0.9-16.5
					C559.8,529.1,557.3,528,555.4,529.3z"/>
				<path class="st42" d="M555.3,529.1l-15.1,10.6c-0.7,0.5-1.7,0.7-2.5,0.5l-17.1-4.4c-2.1-0.5-4.2,1.4-3.6,3.3l5.2,15.3
					c0.3,0.8,0.1,1.6-0.5,2.3l-11.5,13.7c-1.4,1.7-0.2,4,2.1,3.8l18.3-1.1c0.9-0.1,1.7,0.3,2.2,0.9l10,12.9c1.2,1.6,4.1,1,4.9-0.9
					l6.1-16c0.3-0.8,1-1.4,1.9-1.7l17.7-5.8c2.2-0.7,2.7-3.3,0.9-4.4l-14.6-8.8c-0.7-0.4-1.1-1.2-1.1-2l0.9-16.5
					C559.7,528.9,557.2,527.8,555.3,529.1z"/>
			</g>
		</g>
		
			<linearGradient id="SVGID_00000121964290895420575460000001784317783561808779_" gradientUnits="userSpaceOnUse" x1="619.9102" y1="1111.368" x2="574.554" y2="1069.8369" gradientTransform="matrix(0.9232 0.3842 -0.3842 0.9232 407.2744 -676.6598)">
			<stop  offset="0" style="stop-color:#FFF3C3"/>
			<stop  offset="0.4822" style="stop-color:#FAD26A"/>
			<stop  offset="1" style="stop-color:#D0832F"/>
		</linearGradient>
		<path style="fill:url(#SVGID_00000121964290895420575460000001784317783561808779_);" d="M555.3,529.1l-15.1,10.6
			c-0.7,0.5-1.7,0.7-2.5,0.5l-17.1-4.4c-2.1-0.5-4.2,1.4-3.6,3.3l5.2,15.3c0.3,0.8,0.1,1.6-0.5,2.3l-11.5,13.7
			c-1.4,1.7-0.2,4,2.1,3.8l18.3-1.1c0.9-0.1,1.7,0.3,2.2,0.9l10,12.9c1.2,1.6,4.1,1,4.9-0.9l6.1-16c0.3-0.8,1-1.4,1.9-1.7l17.7-5.8
			c2.2-0.7,2.7-3.3,0.9-4.4l-14.6-8.8c-0.7-0.4-1.1-1.2-1.1-2l0.9-16.5C559.7,528.9,557.2,527.8,555.3,529.1z"/>
	</g>
</g>
<g>
	<g class="st45">
		
			<image style="overflow:visible;" width="370" height="370" xlink:href="47849C62C7124BC6.png"  transform="matrix(0.24 0 0 0.24 694.6878 214.0145)">
		</image>
	</g>
	<g>
		<polygon class="st46" points="728.8,272.2 709.5,233.1 776,215.4 771.5,283 		"/>
		<g>
			<defs>
				<polygon id="SVGID_00000000203468254304670800000010268874099884595879_" points="728.8,272.2 709.5,233.1 776,215.4 771.5,283 
									"/>
			</defs>
			<clipPath id="SVGID_00000024723624828515259060000002183222632650403747_">
				<use xlink:href="#SVGID_00000000203468254304670800000010268874099884595879_"  style="overflow:visible;"/>
			</clipPath>
			<polygon style="clip-path:url(#SVGID_00000024723624828515259060000002183222632650403747_);fill:#ADAAD4;" points="760.6,301.7 
				726.7,274.5 784.3,205.7 818.3,232.9 			"/>
		</g>
	</g>
</g>
<g>
	<g>
		
			<image style="overflow:visible;" width="318" height="318" xlink:href="47849C62C7124C1C.png"  transform="matrix(0.24 0 0 0.24 405.4878 25.6145)">
		</image>
	</g>
	<g>
		
			<linearGradient id="SVGID_00000154414220619543915960000011668006463604533944_" gradientUnits="userSpaceOnUse" x1="-213.5592" y1="-164.7005" x2="-159.6588" y2="-164.7005" gradientTransform="matrix(0.9546 0.2979 -0.2979 0.9546 576.5972 274.4723)">
			<stop  offset="0" style="stop-color:#CCCDE7"/>
			<stop  offset="0.9597" style="stop-color:#CACBE7"/>
		</linearGradient>
		<polygon style="fill:url(#SVGID_00000154414220619543915960000011668006463604533944_);" points="441.7,80.7 420.5,57.7 
			427.7,34.6 449.8,54.2 479.1,50.8 471.9,73.9 		"/>
		<g>
			<defs>
				<polygon id="SVGID_00000169521079785167691560000013180490947391842743_" points="441.7,80.7 420.5,57.7 427.7,34.6 449.8,54.2 
					479.1,50.8 471.9,73.9 				"/>
			</defs>
			<clipPath id="SVGID_00000181063531788846219470000012530237585440578736_">
				<use xlink:href="#SVGID_00000169521079785167691560000013180490947391842743_"  style="overflow:visible;"/>
			</clipPath>
			
				<rect x="407.4" y="14.2" transform="matrix(0.9546 0.2979 -0.2979 0.9546 35.7017 -125.0245)" style="clip-path:url(#SVGID_00000181063531788846219470000012530237585440578736_);fill:#E9D7E9;" width="41.3" height="80.8"/>
		</g>
		<polygon class="st50" points="448.9,57.6 427.7,34.6 458,27.8 479.1,50.8 		"/>
	</g>
</g>
<g>
	<g>
		
			<image style="overflow:visible;" width="206" height="206" xlink:href="47849C62C7124C23.png"  transform="matrix(0.24 0 0 0.24 392.2878 624.8945)">
		</image>
	</g>
	<g>
		
			<linearGradient id="SVGID_00000042704757677184931370000003680578666020048518_" gradientUnits="userSpaceOnUse" x1="-56.0535" y1="403.5815" x2="-21.0817" y2="403.5815" gradientTransform="matrix(0.9546 0.2979 -0.2979 0.9546 576.5972 274.4723)">
			<stop  offset="0" style="stop-color:#CCCDE7"/>
			<stop  offset="0.9597" style="stop-color:#CACBE7"/>
		</linearGradient>
		<polygon style="fill:url(#SVGID_00000042704757677184931370000003680578666020048518_);" points="415.8,660.6 402,645.7 
			406.7,630.7 421.1,643.4 440.1,641.2 435.4,656.2 		"/>
		<g>
			<defs>
				<polygon id="SVGID_00000082353139661783548610000014422582686810712750_" points="415.8,660.6 402,645.7 406.7,630.7 
					421.1,643.4 440.1,641.2 435.4,656.2 				"/>
			</defs>
			<clipPath id="SVGID_00000150812086927504841400000013857198836818940085_">
				<use xlink:href="#SVGID_00000082353139661783548610000014422582686810712750_"  style="overflow:visible;"/>
			</clipPath>
			
				<rect x="393.5" y="617.5" transform="matrix(0.9546 0.2979 -0.2979 0.9546 210.2015 -91.9916)" style="clip-path:url(#SVGID_00000150812086927504841400000013857198836818940085_);fill:#E9D7E9;" width="26.8" height="52.4"/>
		</g>
		<polygon class="st50" points="420.4,645.6 406.7,630.7 426.3,626.3 440.1,641.2 		"/>
	</g>
</g>
<image style="overflow:visible;enable-background:new    ;" width="196" height="197" id="shape_sphere.266_copy_2_00000122718049377492743210000005343027553913264516_" xlink:href="47849C62C7124C24.png"  transform="matrix(0.245 0 0 0.245 612.0667 271.0589)">
</image>
<g id="shape_sphere.265_copy_2">
	
		<image style="overflow:visible;enable-background:new    ;" width="99" height="99" id="image_00000018941140917775844890000006488511742686812348_" xlink:href="47849C62C7124C27.png"  transform="matrix(0.245 0 0 0.245 536.291 292.2788)">
	</image>
</g>
<g id="shape_sphere.265_copy_3">
	
		<image style="overflow:visible;enable-background:new    ;" width="99" height="99" id="image_00000080198819610804694800000011580509990687654043_" xlink:href="47849C62C7124C25.png"  transform="matrix(0.245 0 0 0.245 134.7616 303.6976)">
	</image>
</g>
<image style="overflow:visible;enable-background:new    ;" width="336" height="439" id="Deposit.133_00000121968655369151075370000006048154997540644022_" xlink:href="47849C62C7124C22.png"  transform="matrix(0.245 0 0 0.245 542.9507 155.4897)">
</image>
<image style="overflow:visible;enable-background:new    ;" width="786" height="879" id="bag.149_00000068641177566180935010000017185435922354265993_" xlink:href="47849C62C7124C2C.png"  transform="matrix(0.245 0 0 0.245 146.034 297.128)">
</image>
<image style="overflow:visible;enable-background:new    ;" width="1535" height="854" id="voucher.184_00000087376070766545564320000016222565200973118646_" xlink:href="47849C62C7124C2F.png"  transform="matrix(0.245 0 0 0.245 298.7639 339.1464)">
</image>
<image style="overflow:visible;enable-background:new    ;" width="615" height="225" id="Layer_9_copy_00000039108050049040902010000016755910552496539291_" xlink:href="47849C62C7124C2D.png"  transform="matrix(0.3979 0 0 0.3979 116.4268 493.1567)">
</image>
<g>
	<g class="st45">
		
			<image style="overflow:visible;" width="371" height="371" xlink:href="47849C62C7124C21.png"  transform="matrix(0.24 0 0 0.24 39.9678 417.7745)">
		</image>
	</g>
	<g>
		<polygon class="st46" points="94.9,476 52,484 53,415.1 116.8,437.9 		"/>
		<g>
			<defs>
				<polygon id="SVGID_00000170961788933589083680000015811728886672527766_" points="94.9,476 52,484 53,415.1 116.8,437.9 				"/>
			</defs>
			<clipPath id="SVGID_00000176029983283437049980000002017779735714047619_">
				<use xlink:href="#SVGID_00000170961788933589083680000015811728886672527766_"  style="overflow:visible;"/>
			</clipPath>
			<polygon style="clip-path:url(#SVGID_00000176029983283437049980000002017779735714047619_);fill:#ADAAD4;" points="131.9,453.4 
				96.5,478.7 45.9,404.5 81.3,379.2 			"/>
		</g>
	</g>
</g>
<g>
	<g>
		
			<image style="overflow:visible;" width="102" height="174" xlink:href="47849C62C7124C0F.png"  transform="matrix(0.24 0 0 0.24 495.4878 243.7745)">
		</image>
		<path class="st54" d="M518.8,263.3l-3.3,3.1l1.8-2.7c0.6-0.9,1.1-1.8,1.4-2.8c1.7-5.5-0.9-11.9-6.1-14.7l-5-2.7l0.7-1.3l5,2.7
			C519.8,248.4,522.3,256.7,518.8,263.3z"/>
		
			<image style="overflow:visible;" width="827" height="849" xlink:href="47849C62C7124C01.png"  transform="matrix(0.24 0 0 0.24 316.4478 149.4545)">
		</image>
		<path class="st55" d="M472.7,341.8c-1.8,0-3.6-0.2-5.4-0.6c-0.4-0.1-0.7-0.5-0.6-0.9c0.1-0.4,0.5-0.7,0.9-0.6
			c2.1,0.4,4.2,0.6,6.2,0.5c0.4,0,0.8,0.3,0.8,0.8c0,0.4-0.3,0.8-0.8,0.8C473.5,341.8,473.1,341.8,472.7,341.8z M479.2,340.9
			c-0.3,0-0.7-0.2-0.8-0.6c-0.1-0.4,0.1-0.9,0.5-1c2-0.6,3.9-1.4,5.7-2.6c0.4-0.2,0.9-0.1,1.1,0.2c0.2,0.4,0.1,0.9-0.2,1.1
			c-1.9,1.2-3.9,2.1-6.1,2.7C479.3,340.9,479.2,340.9,479.2,340.9z M462.2,339.8c-0.1,0-0.2,0-0.2,0l-6.2-2c-0.4-0.1-0.6-0.6-0.5-1
			c0.1-0.4,0.6-0.6,1-0.5l6.2,2c0.4,0.1,0.6,0.6,0.5,1C462.9,339.5,462.6,339.8,462.2,339.8z M450.9,336.2c-0.1,0-0.2,0-0.2,0
			l-6.2-2c-0.4-0.1-0.6-0.6-0.5-1c0.1-0.4,0.6-0.6,1-0.5l6.2,2c0.4,0.1,0.6,0.6,0.5,1C451.6,336,451.2,336.2,450.9,336.2z
			 M489.2,334.9c-0.2,0-0.4-0.1-0.6-0.2c-0.3-0.3-0.3-0.8,0-1.1c1.4-1.5,2.7-3.1,3.8-5c0.2-0.4,0.7-0.5,1.1-0.3
			c0.4,0.2,0.5,0.7,0.3,1.1c-1.1,2-2.5,3.7-4,5.3C489.7,334.8,489.4,334.9,489.2,334.9z M439.6,332.6c-0.1,0-0.2,0-0.2,0l-6.2-2
			c-0.4-0.1-0.6-0.6-0.5-1c0.1-0.4,0.6-0.6,1-0.5l6.2,2c0.4,0.1,0.6,0.6,0.5,1C440.2,332.4,439.9,332.6,439.6,332.6z M428.3,329
			c-0.1,0-0.2,0-0.2,0l-6.2-2c-0.4-0.1-0.6-0.6-0.5-1c0.1-0.4,0.6-0.6,1-0.5l6.2,2c0.4,0.1,0.6,0.6,0.5,1
			C428.9,328.8,428.6,329,428.3,329z M417,325.4c-0.1,0-0.2,0-0.2,0l-6.2-2c-0.4-0.1-0.6-0.6-0.5-1c0.1-0.4,0.6-0.6,1-0.5l6.2,2
			c0.4,0.1,0.6,0.6,0.5,1C417.6,325.2,417.3,325.4,417,325.4z M495.4,324.8c-0.1,0-0.2,0-0.3,0c-0.4-0.1-0.6-0.6-0.5-1
			c0.4-1.3,0.8-2.7,1.1-4.1c0.1-0.4,0.5-0.7,0.9-0.6c0.4,0.1,0.7,0.5,0.6,0.9c-0.3,1.5-0.7,2.9-1.1,4.3
			C496,324.6,495.7,324.8,495.4,324.8z M405.6,321.8c-0.1,0-0.2,0-0.2,0l-6.2-2c-0.4-0.1-0.6-0.6-0.5-1c0.1-0.4,0.6-0.6,1-0.5l6.2,2
			c0.4,0.1,0.6,0.6,0.5,1C406.3,321.6,406,321.8,405.6,321.8z M394.3,318.2c-0.1,0-0.2,0-0.2,0l-6.2-2c-0.4-0.1-0.6-0.6-0.5-1
			c0.1-0.4,0.6-0.6,1-0.5l6.2,2c0.4,0.1,0.6,0.6,0.5,1C395,318,394.7,318.2,394.3,318.2z M496.9,317.9c0,0-0.1,0-0.1,0
			c-0.4-0.1-0.7-0.5-0.7-0.9l0.9-6.4c0.1-0.4,0.5-0.7,0.9-0.7c0.4,0.1,0.7,0.5,0.7,0.9l-0.9,6.4
			C497.7,317.7,497.3,317.9,496.9,317.9z M383,314.6c-0.1,0-0.2,0-0.2,0l-6.2-2c-0.4-0.1-0.6-0.6-0.5-1c0.1-0.4,0.6-0.6,1-0.5l6.2,2
			c0.4,0.1,0.6,0.6,0.5,1C383.6,314.4,383.3,314.6,383,314.6z M371.7,311c-0.1,0-0.2,0-0.2,0l-6.2-2c-0.4-0.1-0.6-0.6-0.5-1
			c0.1-0.4,0.6-0.6,1-0.5l6.2,2c0.4,0.1,0.6,0.6,0.5,1C372.3,310.8,372,311,371.7,311z M360.4,307.4c-0.1,0-0.2,0-0.2,0l-6.2-2
			c-0.4-0.1-0.6-0.6-0.5-1c0.1-0.4,0.6-0.6,1-0.5l6.2,2c0.4,0.1,0.6,0.6,0.5,1C361,307.2,360.7,307.4,360.4,307.4z M498.6,306.2
			c0,0-0.1,0-0.1,0c-0.4-0.1-0.7-0.5-0.7-0.9l0.9-6.4c0.1-0.4,0.5-0.7,0.9-0.7c0.4,0.1,0.7,0.5,0.7,0.9l-0.9,6.4
			C499.3,305.9,499,306.2,498.6,306.2z M349,303.8c-0.1,0-0.2,0-0.2,0l-6.2-2c-0.4-0.1-0.6-0.6-0.5-1c0.1-0.4,0.6-0.6,1-0.5l6.2,2
			c0.4,0.1,0.6,0.6,0.5,1C349.7,303.6,349.4,303.8,349,303.8z M337.8,300c-0.1,0-0.2,0-0.4-0.1c-2-1-3.8-2.2-5.5-3.8
			c-0.3-0.3-0.4-0.8-0.1-1.1c0.3-0.3,0.8-0.3,1.1-0.1c1.6,1.4,3.3,2.6,5.2,3.5c0.4,0.2,0.6,0.7,0.4,1.1
			C338.4,299.8,338.1,300,337.8,300z M500.2,294.4c0,0-0.1,0-0.1,0c-0.4-0.1-0.7-0.5-0.7-0.9l0.9-6.4c0.1-0.4,0.5-0.7,0.9-0.7
			c0.4,0.1,0.7,0.5,0.7,0.9l-0.9,6.4C501,294.1,500.6,294.4,500.2,294.4z M328.9,292.4c-0.2,0-0.5-0.1-0.6-0.3
			c-1.3-1.8-2.4-3.7-3.3-5.8c-0.2-0.4,0-0.9,0.4-1c0.4-0.2,0.9,0,1,0.4c0.8,1.9,1.9,3.8,3.1,5.4c0.3,0.4,0.2,0.8-0.2,1.1
			C329.2,292.3,329,292.4,328.9,292.4z M501.9,282.7c0,0-0.1,0-0.1,0c-0.4-0.1-0.7-0.5-0.7-0.9l0.9-6.4c0.1-0.4,0.5-0.7,0.9-0.7
			c0.4,0.1,0.7,0.5,0.7,0.9l-0.9,6.4C502.6,282.4,502.3,282.7,501.9,282.7z M323.9,281.6c-0.4,0-0.7-0.3-0.8-0.6
			c-0.4-2-0.7-4-0.7-6.1l0-0.6c0-0.4,0.3-0.8,0.8-0.8c0.4,0,0.8,0.4,0.8,0.8l0,0.5c0,1.9,0.2,3.8,0.6,5.7c0.1,0.4-0.2,0.8-0.6,0.9
			C324.1,281.6,324,281.6,323.9,281.6z M503.5,270.9c0,0-0.1,0-0.1,0c-0.4-0.1-0.7-0.5-0.7-0.9l0.9-6.4c0.1-0.4,0.5-0.7,0.9-0.7
			c0.4,0.1,0.7,0.5,0.7,0.9l-0.9,6.4C504.3,270.6,503.9,270.9,503.5,270.9z M323.9,269.8c0,0-0.1,0-0.1,0c-0.4-0.1-0.7-0.5-0.7-0.9
			l0.9-6.4c0.1-0.4,0.5-0.7,0.9-0.7c0.4,0.1,0.7,0.5,0.7,0.9l-0.9,6.4C324.6,269.6,324.2,269.8,323.9,269.8z M505.2,259.2
			c0,0-0.1,0-0.1,0c-0.4-0.1-0.7-0.5-0.7-0.9l0.9-6.4c0.1-0.4,0.5-0.7,0.9-0.7c0.4,0.1,0.7,0.5,0.7,0.9l-0.9,6.4
			C505.9,258.9,505.6,259.2,505.2,259.2z M325.5,258.1c0,0-0.1,0-0.1,0c-0.4-0.1-0.7-0.5-0.7-0.9l0.9-6.4c0.1-0.4,0.5-0.7,0.9-0.7
			c0.4,0.1,0.7,0.5,0.7,0.9l-0.9,6.4C326.2,257.8,325.9,258.1,325.5,258.1z M506.9,247.4c0,0-0.1,0-0.1,0c-0.4-0.1-0.7-0.5-0.7-0.9
			l0.6-4c0.1-0.8,0.2-1.6,0.2-2.4c0-0.4,0.4-0.8,0.8-0.7c0.4,0,0.8,0.4,0.7,0.8c-0.1,0.8-0.1,1.7-0.3,2.5l-0.6,4
			C507.6,247.1,507.2,247.4,506.9,247.4z M327.2,246.3c0,0-0.1,0-0.1,0c-0.4-0.1-0.7-0.5-0.7-0.9l0.9-6.4c0.1-0.4,0.5-0.7,0.9-0.7
			c0.4,0.1,0.7,0.5,0.7,0.9l-0.9,6.4C327.9,246,327.6,246.3,327.2,246.3z M507.6,235.6c-0.4,0-0.8-0.3-0.8-0.7
			c-0.2-2.1-0.5-4.2-1.1-6.2c-0.1-0.4,0.1-0.9,0.6-1c0.4-0.1,0.9,0.1,1,0.6c0.6,2.1,1,4.3,1.1,6.5
			C508.4,235.2,508.1,235.5,507.6,235.6C507.7,235.6,507.6,235.6,507.6,235.6z M328.8,234.6c0,0-0.1,0-0.1,0
			c-0.4-0.1-0.7-0.5-0.7-0.9l0.9-6.4c0.1-0.4,0.5-0.7,0.9-0.7c0.4,0.1,0.7,0.5,0.7,0.9l-0.9,6.4
			C329.5,234.3,329.2,234.6,328.8,234.6z M504.7,224.1c-0.3,0-0.6-0.2-0.7-0.5c-0.8-1.9-1.8-3.8-2.9-5.6c-0.2-0.4-0.1-0.9,0.2-1.1
			c0.4-0.2,0.9-0.1,1.1,0.2c1.2,1.9,2.2,3.8,3.1,5.8c0.2,0.4,0,0.9-0.4,1C504.9,224.1,504.8,224.1,504.7,224.1z M330.5,222.8
			c0,0-0.1,0-0.1,0c-0.4-0.1-0.7-0.5-0.7-0.9l0.9-6.4c0.1-0.4,0.5-0.7,0.9-0.7c0.4,0.1,0.7,0.5,0.7,0.9l-0.9,6.4
			C331.2,222.5,330.9,222.8,330.5,222.8z M498.5,214c-0.2,0-0.4-0.1-0.6-0.3c-1.4-1.6-2.9-3.1-4.5-4.4c-0.3-0.3-0.4-0.8-0.1-1.1
			c0.3-0.3,0.8-0.4,1.1-0.1c1.7,1.4,3.3,2.9,4.8,4.6c0.3,0.3,0.2,0.8-0.1,1.1C498.9,214,498.7,214,498.5,214z M332.1,211.1
			c0,0-0.1,0-0.1,0c-0.4-0.1-0.7-0.5-0.7-0.9l0.9-6.4c0.1-0.4,0.5-0.7,0.9-0.7c0.4,0.1,0.7,0.5,0.7,0.9l-0.9,6.4
			C332.8,210.8,332.5,211.1,332.1,211.1z M489.4,206.5c-0.1,0-0.3,0-0.4-0.1c-1.7-1-3.5-1.7-5.4-2.3l-0.4-0.1
			c-0.4-0.1-0.6-0.6-0.5-1c0.1-0.4,0.6-0.6,1-0.5l0.4,0.1c1.9,0.6,3.8,1.4,5.7,2.5c0.4,0.2,0.5,0.7,0.3,1.1
			C489.9,206.4,489.7,206.5,489.4,206.5z M478.3,202.4c-0.1,0-0.2,0-0.2,0l-6.2-2c-0.4-0.1-0.6-0.6-0.5-1c0.1-0.4,0.6-0.6,1-0.5
			l6.2,2c0.4,0.1,0.6,0.6,0.5,1C479,202.1,478.6,202.4,478.3,202.4z M333.8,199.3c0,0-0.1,0-0.1,0c-0.4-0.1-0.7-0.5-0.7-0.9l0.9-6.4
			c0.1-0.4,0.5-0.7,0.9-0.7c0.4,0.1,0.7,0.5,0.7,0.9l-0.9,6.4C334.5,199,334.2,199.3,333.8,199.3z M467,198.8c-0.1,0-0.2,0-0.2,0
			l-6.2-2c-0.4-0.1-0.6-0.6-0.5-1c0.1-0.4,0.6-0.6,1-0.5l6.2,2c0.4,0.1,0.6,0.6,0.5,1C467.6,198.6,467.3,198.8,467,198.8z
			 M455.7,195.2c-0.1,0-0.2,0-0.2,0l-6.2-2c-0.4-0.1-0.6-0.6-0.5-1c0.1-0.4,0.6-0.6,1-0.5l6.2,2c0.4,0.1,0.6,0.6,0.5,1
			C456.3,195,456,195.2,455.7,195.2z M444.4,191.6c-0.1,0-0.2,0-0.2,0l-6.2-2c-0.4-0.1-0.6-0.6-0.5-1c0.1-0.4,0.6-0.6,1-0.5l6.2,2
			c0.4,0.1,0.6,0.6,0.5,1C445,191.4,444.7,191.6,444.4,191.6z M433,188c-0.1,0-0.2,0-0.2,0l-6.2-2c-0.4-0.1-0.6-0.6-0.5-1
			c0.1-0.4,0.6-0.6,1-0.5l6.2,2c0.4,0.1,0.6,0.6,0.5,1C433.7,187.8,433.4,188,433,188z M335.4,187.5c0,0-0.1,0-0.1,0
			c-0.4-0.1-0.7-0.5-0.7-0.9l0.9-6.4c0.1-0.4,0.5-0.7,0.9-0.7c0.4,0.1,0.7,0.5,0.7,0.9l-0.9,6.4
			C336.2,187.3,335.8,187.5,335.4,187.5z M421.7,184.4c-0.1,0-0.2,0-0.2,0l-6.2-2c-0.4-0.1-0.6-0.6-0.5-1c0.1-0.4,0.6-0.6,1-0.5
			l6.2,2c0.4,0.1,0.6,0.6,0.5,1C422.4,184.2,422.1,184.4,421.7,184.4z M410.4,180.8c-0.1,0-0.2,0-0.2,0l-6.2-2
			c-0.4-0.1-0.6-0.6-0.5-1c0.1-0.4,0.6-0.6,1-0.5l6.2,2c0.4,0.1,0.6,0.6,0.5,1C411,180.6,410.7,180.8,410.4,180.8z M399.1,177.2
			c-0.1,0-0.2,0-0.2,0l-6.2-2c-0.4-0.1-0.6-0.6-0.5-1c0.1-0.4,0.6-0.6,1-0.5l6.2,2c0.4,0.1,0.6,0.6,0.5,1
			C399.7,177,399.4,177.2,399.1,177.2z M337.1,175.8c0,0-0.1,0-0.1,0c-0.4-0.1-0.7-0.5-0.7-0.9l0.9-6.4c0.1-0.4,0.5-0.7,0.9-0.7
			c0.4,0.1,0.7,0.5,0.7,0.9l-0.9,6.4C337.8,175.5,337.5,175.8,337.1,175.8z M387.8,173.6c-0.1,0-0.2,0-0.2,0l-6.2-2
			c-0.4-0.1-0.6-0.6-0.5-1c0.1-0.4,0.6-0.6,1-0.5l6.2,2c0.4,0.1,0.6,0.6,0.5,1C388.4,173.4,388.1,173.6,387.8,173.6z M376.4,170
			c-0.1,0-0.2,0-0.2,0l-6.2-2c-0.4-0.1-0.6-0.6-0.5-1c0.1-0.4,0.6-0.6,1-0.5l6.2,2c0.4,0.1,0.6,0.6,0.5,1
			C377.1,169.8,376.8,170,376.4,170z M365.1,166.4c-0.1,0-0.2,0-0.2,0l-6.2-2c-0.4-0.1-0.6-0.6-0.5-1c0.1-0.4,0.6-0.6,1-0.5l6.2,2
			c0.4,0.1,0.6,0.6,0.5,1C365.8,166.2,365.5,166.4,365.1,166.4z M338.7,164c0,0-0.1,0-0.1,0c-0.4-0.1-0.7-0.5-0.7-0.9l0.2-1.2
			c0.3-2.2,2.1-3.8,4.3-4c0.4,0,0.8,0.3,0.8,0.7c0,0.4-0.3,0.8-0.7,0.8c-1.4,0.1-2.6,1.2-2.8,2.6l-0.2,1.2
			C339.5,163.7,339.1,164,338.7,164z M353.8,162.8c-0.1,0-0.2,0-0.2,0l-6.2-2c-0.4-0.1-0.6-0.6-0.5-1c0.1-0.4,0.6-0.6,1-0.5l6.2,2
			c0.4,0.1,0.6,0.6,0.5,1C354.4,162.6,354.1,162.8,353.8,162.8z"/>
		
			<image style="overflow:visible;" width="890" height="841" xlink:href="47849C62C7124C03.png"  transform="matrix(0.24 0 0 0.24 305.6478 146.3345)">
		</image>
		
			<image style="overflow:visible;" width="826" height="858" xlink:href="47849C62C7124C06.png"  transform="matrix(0.24 0 0 0.24 301.0878 156.4145)">
		</image>
		<g>
			<g>
				
					<image style="overflow:visible;" width="75" height="43" xlink:href="47849C62C7124C07.png"  transform="matrix(0.24 0 0 0.24 320.5278 150.1745)">
				</image>
			</g>
			
				<image style="overflow:visible;" width="811" height="826" xlink:href="47849C62C7124C02.png"  transform="matrix(0.24 0 0 0.24 289.3278 160.0145)">
			</image>
		</g>
		
			<image style="overflow:visible;" width="119" height="68" xlink:href="47849C62C7124C1D.png"  transform="matrix(0.24 0 0 0.24 307.5678 150.1745)">
		</image>
		<path class="st56" d="M442.6,348.5c-1.7,0-3.5-0.2-5.3-0.6c-0.4-0.1-0.7-0.5-0.6-0.9c0.1-0.4,0.5-0.7,0.9-0.6
			c2,0.4,4.1,0.6,6.1,0.5c0.4,0,0.8,0.3,0.8,0.8c0,0.4-0.3,0.8-0.8,0.8C443.4,348.5,443,348.5,442.6,348.5z M448.9,347.6
			c-0.3,0-0.7-0.2-0.8-0.6c-0.1-0.4,0.1-0.9,0.5-1c2-0.6,3.8-1.4,5.5-2.5c0.4-0.2,0.9-0.1,1.1,0.2c0.2,0.4,0.1,0.9-0.2,1.1
			c-1.9,1.2-3.9,2.1-6,2.7C449.1,347.6,449,347.6,448.9,347.6z M432.4,346.5c-0.1,0-0.2,0-0.2,0l-6-1.9c-0.4-0.1-0.6-0.6-0.5-1
			c0.1-0.4,0.6-0.6,1-0.5l6,1.9c0.4,0.1,0.6,0.6,0.5,1C433,346.3,432.7,346.5,432.4,346.5z M421.3,343c-0.1,0-0.2,0-0.2,0l-6-1.9
			c-0.4-0.1-0.6-0.6-0.5-1c0.1-0.4,0.6-0.6,1-0.5l6,1.9c0.4,0.1,0.6,0.6,0.5,1C422,342.8,421.7,343,421.3,343z M458.8,341.8
			c-0.2,0-0.4-0.1-0.6-0.2c-0.3-0.3-0.3-0.8,0-1.1c1.4-1.4,2.7-3.1,3.7-4.9c0.2-0.4,0.7-0.5,1.1-0.3c0.4,0.2,0.5,0.7,0.3,1.1
			c-1.1,1.9-2.4,3.7-3.9,5.2C459.2,341.7,459,341.8,458.8,341.8z M410.3,339.5c-0.1,0-0.2,0-0.2,0l-6-1.9c-0.4-0.1-0.6-0.6-0.5-1
			c0.1-0.4,0.6-0.6,1-0.5l6,1.9c0.4,0.1,0.6,0.6,0.5,1C410.9,339.3,410.6,339.5,410.3,339.5z M399.2,336c-0.1,0-0.2,0-0.2,0l-6-1.9
			c-0.4-0.1-0.6-0.6-0.5-1c0.1-0.4,0.6-0.6,1-0.5l6,1.9c0.4,0.1,0.6,0.6,0.5,1C399.9,335.8,399.5,336,399.2,336z M388.1,332.5
			c-0.1,0-0.2,0-0.2,0l-6-1.9c-0.4-0.1-0.6-0.6-0.5-1c0.1-0.4,0.6-0.6,1-0.5l6,1.9c0.4,0.1,0.6,0.6,0.5,1
			C388.8,332.3,388.5,332.5,388.1,332.5z M464.8,332c-0.1,0-0.2,0-0.3,0c-0.4-0.1-0.6-0.6-0.5-1c0.4-1.3,0.8-2.6,1.1-4
			c0.1-0.4,0.5-0.7,0.9-0.6c0.4,0.1,0.7,0.5,0.6,0.9c-0.3,1.4-0.7,2.8-1.1,4.2C465.4,331.7,465.1,332,464.8,332z M377.1,329
			c-0.1,0-0.2,0-0.2,0l-6-1.9c-0.4-0.1-0.6-0.6-0.5-1c0.1-0.4,0.6-0.6,1-0.5l6,1.9c0.4,0.1,0.6,0.6,0.5,1
			C377.7,328.8,377.4,329,377.1,329z M366,325.5c-0.1,0-0.2,0-0.2,0l-6-1.9c-0.4-0.1-0.6-0.6-0.5-1c0.1-0.4,0.6-0.6,1-0.5l6,1.9
			c0.4,0.1,0.6,0.6,0.5,1C366.7,325.2,366.4,325.5,366,325.5z M466.3,325.2c0,0-0.1,0-0.1,0c-0.4-0.1-0.7-0.5-0.7-0.9l0.9-6.3
			c0.1-0.4,0.5-0.7,0.9-0.7c0.4,0.1,0.7,0.5,0.7,0.9l-0.9,6.3C467,324.9,466.7,325.2,466.3,325.2z M355,321.9c-0.1,0-0.2,0-0.2,0
			l-6-1.9c-0.4-0.1-0.6-0.6-0.5-1c0.1-0.4,0.6-0.6,1-0.5l6,1.9c0.4,0.1,0.6,0.6,0.5,1C355.6,321.7,355.3,321.9,355,321.9z
			 M343.9,318.4c-0.1,0-0.2,0-0.2,0l-6-1.9c-0.4-0.1-0.6-0.6-0.5-1c0.1-0.4,0.6-0.6,1-0.5l6,1.9c0.4,0.1,0.6,0.6,0.5,1
			C344.5,318.2,344.2,318.4,343.9,318.4z M332.8,314.9c-0.1,0-0.2,0-0.2,0l-6-1.9c-0.4-0.1-0.6-0.6-0.5-1c0.1-0.4,0.6-0.6,1-0.5
			l6,1.9c0.4,0.1,0.6,0.6,0.5,1C333.5,314.7,333.2,314.9,332.8,314.9z M467.9,313.7c0,0-0.1,0-0.1,0c-0.4-0.1-0.7-0.5-0.7-0.9
			l0.9-6.3c0.1-0.4,0.5-0.7,0.9-0.7c0.4,0.1,0.7,0.5,0.7,0.9l-0.9,6.3C468.6,313.4,468.3,313.7,467.9,313.7z M321.8,311.4
			c-0.1,0-0.2,0-0.2,0l-6-1.9c-0.4-0.1-0.6-0.6-0.5-1c0.1-0.4,0.6-0.6,1-0.5l6,1.9c0.4,0.1,0.6,0.6,0.5,1
			C322.4,311.2,322.1,311.4,321.8,311.4z M310.8,307.7c-0.1,0-0.2,0-0.4-0.1c-1.9-0.9-3.7-2.2-5.4-3.7c-0.3-0.3-0.4-0.8-0.1-1.1
			c0.3-0.3,0.8-0.3,1.1-0.1c1.6,1.4,3.2,2.5,5,3.4c0.4,0.2,0.6,0.7,0.4,1.1C311.4,307.5,311.1,307.7,310.8,307.7z M469.5,302.2
			c0,0-0.1,0-0.1,0c-0.4-0.1-0.7-0.5-0.7-0.9l0.9-6.3c0.1-0.4,0.5-0.7,0.9-0.7c0.4,0.1,0.7,0.5,0.7,0.9l-0.9,6.3
			C470.3,301.9,469.9,302.2,469.5,302.2z M302.1,300.2c-0.2,0-0.5-0.1-0.6-0.3c-1.3-1.7-2.4-3.6-3.3-5.6c-0.2-0.4,0-0.9,0.4-1
			c0.4-0.2,0.9,0,1,0.4c0.8,1.9,1.9,3.7,3.1,5.3c0.3,0.4,0.2,0.8-0.2,1.1C302.4,300.2,302.2,300.2,302.1,300.2z M471.1,290.7
			c0,0-0.1,0-0.1,0c-0.4-0.1-0.7-0.5-0.7-0.9l0.9-6.3c0.1-0.4,0.5-0.7,0.9-0.7c0.4,0.1,0.7,0.5,0.7,0.9l-0.9,6.3
			C471.9,290.5,471.5,290.7,471.1,290.7z M297.2,289.7c-0.4,0-0.7-0.3-0.8-0.6c-0.4-2-0.7-4-0.7-5.9l0-0.5c0-0.4,0.4-0.8,0.8-0.8
			c0.4,0,0.8,0.4,0.8,0.8l0,0.5c0,1.8,0.2,3.7,0.6,5.6c0.1,0.4-0.2,0.8-0.6,0.9C297.4,289.7,297.3,289.7,297.2,289.7z M472.8,279.3
			c0,0-0.1,0-0.1,0c-0.4-0.1-0.7-0.5-0.7-0.9l0.9-6.3c0.1-0.4,0.5-0.7,0.9-0.7c0.4,0.1,0.7,0.5,0.7,0.9l-0.9,6.3
			C473.5,279,473.1,279.3,472.8,279.3z M297.2,278.2c0,0-0.1,0-0.1,0c-0.4-0.1-0.7-0.5-0.7-0.9l0.9-6.3c0.1-0.4,0.5-0.7,0.9-0.7
			c0.4,0.1,0.7,0.5,0.7,0.9l-0.9,6.3C297.9,277.9,297.6,278.2,297.2,278.2z M474.4,267.8c0,0-0.1,0-0.1,0c-0.4-0.1-0.7-0.5-0.7-0.9
			l0.9-6.3c0.1-0.4,0.5-0.7,0.9-0.7c0.4,0.1,0.7,0.5,0.7,0.9l-0.9,6.3C475.1,267.5,474.8,267.8,474.4,267.8z M298.8,266.7
			c0,0-0.1,0-0.1,0c-0.4-0.1-0.7-0.5-0.7-0.9l0.9-6.3c0.1-0.4,0.5-0.7,0.9-0.7c0.4,0.1,0.7,0.5,0.7,0.9l-0.9,6.3
			C299.5,266.4,299.2,266.7,298.8,266.7z M476,256.3c0,0-0.1,0-0.1,0c-0.4-0.1-0.7-0.5-0.7-0.9l0.5-3.9c0.1-0.8,0.2-1.5,0.2-2.3
			c0-0.4,0.4-0.7,0.8-0.7c0.4,0,0.8,0.4,0.7,0.8c-0.1,0.8-0.1,1.6-0.3,2.4l-0.5,3.9C476.7,256,476.4,256.3,476,256.3z M300.4,255.2
			c0,0-0.1,0-0.1,0c-0.4-0.1-0.7-0.5-0.7-0.9l0.9-6.3c0.1-0.4,0.5-0.7,0.9-0.7c0.4,0.1,0.7,0.5,0.7,0.9l-0.9,6.3
			C301.1,255,300.8,255.2,300.4,255.2z M476.7,244.7c-0.4,0-0.8-0.3-0.8-0.7c-0.2-2-0.5-4.1-1.1-6.1c-0.1-0.4,0.1-0.9,0.6-1
			c0.4-0.1,0.9,0.1,1,0.6c0.6,2.1,0.9,4.2,1.1,6.4C477.5,244.3,477.2,244.7,476.7,244.7C476.8,244.7,476.7,244.7,476.7,244.7z
			 M302,243.7c0,0-0.1,0-0.1,0c-0.4-0.1-0.7-0.5-0.7-0.9l0.9-6.3c0.1-0.4,0.5-0.7,0.9-0.7c0.4,0.1,0.7,0.5,0.7,0.9l-0.9,6.3
			C302.7,243.5,302.4,243.7,302,243.7z M473.9,233.5c-0.3,0-0.6-0.2-0.7-0.5c-0.8-1.9-1.8-3.7-2.9-5.5c-0.2-0.4-0.1-0.9,0.2-1.1
			c0.4-0.2,0.9-0.1,1.1,0.2c1.2,1.8,2.2,3.7,3,5.7c0.2,0.4,0,0.9-0.4,1C474.1,233.5,474,233.5,473.9,233.5z M303.6,232.3
			c0,0-0.1,0-0.1,0c-0.4-0.1-0.7-0.5-0.7-0.9l0.9-6.3c0.1-0.4,0.5-0.7,0.9-0.7c0.4,0.1,0.7,0.5,0.7,0.9l-0.9,6.3
			C304.4,232,304,232.3,303.6,232.3z M467.8,223.7c-0.2,0-0.4-0.1-0.6-0.3c-1.4-1.6-2.9-3-4.4-4.3c-0.3-0.3-0.4-0.8-0.1-1.1
			c0.3-0.3,0.8-0.4,1.1-0.1c1.7,1.3,3.2,2.8,4.6,4.5c0.3,0.3,0.2,0.8-0.1,1.1C468.2,223.6,468,223.7,467.8,223.7z M305.2,220.8
			c0,0-0.1,0-0.1,0c-0.4-0.1-0.7-0.5-0.7-0.9l0.9-6.3c0.1-0.4,0.5-0.7,0.9-0.7c0.4,0.1,0.7,0.5,0.7,0.9l-0.9,6.3
			C306,220.5,305.6,220.8,305.2,220.8z M458.9,216.3c-0.1,0-0.3,0-0.4-0.1c-1.7-0.9-3.4-1.7-5.2-2.3l-0.4-0.1
			c-0.4-0.1-0.6-0.6-0.5-1c0.1-0.4,0.6-0.6,1-0.5l0.4,0.1c1.9,0.6,3.7,1.4,5.5,2.4c0.4,0.2,0.5,0.7,0.3,1.1
			C459.5,216.2,459.2,216.3,458.9,216.3z M448.1,212.3c-0.1,0-0.2,0-0.2,0l-6-1.9c-0.4-0.1-0.6-0.6-0.5-1c0.1-0.4,0.6-0.6,1-0.5
			l6,1.9c0.4,0.1,0.6,0.6,0.5,1C448.7,212.1,448.4,212.3,448.1,212.3z M306.9,209.3c0,0-0.1,0-0.1,0c-0.4-0.1-0.7-0.5-0.7-0.9
			l0.9-6.3c0.1-0.4,0.5-0.7,0.9-0.7c0.4,0.1,0.7,0.5,0.7,0.9l-0.9,6.3C307.6,209,307.2,209.3,306.9,209.3z M437,208.8
			c-0.1,0-0.2,0-0.2,0l-6-1.9c-0.4-0.1-0.6-0.6-0.5-1c0.1-0.4,0.6-0.6,1-0.5l6,1.9c0.4,0.1,0.6,0.6,0.5,1
			C437.7,208.5,437.4,208.8,437,208.8z M426,205.2c-0.1,0-0.2,0-0.2,0l-6-1.9c-0.4-0.1-0.6-0.6-0.5-1c0.1-0.4,0.6-0.6,1-0.5l6,1.9
			c0.4,0.1,0.6,0.6,0.5,1C426.6,205,426.3,205.2,426,205.2z M414.9,201.7c-0.1,0-0.2,0-0.2,0l-6-1.9c-0.4-0.1-0.6-0.6-0.5-1
			c0.1-0.4,0.6-0.6,1-0.5l6,1.9c0.4,0.1,0.6,0.6,0.5,1C415.6,201.5,415.2,201.7,414.9,201.7z M403.8,198.2c-0.1,0-0.2,0-0.2,0
			l-6-1.9c-0.4-0.1-0.6-0.6-0.5-1c0.1-0.4,0.6-0.6,1-0.5l6,1.9c0.4,0.1,0.6,0.6,0.5,1C404.5,198,404.2,198.2,403.8,198.2z
			 M308.5,197.8c0,0-0.1,0-0.1,0c-0.4-0.1-0.7-0.5-0.7-0.9l0.9-6.3c0.1-0.4,0.5-0.7,0.9-0.7c0.4,0.1,0.7,0.5,0.7,0.9l-0.9,6.3
			C309.2,197.5,308.9,197.8,308.5,197.8z M392.8,194.7c-0.1,0-0.2,0-0.2,0l-6-1.9c-0.4-0.1-0.6-0.6-0.5-1c0.1-0.4,0.6-0.6,1-0.5
			l6,1.9c0.4,0.1,0.6,0.6,0.5,1C393.4,194.5,393.1,194.7,392.8,194.7z M381.7,191.2c-0.1,0-0.2,0-0.2,0l-6-1.9
			c-0.4-0.1-0.6-0.6-0.5-1c0.1-0.4,0.6-0.6,1-0.5l6,1.9c0.4,0.1,0.6,0.6,0.5,1C382.4,191,382.1,191.2,381.7,191.2z M370.7,187.7
			c-0.1,0-0.2,0-0.2,0l-6-1.9c-0.4-0.1-0.6-0.6-0.5-1c0.1-0.4,0.6-0.6,1-0.5l6,1.9c0.4,0.1,0.6,0.6,0.5,1
			C371.3,187.5,371,187.7,370.7,187.7z M310.1,186.3c0,0-0.1,0-0.1,0c-0.4-0.1-0.7-0.5-0.7-0.9l0.9-6.3c0.1-0.4,0.5-0.7,0.9-0.7
			c0.4,0.1,0.7,0.5,0.7,0.9l-0.9,6.3C310.8,186,310.5,186.3,310.1,186.3z M359.6,184.2c-0.1,0-0.2,0-0.2,0l-6-1.9
			c-0.4-0.1-0.6-0.6-0.5-1c0.1-0.4,0.6-0.6,1-0.5l6,1.9c0.4,0.1,0.6,0.6,0.5,1C360.3,184,359.9,184.2,359.6,184.2z M348.5,180.7
			c-0.1,0-0.2,0-0.2,0l-6-1.9c-0.4-0.1-0.6-0.6-0.5-1c0.1-0.4,0.6-0.6,1-0.5l6,1.9c0.4,0.1,0.6,0.6,0.5,1
			C349.2,180.4,348.9,180.7,348.5,180.7z M337.5,177.1c-0.1,0-0.2,0-0.2,0l-6-1.9c-0.4-0.1-0.6-0.6-0.5-1c0.1-0.4,0.6-0.6,1-0.5
			l6,1.9c0.4,0.1,0.6,0.6,0.5,1C338.1,176.9,337.8,177.1,337.5,177.1z M311.7,174.8c0,0-0.1,0-0.1,0c-0.4-0.1-0.7-0.5-0.7-0.9
			l0.2-1.2c0.3-2.1,2.1-3.8,4.2-3.9c0.5,0,0.8,0.3,0.8,0.7c0,0.4-0.3,0.8-0.7,0.8c-1.4,0.1-2.5,1.2-2.7,2.6l-0.2,1.2
			C312.4,174.5,312.1,174.8,311.7,174.8z M326.4,173.6c-0.1,0-0.2,0-0.2,0l-6-1.9c-0.4-0.1-0.6-0.6-0.5-1c0.1-0.4,0.6-0.6,1-0.5
			l6,1.9c0.4,0.1,0.6,0.6,0.5,1C327.1,173.4,326.8,173.6,326.4,173.6z"/>
		
			<image style="overflow:visible;" width="398" height="245" xlink:href="47849C62C7124C1E.png"  transform="matrix(0.24 0 0 0.24 424.6878 258.4145)">
		</image>
		
			<image style="overflow:visible;" width="397" height="245" xlink:href="47849C62C7124C1F.png"  transform="matrix(0.24 0 0 0.24 425.1678 257.4545)">
		</image>
		<g>
			<path class="st57" d="M463.9,287.3c1.1-7.8-4-16.1-11.3-18.7c0,0-2.3-0.7-3.8-1l0,0c-6.6-0.9-11.4,3.8-12.4,11
				c-1,7.3,3.4,15,10,18.1l-1-0.2l2.7,0.9l-0.1,0c0.1,0,0.2,0.1,0.2,0.1C455.8,299.9,462.8,295.4,463.9,287.3z"/>
			<path class="st58" d="M452.5,268.7c7.3,2.6,12.4,10.9,11.3,18.7c-1.1,8-8.1,12.6-15.7,10.1c-0.1,0-0.2-0.1-0.2-0.1
				c0,0,0.1,0,0.1,0c0,0-2.6-0.8-2.7-0.9c0,0,1,0.2,1,0.2c-6.5-3.1-10.9-10.8-9.9-18.1c1-7.1,5.8-11.8,12.4-11l0,0
				C450.2,267.9,452.4,268.6,452.5,268.7z"/>
			<path class="st59" d="M452.4,268.7c7.4,2.6,12.4,10.9,11.4,18.7c-1.1,8-8.1,12.6-15.7,10.1c-0.1,0-0.2-0.1-0.2-0.1
				c0,0,0.1,0,0.1,0c-0.1,0-2.6-0.8-2.7-0.9c0,0,0.9,0.1,0.9,0.1c-6.5-3.1-10.8-10.8-9.9-18.1c1-7.1,5.8-11.8,12.4-11l0,0
				C450.1,267.9,452.3,268.6,452.4,268.7z"/>
			<path class="st60" d="M452.3,268.7c7.4,2.6,12.4,10.9,11.4,18.7c-1.1,8-8.1,12.6-15.7,10.1c-0.1,0-0.2-0.1-0.2-0.1c0,0,0.1,0,0,0
				c-0.1,0-2.6-0.8-2.7-0.9c0,0,0.9,0.1,0.8,0.1c-6.5-3.1-10.8-10.8-9.8-18.1c1-7.1,5.8-11.7,12.4-10.9l0,0
				C450,267.9,452.2,268.6,452.3,268.7z"/>
			<path class="st61" d="M452.2,268.7c7.4,2.6,12.4,10.9,11.4,18.7c-1.1,8-8.1,12.6-15.7,10.1c-0.1,0-0.2-0.1-0.2-0.1c0,0,0,0,0,0
				c-0.1,0-2.5-0.8-2.6-0.9c0,0,0.8,0.1,0.8,0.1c-6.5-3.1-10.7-10.8-9.8-18c0.9-7.1,5.8-11.7,12.4-10.9l0,0
				C449.9,267.9,452.1,268.6,452.2,268.7z"/>
			<path class="st62" d="M452.1,268.7c7.4,2.6,12.5,10.9,11.4,18.7c-1.1,8-8.1,12.6-15.7,10.1c-0.1,0-0.2-0.1-0.2-0.1c0,0,0,0,0,0
				c-0.1,0-2.5-0.8-2.6-0.9c0,0,0.8,0.1,0.7,0.1c-6.4-3.2-10.7-10.8-9.7-18c0.9-7.1,5.8-11.7,12.3-10.9l0,0
				C449.8,268,451.9,268.6,452.1,268.7z"/>
			<path class="st63" d="M452,268.7c7.4,2.6,12.5,10.9,11.4,18.7c-1.1,8-8.1,12.6-15.7,10.1c-0.1,0-0.2-0.1-0.2-0.1c0,0,0,0,0,0
				c-0.2-0.1-2.5-0.8-2.6-0.9c-0.1,0,0.7,0.1,0.7,0c-6.4-3.2-10.6-10.7-9.7-18c0.9-7.1,5.8-11.7,12.3-10.9l0,0
				C449.7,268,451.8,268.6,452,268.7z"/>
			<path class="st64" d="M452,268.7c7.4,2.6,12.5,10.9,11.4,18.7c-1.1,8-8.1,12.6-15.7,10.1c-0.1,0-0.2-0.1-0.2-0.1c0,0,0,0,0,0
				c-0.2-0.1-2.4-0.8-2.6-0.9c-0.1,0,0.7,0.1,0.6,0c-6.4-3.2-10.6-10.7-9.6-17.9c0.9-7.1,5.8-11.6,12.3-10.9l0,0
				C449.6,268,451.7,268.6,452,268.7z"/>
			<path class="st65" d="M451.9,268.7c7.4,2.6,12.5,10.9,11.5,18.7c-1.1,8-8.1,12.6-15.7,10.1c-0.1,0-0.2-0.1-0.2-0.1c0,0,0,0,0,0
				c-0.2-0.1-2.4-0.8-2.6-0.9c-0.1,0,0.6,0,0.5,0c-6.3-3.2-10.5-10.7-9.5-17.9c0.9-7,5.8-11.6,12.3-10.9l0,0
				C449.5,268,451.6,268.6,451.9,268.7z"/>
			<path class="st66" d="M451.8,268.7c7.4,2.6,12.5,10.9,11.5,18.8c-1.1,8-8.1,12.6-15.7,10.1c-0.1,0-0.2-0.1-0.2-0.1c0,0,0,0,0,0
				c-0.2-0.1-2.4-0.8-2.6-0.9c-0.1,0,0.6,0,0.5,0c-6.3-3.2-10.5-10.7-9.5-17.9c0.9-7,5.8-11.6,12.3-10.9l0,0
				C449.5,268,451.4,268.6,451.8,268.7z"/>
			<path class="st67" d="M451.7,268.7c7.4,2.5,12.5,10.9,11.5,18.8c-1.1,8-8.1,12.6-15.7,10.1c-0.1,0-0.2-0.1-0.2-0.1c0,0,0,0,0,0
				c-0.3-0.1-2.3-0.8-2.6-0.9c-0.1,0,0.5,0,0.4,0c-6.3-3.2-10.4-10.7-9.4-17.9c0.9-7,5.8-11.5,12.3-10.9l0,0
				C449.4,268,451.3,268.6,451.7,268.7z"/>
			<path class="st68" d="M451.6,268.7c7.4,2.5,12.6,10.9,11.5,18.8c-1.1,8-8.1,12.6-15.7,10.1c-0.1,0-0.2-0.1-0.2-0.1c0,0,0,0,0,0
				c-0.3-0.1-2.3-0.8-2.6-0.9c-0.1-0.1,0.5,0,0.4-0.1c-6.3-3.2-10.3-10.7-9.4-17.8c0.9-7,5.8-11.5,12.3-10.9l0,0
				C449.3,268,451.2,268.6,451.6,268.7z"/>
			<path class="st69" d="M451.5,268.7c7.4,2.5,12.6,10.9,11.5,18.8c-1.1,8-8.1,12.6-15.7,10.1c-0.1,0-0.2-0.1-0.2-0.1c0,0,0,0,0,0
				c-0.3-0.1-2.3-0.8-2.6-0.9c-0.1-0.1,0.4,0,0.3-0.1c-6.2-3.3-10.3-10.7-9.3-17.8c0.9-7,5.9-11.5,12.3-10.9l0,0
				C449.2,268.1,451,268.6,451.5,268.7z"/>
			<path class="st70" d="M451.4,268.8c7.4,2.5,12.6,10.9,11.5,18.8c-1.1,8-8.1,12.6-15.7,10.1c-0.1,0-0.2-0.1-0.2-0.1c0,0,0,0,0,0
				c-0.3-0.1-2.2-0.8-2.5-0.9c-0.1-0.1,0.4,0,0.3-0.1c-6.2-3.3-10.2-10.7-9.3-17.8c0.9-7,5.9-11.5,12.2-10.9l0,0
				C449.1,268.1,450.9,268.6,451.4,268.8z"/>
			<path class="st71" d="M451.3,268.8c7.5,2.5,12.6,10.9,11.5,18.8c-1.1,8-8.1,12.6-15.7,10.1c-0.1,0-0.2-0.1-0.2-0.1c0,0,0,0,0,0
				c-0.4-0.1-2.2-0.7-2.5-0.9c-0.1-0.1,0.3,0,0.2-0.1c-6.2-3.3-10.2-10.7-9.2-17.8c0.9-6.9,5.9-11.4,12.2-10.9l0,0
				C449,268.1,450.8,268.6,451.3,268.8z"/>
			<path class="st72" d="M451.3,268.8c7.5,2.5,12.6,10.9,11.6,18.8c-1.1,8-8.1,12.6-15.7,10.1c-0.1,0-0.2-0.1-0.2-0.1c0,0,0,0,0,0
				c-0.4-0.1-2.2-0.7-2.5-0.9c-0.1-0.1,0.3-0.1,0.1-0.1c-6.1-3.3-10.1-10.7-9.2-17.7c0.9-6.9,5.9-11.4,12.2-10.9l0,0
				C448.9,268.1,450.7,268.6,451.3,268.8z"/>
			<path class="st73" d="M451.2,268.8c7.5,2.5,12.6,10.9,11.6,18.8c-1.1,8-8.1,12.6-15.7,10.1c-0.1,0-0.2-0.1-0.2-0.1c0,0,0,0,0,0
				c-0.4-0.1-2.1-0.7-2.5-0.9c-0.1-0.1,0.2-0.1,0.1-0.2c-6.1-3.3-10.1-10.7-9.1-17.7c0.9-6.9,5.9-11.4,12.2-10.9l0,0
				C448.8,268.1,450.5,268.6,451.2,268.8z"/>
			<path class="st74" d="M451.1,268.8c7.5,2.5,12.7,10.9,11.6,18.8c-1.1,8-8.1,12.6-15.7,10.1c-0.1,0-0.2-0.1-0.2-0.1c0,0,0,0,0,0
				c-0.4-0.2-2.1-0.7-2.5-0.9c-0.2-0.1,0.2-0.1,0-0.2c-6.1-3.3-10-10.7-9.1-17.7c0.9-6.9,5.9-11.4,12.2-10.9l0,0
				C448.7,268.1,450.4,268.6,451.1,268.8z"/>
			<path class="st75" d="M451,268.8c7.5,2.5,12.7,10.9,11.6,18.8c-1.1,8-8.1,12.6-15.7,10.1c-0.1,0-0.2-0.1-0.2-0.1c0,0,0,0,0,0
				c-0.5-0.2-2-0.7-2.5-1c-0.2-0.1,0.1-0.1,0-0.2c-6.1-3.3-10-10.7-9-17.6c0.9-6.9,5.9-11.3,12.2-10.9l0,0
				C448.6,268.1,450.3,268.6,451,268.8z"/>
			<path class="st76" d="M450.9,268.8c7.5,2.5,12.7,10.9,11.6,18.8c-1.1,8-8.1,12.6-15.7,10.1c-0.1,0-0.2-0.1-0.2-0.1c0,0,0,0,0,0
				c-0.5-0.2-2-0.7-2.5-1c-0.2-0.1,0.1-0.1-0.1-0.2c-6-3.3-9.9-10.6-9-17.6c0.9-6.9,5.9-11.3,12.2-10.9l0,0
				C448.5,268.1,450.1,268.6,450.9,268.8z"/>
			<path class="st77" d="M450.8,268.8c7.5,2.5,12.7,10.9,11.6,18.8c-1.1,8-8.1,12.6-15.7,10.1c-0.1,0-0.2-0.1-0.2-0.1c0,0,0,0,0,0
				c-0.5-0.2-2-0.7-2.5-1c-0.2-0.1,0-0.1-0.2-0.2c-6-3.4-9.9-10.6-8.9-17.6c0.9-6.9,5.9-11.3,12.2-10.9l0,0
				C448.4,268.2,450,268.6,450.8,268.8z"/>
			<path class="st78" d="M450.7,268.8c7.5,2.5,12.7,10.9,11.7,18.8c-1.1,8-8.1,12.6-15.7,10.1c-0.1,0-0.2-0.1-0.2-0.1c0,0,0,0,0,0
				c-0.5-0.2-1.9-0.7-2.5-1c-0.2-0.1,0-0.2-0.2-0.3c-6-3.4-9.8-10.6-8.9-17.6c0.9-6.8,5.9-11.2,12.1-10.8l0,0
				C448.3,268.2,449.9,268.6,450.7,268.8z"/>
			<path class="st79" d="M450.6,268.8c7.5,2.5,12.7,10.9,11.7,18.8c-1.1,8-8.1,12.6-15.7,10.1c-0.1,0-0.2-0.1-0.2-0.1c0,0,0,0,0,0
				c-0.6-0.2-1.9-0.7-2.4-1c-0.2-0.1-0.1-0.2-0.3-0.3c-5.9-3.4-9.8-10.6-8.8-17.5c0.9-6.8,5.9-11.2,12.1-10.8l0,0
				C448.2,268.2,449.8,268.5,450.6,268.8z"/>
			<path class="st80" d="M450.6,268.8c7.5,2.5,12.7,10.9,11.7,18.8c-1.1,8-8.1,12.6-15.7,10.1c-0.1,0-0.2-0.1-0.2-0.1c0,0,0,0,0,0
				c-0.6-0.2-1.9-0.7-2.4-1c-0.2-0.1-0.1-0.2-0.3-0.3c-5.9-3.4-9.7-10.6-8.8-17.5c0.9-6.8,5.9-11.2,12.1-10.8l0,0
				C448.1,268.2,449.6,268.5,450.6,268.8z"/>
			<path class="st81" d="M450.5,268.8c7.5,2.5,12.8,10.9,11.7,18.8c-1.1,8-8.1,12.6-15.7,10.1c-0.1,0-0.2-0.1-0.2-0.1c0,0,0,0,0,0
				c-0.6-0.2-1.8-0.7-2.4-1c-0.2-0.1-0.2-0.2-0.4-0.3c-5.9-3.4-9.6-10.6-8.7-17.5c0.9-6.8,5.9-11.2,12.1-10.8l0,0
				C448,268.2,449.5,268.5,450.5,268.8z"/>
			<path class="st82" d="M450.4,268.9c7.5,2.5,12.8,10.9,11.7,18.8c-1.1,8-8.1,12.6-15.7,10.1c-0.1,0-0.2-0.1-0.2-0.1c0,0,0,0,0,0
				c-0.7-0.2-1.8-0.7-2.4-1c-0.2-0.1-0.2-0.2-0.5-0.3c-5.9-3.4-9.6-10.6-8.7-17.5c0.9-6.8,5.9-11.1,12.1-10.8l0,0
				C447.9,268.2,449.4,268.5,450.4,268.9z"/>
			<path class="st83" d="M450.3,268.9c7.5,2.4,12.8,10.9,11.7,18.9c-1.1,8-8.1,12.6-15.7,10.1c-0.1,0-0.2-0.1-0.2-0.1c0,0,0,0,0,0
				c-0.7-0.2-1.8-0.7-2.4-1c-0.2-0.1-0.3-0.2-0.5-0.4c-5.8-3.4-9.5-10.6-8.6-17.4c0.9-6.8,5.9-11.1,12.1-10.8l0,0
				C447.8,268.2,449.2,268.5,450.3,268.9z"/>
			<path class="st84" d="M450.2,268.9c7.6,2.4,12.8,10.9,11.7,18.9c-1.1,8-8.1,12.6-15.7,10.1c-0.1,0-0.2,0-0.2-0.1c0,0,0,0,0,0
				c-0.7-0.2-1.7-0.6-2.4-1c-0.2-0.1-0.3-0.2-0.6-0.4c-5.8-3.5-9.5-10.6-8.6-17.4c0.9-6.8,5.9-11.1,12.1-10.8l0,0
				C447.7,268.3,449.1,268.5,450.2,268.9z"/>
			<path class="st85" d="M450.1,268.9c7.6,2.4,12.8,10.9,11.8,18.9c-1.1,8-8.1,12.6-15.7,10.1c-0.1,0-0.1,0-0.2-0.1c0,0,0,0,0,0
				c-0.7-0.2-1.7-0.6-2.4-1c-0.2-0.1-0.4-0.3-0.6-0.4c-5.8-3.5-9.4-10.6-8.5-17.4c0.9-6.7,5.9-11.1,12.1-10.8l0,0
				C447.6,268.3,449,268.5,450.1,268.9z"/>
			<path class="st86" d="M450,268.9c7.6,2.4,12.8,10.9,11.8,18.9c-1.1,8-8.1,12.6-15.7,10.1c-0.1,0-0.1,0-0.2-0.1c0,0,0,0-0.1,0
				c-0.8-0.3-1.7-0.6-2.4-1c-0.3-0.1-0.4-0.3-0.7-0.4c-5.7-3.5-9.4-10.6-8.5-17.3c0.9-6.7,5.9-11,12-10.8l0,0
				C447.6,268.3,448.9,268.5,450,268.9z"/>
			<path class="st87" d="M449.9,268.9c7.6,2.4,12.9,10.9,11.8,18.9c-1.1,8-8.1,12.6-15.7,10.1c-0.1,0-0.1,0-0.2-0.1c0,0,0,0-0.1,0
				c-0.8-0.3-1.6-0.6-2.4-1c-0.3-0.1-0.5-0.3-0.8-0.4c-5.7-3.5-9.3-10.6-8.4-17.3c0.9-6.7,5.9-11,12-10.8l0,0
				C447.5,268.3,448.7,268.5,449.9,268.9z"/>
			<path class="st56" d="M461.6,287.8c-1.1,8-8.1,12.6-15.7,10.1c-7.6-2.4-12.9-10.9-11.8-18.9c1.1-8,8.1-12.6,15.7-10.1
				C457.4,271.3,462.7,279.8,461.6,287.8z"/>
		</g>
		
			<image style="overflow:visible;opacity:0.65;" width="163" height="212" xlink:href="47849C62C7124C04.png"  transform="matrix(0.24 0 0 0.24 465.9678 265.3745)">
		</image>
		
			<image style="overflow:visible;" width="167" height="159" xlink:href="47849C62C7124C7E.png"  transform="matrix(0.24 0 0 0.24 425.4078 259.8545)">
		</image>
	</g>
	<g>
		<g class="st88">
			<g>
				
					<image style="overflow:visible;" width="351" height="512" xlink:href="47849C62C7124C79.png"  transform="matrix(0.1116 0 0 0.1116 368.5237 226.5305)">
				</image>
			</g>
		</g>
		<g class="st88">
			<g>
				
					<image style="overflow:visible;" width="264" height="512" xlink:href="47849C62C7124C7A.png"  transform="matrix(0.1514 0 0 0.1514 348.835 218.5731)">
				</image>
			</g>
		</g>
	</g>
</g>
<g>
	<g class="st88">
		<g>
			
				<image style="overflow:visible;" width="358" height="512" xlink:href="47849C62C7124C78.png"  transform="matrix(7.781251e-02 0 0 7.781251e-02 216.8334 157.3982)">
			</image>
		</g>
	</g>
	<g class="st88">
		<g>
			
				<image style="overflow:visible;" width="301" height="512" xlink:href="47849C62C7124C66.png"  transform="matrix(0.1055 0 0 0.1055 202.9381 155.5386)">
			</image>
		</g>
	</g>
</g>
<g>
	<g>
		<g>
			
				<image style="overflow:visible;" width="403" height="512" xlink:href="47849C62C7124C69.png"  transform="matrix(8.765625e-02 0 0 8.765625e-02 539.2698 84.4339)">
			</image>
		</g>
	</g>
	<g>
		<g>
			
				<image style="overflow:visible;" width="350" height="512" xlink:href="47849C62C7124C6A.png"  transform="matrix(0.1228 0 0 0.1228 521.0824 72.4327)">
			</image>
		</g>
	</g>
</g>
<g class="st88">
	<g>
		
			<image style="overflow:visible;" width="450" height="512" xlink:href="47849C62C7124C68.png"  transform="matrix(5.765625e-02 0 0 5.765625e-02 648.0534 507.2048)">
		</image>
	</g>
</g>
<g class="st88">
	<g>
		
			<image style="overflow:visible;" width="474" height="512" xlink:href="47849C62C7124C6E.png"  transform="matrix(8.062501e-02 0 0 8.062501e-02 634.245 508.8076)">
		</image>
	</g>
</g>
<g>
	<defs>
		<polygon id="SVGID_00000116922244911609301040000002548960483511385510_" points="370.9,171.4 478.3,207.5 480.3,111 378.2,147.1 
					"/>
	</defs>
	<clipPath id="SVGID_00000017510106754127403830000006667025983790803117_">
		<use xlink:href="#SVGID_00000116922244911609301040000002548960483511385510_"  style="overflow:visible;"/>
	</clipPath>
	<g style="clip-path:url(#SVGID_00000017510106754127403830000006667025983790803117_);">
		<g>
			<g class="st8">
				
					<image style="overflow:visible;" width="390" height="364" xlink:href="47849C62C7124C6B.png"  transform="matrix(0.24 0 0 0.24 398.0478 160.2545)">
				</image>
			</g>
			<g>
				
					<linearGradient id="SVGID_00000176010878446324825400000006564448925201621390_" gradientUnits="userSpaceOnUse" x1="633.8358" y1="266.3988" x2="594.6473" y2="347.79" gradientTransform="matrix(0.9881 -0.1536 0.1536 0.9881 -222.6133 -35.0501)">
					<stop  offset="0" style="stop-color:#FFF3C3"/>
					<stop  offset="0.4822" style="stop-color:#FAD26A"/>
					<stop  offset="1" style="stop-color:#D0832F"/>
				</linearGradient>
				<path style="fill:url(#SVGID_00000176010878446324825400000006564448925201621390_);" d="M469.3,177.6
					c-2.5,23.5-22.9,45.3-45.4,48.8c-22.5,3.5-38.7-12.7-36.2-36.1s22.9-45.3,45.4-48.8C455.6,138,471.8,154.1,469.3,177.6z"/>
				<g>
					
						<image style="overflow:visible;" width="342" height="358" xlink:href="47849C62C7124C4D.png"  transform="matrix(0.24 0 0 0.24 381.7278 136.2545)">
					</image>
					<path class="st2" d="M454.5,174.3c-2,18.2-17.7,35.2-35.2,37.9c-17.5,2.7-30.1-9.8-28.1-28.1c2-18.2,17.7-35.2,35.2-37.9
						C443.9,143.5,456.5,156.1,454.5,174.3z"/>
					<g>
						<defs>
							<path id="SVGID_00000062892285716011309610000008986976399914928296_" d="M454.5,174.3c-2,18.2-17.7,35.2-35.2,37.9
								c-17.5,2.7-30.1-9.8-28.1-28.1c2-18.2,17.7-35.2,35.2-37.9C443.9,143.5,456.5,156.1,454.5,174.3z"/>
						</defs>
						<clipPath id="SVGID_00000160909101229985415510000017277187633073258128_">
							<use xlink:href="#SVGID_00000062892285716011309610000008986976399914928296_"  style="overflow:visible;"/>
						</clipPath>
						<g style="clip-path:url(#SVGID_00000160909101229985415510000017277187633073258128_);">
							
								<image style="overflow:visible;" width="267" height="279" xlink:href="47849C62C7124C4F.png"  transform="matrix(0.24 0 0 0.24 389.6478 147.0545)">
							</image>
						</g>
					</g>
					
						<image style="overflow:visible;" width="285" height="298" xlink:href="47849C62C7124C4C.png"  transform="matrix(0.24 0 0 0.24 388.6878 143.4545)">
					</image>
					
						<image style="overflow:visible;" width="55" height="52" xlink:href="47849C62C7124C4B.png"  transform="matrix(0.24 0 0 0.24 394.9278 145.8545)">
					</image>
					
						<image style="overflow:visible;" width="191" height="162" xlink:href="47849C62C7124C35.png"  transform="matrix(0.24 0 0 0.24 382.2078 180.8945)">
					</image>
					<g class="st3">
						<g class="st4">
							<path class="st5" d="M418.6,203.6l-1.2-0.6l1.8-4.8c-4.1,0.5-8.1-0.1-10.3-1.2l-1.2-0.6l3.8-6.7c2.4,1,6.1,1.9,10.1,1.2
								c3.3-0.5,5.9-2.1,6.2-4.4c0.2-2.2-1.5-3.1-6-3.7c-6.3-0.8-10.6-3.1-10-9.1c0.6-5.4,4.8-10.1,11.5-12.2l0.6-5.4l4.5-1.5
								l1.2,0.6l-0.5,5.1c3.6-0.4,5.6-0.5,7.5,0c0.3,0.1,1,0.6,1.2,0.6l-2.5,7.1c-1.4-0.4-4.2-1.5-8.8-0.8c-3.9,0.6-5.2,2.5-5.4,4
								c-0.2,1.9,2,2.8,6.9,3.7c7,1.1,9.7,3.8,9.1,9.4c-0.6,5.2-4.8,10.4-12,12.6l-0.6,5.8L418.6,203.6z"/>
						</g>
						<g class="st4">
							<path class="st6" d="M417.4,203l0.6-5.4c-4.1,0.5-8.1-0.1-10.3-1.2l2.6-7.3c2.4,1,6.1,1.9,10.1,1.2c3.3-0.5,5.9-2.1,6.2-4.4
								c0.2-2.2-1.5-3.1-6-3.7c-6.3-0.8-10.6-3.1-10-9.1c0.6-5.4,4.8-10.1,11.5-12.2l0.6-5.4l5.7-0.9l-0.5,5.1
								c4.2-0.5,6.8,0,8.7,0.6l-2.5,7.1c-1.4-0.4-4.2-1.5-8.8-0.8c-3.9,0.6-5.2,2.5-5.4,4c-0.2,1.9,2,2.8,6.9,3.7
								c7,1.1,9.7,3.8,9.1,9.4c-0.6,5.2-4.8,10.4-12,12.6l-0.6,5.8L417.4,203z"/>
						</g>
					</g>
				</g>
			</g>
		</g>
	</g>
</g>
</svg>
