<svg xmlns="http://www.w3.org/2000/svg" width="150" height="150" viewBox="0 0 150 150"><defs><linearGradient id="a" x1="50%" x2="50%" y1="0%" y2="75.018%"><stop offset="0%" stop-color="#DAF4FF"/><stop offset=".845%" stop-color="#DAF4FF"/><stop offset=".894%" stop-color="#C9ECFC"/><stop offset="100%" stop-color="#B6E6FF"/></linearGradient><linearGradient id="b" x1="34.22%" x2="50%" y1="28.212%" y2="74.635%"><stop offset="0%" stop-color="#54CF76"/><stop offset="50.94%" stop-color="#51CC6C"/><stop offset="100%" stop-color="#50C76A"/></linearGradient><linearGradient id="c" x1="50%" x2="40.545%" y1="1.149%" y2="72.754%"><stop offset="0%" stop-color="#63CD81"/><stop offset="100%" stop-color="#68DC81"/></linearGradient><linearGradient id="d" x1="24.398%" x2="50%" y1="14.84%" y2="50%"><stop offset="0%" stop-color="#E2F5FE"/><stop offset="100%" stop-color="#C1E5F8"/></linearGradient></defs><g fill="none" fill-rule="evenodd" transform="translate(6 20)"><g transform="translate(36)"><circle cx="52.02" cy="52.124" r="52.02" fill="#D4F0FF"/><path fill="url(#a)" d="M10.3180236,43.955881 C23.6959257,43.955881 30.3840829,49.9795509 34.6148412,57.3499766 C38.8455995,64.7204024 32.7905131,69.9510936 36.7119582,77.1726134 C40.6334034,84.3941332 47.9358181,83.0934366 56.5341711,88.0741348 C60.4093752,90.3188928 63.3114415,95.1104185 65.24037,102.448712 C61.0191726,103.555479 56.5883735,104.144352 52.0200358,104.144352 C23.2901633,104.144352 0,80.8541889 0,52.1243164 C0,49.9253629 0.136438589,47.7582764 0.401311965,45.6310606 C3.09275274,44.5141495 6.39752751,43.955881 10.3180236,43.955881 Z"/><path fill="url(#b)" d="M52.0200358,0.104280621 C79.7649806,0.104280621 102.436795,21.8249332 103.958673,49.1894323 C100.499585,50.9275885 97.0341781,51.9055046 93.5610947,52.1243164 C84.4168712,52.7004224 83.1849728,45.3713096 75.8487223,45.5927797 C68.5124718,45.8142498 63.5817717,53.2421023 56.5341711,53.2421023 C49.4865705,53.2421023 44.3824324,47.5185519 45.4691876,40.2448082 C46.5559427,32.9710646 56.5341711,28.7673478 56.5341711,20.1254561 C56.5341711,11.4835645 44.8596635,16.5956588 43.0347275,8.34996971 C42.4489625,5.70328179 43.1883309,3.10030559 45.2528328,0.541041105 C47.4682363,0.252669 49.7268071,0.104280621 52.0200358,0.104280621 Z"/><path fill="#4DBE66" fill-rule="nonzero" d="M44.5168111,0.947954529 C44.6260495,0.796923147 44.8370399,0.763043244 44.9880713,0.872281648 C45.1391026,0.981520052 45.1729825,1.1925104 45.0637441,1.34354178 C43.4078757,3.63292071 42.8463815,5.93711517 43.3642534,8.27703902 C44.0160297,11.2219885 45.6633906,12.4138025 49.4334194,13.4631432 L50.4168402,13.7263181 C55.1974953,14.9881858 56.8716711,16.2458471 56.8716711,20.1254561 C56.8716711,23.9624708 55.4091612,26.5812703 51.5202272,31.0843792 L50.2273268,32.5696197 C47.4248072,35.8112533 46.1713795,37.8289681 45.8029825,40.2946798 C44.7585846,47.2849228 49.6122803,52.9046023 56.5341711,52.9046023 C59.0700665,52.9046023 61.153899,52.0920727 64.5720776,50.0338181 L66.8317179,48.6421592 C70.7879956,46.2298855 72.9286434,45.3432787 75.8385383,45.2554334 C78.5357086,45.17401 80.3226308,45.9042949 82.980532,47.8067447 L84.0641324,48.6002835 C87.5037962,51.1284921 89.7082494,52.0288849 93.5398735,51.7874842 C96.7497211,51.5852569 99.9550306,50.7252 103.158811,49.2052903 C103.327217,49.1253967 103.528503,49.19715 103.608397,49.3655558 C103.688291,49.5339617 103.616537,49.7352481 103.448132,49.8151417 C100.168669,51.3709557 96.8799635,52.2533896 93.5823158,52.4611486 C89.6967467,52.7059479 87.3777251,51.8198215 84.0159622,49.3999855 L82.9187654,48.5953725 C80.1814579,46.5918846 78.4852506,45.8508407 75.8589063,45.930126 C73.0090982,46.0161574 70.9033145,46.9247839 66.7905631,49.459148 L65.6807668,50.1475551 C61.7032271,52.6084834 59.4147294,53.5796023 56.5341711,53.5796023 C49.2001313,53.5796023 44.0299839,47.5935304 45.1353926,40.1949366 C45.5012518,37.7462103 46.6592246,35.7538941 49.1427647,32.8007973 L50.3156504,31.4395333 L50.6995253,31.0000928 C54.7203424,26.3916393 56.1966711,23.8474103 56.1966711,20.1254561 C56.1966711,16.8040629 54.8857866,15.671693 50.8286514,14.5374628 L49.57772,14.2022652 L48.9310707,14.022056 C45.1637697,12.9286502 43.4055607,11.5873644 42.7052015,8.4229004 C42.14369,5.88579816 42.7525625,3.38717825 44.5168111,0.947954529 Z"/><path fill="url(#c)" d="M81.7531405,65.0884943 C86.6976794,63.7604428 92.8312862,66.026033 100.153961,71.885265 C96.3335941,81.1845424 89.8958076,89.1319229 81.7579717,94.8116988 C75.7688052,91.2098442 71.9848258,87.3101068 70.4048407,83.1114176 C67.7236808,75.9864404 73.0860007,67.4163978 81.7531405,65.0884943 Z"/><path fill="#B8E6FF" d="M55.33803,75.1607574 C57.6721175,75.1607574 61.8721431,71.4907892 60.8394199,68.0176308 C59.8066968,64.5444725 57.6721175,64.8495453 55.33803,64.8495453 C53.0039425,64.8495453 51.1117907,66.869419 51.1117907,69.3610595 C51.1117907,71.8527 53.0039425,75.1607574 55.33803,75.1607574 Z"/><path fill="#B8E6FF" d="M15.6537725,38.1878394 C17.1760035,38.1878394 19.9151506,35.0403248 19.2416355,32.0616023 C18.5681204,29.0828799 17.1760035,29.3445228 15.6537725,29.3445228 C14.1315416,29.3445228 12.8975295,31.076849 12.8975295,33.2137816 C12.8975295,35.3507143 14.1315416,38.1878394 15.6537725,38.1878394 Z" transform="rotate(-45 16.122 33.763)"/><path fill="url(#d)" d="M31.649526,11.5539625 L32.027128,11.9261685 C34.8000845,14.6766562 37.6004314,17.9070572 36.6083957,22.8331962 C35.5712675,27.9832505 30.2321743,29.9645356 26.2596682,29.0108252 C22.2871621,28.0571148 21.7236328,25.7849842 16.5088378,25.025076 C13.4877405,24.584837 10.3081047,24.9420269 6.96993047,26.0966458 C11.4414457,18.3728141 17.843423,11.9049797 25.5157539,7.35319844 C28.2693145,8.84392721 30.3134639,10.243631 31.649526,11.5539625 Z"/><path fill="#B8E6FF" fill-rule="nonzero" d="M10.3180236,43.618381 C22.3596546,43.618381 29.7973505,48.2794607 34.9075462,57.1819586 C36.69165,60.2900551 36.8477274,62.5380347 36.1553321,67.0927669 L36.0592257,67.7083983 C35.3742833,72.0474675 35.4691689,74.1767153 37.0085508,77.0115571 C38.8054043,80.3205448 41.0009482,81.795594 45.7767052,83.417291 L49.1420427,84.5239282 C52.9081231,85.7771441 54.1646121,86.3213882 56.5004022,87.6649391 L56.7033397,87.7820933 C60.5797445,90.0275468 63.4826335,94.7259796 65.4322716,101.86103 L65.5667465,102.362778 L64.9139235,102.534379 C63.0056877,95.2748829 60.14881,90.5579917 56.3650026,88.3661763 L55.7830709,88.0328551 C53.5395802,86.7648761 52.1994613,86.2355095 47.8941145,84.8226822 L46.3438689,84.3167939 C40.8750834,82.5391524 38.4093131,81.0056146 36.4153657,77.3336697 C34.8378088,74.4285267 34.6940768,72.2186436 35.3286623,68.0161529 L35.423362,67.4078076 C36.166843,62.7079691 36.0632274,60.5511585 34.3221362,57.5179946 C29.3281061,48.8178692 22.1083696,44.293381 10.3180236,44.293381 C6.63301057,44.293381 3.5049261,44.7906466 0.932283804,45.7819847 L0.530692771,45.9426172 L0.271973023,45.3191678 C3.00750279,44.1839745 6.35584046,43.618381 10.3180236,43.618381 Z"/></g><g transform="translate(0 45)"><rect width="75.774" height="53.222" fill="#FF8FB3" rx="10.644"/><rect width="75.774" height="9" y="9.472" fill="#3F3F3F"/><circle cx="55.703" cy="41.102" r="3.834" fill="#FFF"/><circle cx="65.626" cy="41.102" r="3.834" fill="#FFF"/></g></g></svg>