<svg xmlns="http://www.w3.org/2000/svg" width="150" height="150" viewBox="0 0 150 150"><defs><linearGradient id="a" x1="76.295%" x2="18.288%" y1="66.849%" y2="59.325%"><stop offset="0%" stop-color="#FEEB46"/><stop offset="100%" stop-color="#FFDE41"/></linearGradient><linearGradient id="b" x1="50%" x2="50%" y1="0%" y2="100%"><stop offset="0%" stop-color="#FF91B8"/><stop offset="100%" stop-color="#FFA0BE"/></linearGradient><linearGradient id="c" x1="50%" x2="50%" y1="218.002%" y2="65.337%"><stop offset="0%" stop-color="#FFE325"/><stop offset="100%" stop-color="#FCCB27"/></linearGradient></defs><g fill="none" fill-rule="evenodd" transform="translate(19 21)"><path fill="#FF8FB3" d="M5.63031973,24.4019992 L71.3173832,24.4019992 L71.3173832,71.7635798 C71.3173832,77.0836636 67.0046032,81.3964437 61.6845194,81.3964437 L15.2631836,81.3964437 C9.94309978,81.3964437 5.63031973,77.0836636 5.63031973,71.7635798 L5.63031973,24.4019992 L5.63031973,24.4019992 Z"/><rect width="14.349" height="46.634" x="31.299" y="34.762" fill="#FBD625"/><path fill="url(#a)" d="M40.8400674,20.508266 L33.5305371,10.9847772 C30.7869051,7.41013598 25.6649326,6.73646986 22.0902913,9.48010185 C21.1005907,10.2397233 20.2982718,11.2161917 19.7450245,12.3344267 L16.9441852,17.9955421 C15.2436536,21.4326923 16.4612987,25.5995541 19.7450245,27.5801989 C23.5456783,29.872639 27.8999862,31.0841706 32.3384827,31.0841706 L40.8400674,31.0841706 L40.8400674,31.0841706 L40.8400674,20.508266 Z"/><path fill="url(#a)" d="M64.1571306,20.508266 L56.8476004,10.9847772 C54.1039684,7.41013598 48.9819959,6.73646986 45.4073546,9.48010185 C44.417654,10.2397233 43.6153351,11.2161917 43.0620878,12.3344267 L40.2612485,17.9955421 C38.5607169,21.4326923 39.778362,25.5995541 43.0620878,27.5801989 C46.8627416,29.872639 51.2170495,31.0841706 55.655546,31.0841706 L64.1571306,31.0841706 L64.1571306,31.0841706 L64.1571306,20.508266 Z" transform="matrix(-1 0 0 1 101.41 0)"/><rect width="76.948" height="12.555" y="23.584" fill="url(#b)" rx="5.619"/><path fill="url(#c)" d="M38.7063251,17.0393924 C41.9667367,17.0393924 44.7896993,19.3038928 45.4969819,22.4866645 L45.8808061,24.2138734 L45.8808061,24.2138734 L31.5318441,24.2138734 L31.9156683,22.4866645 C32.6229509,19.3038928 35.4459134,17.0393924 38.7063251,17.0393924 Z"/><rect width="14.349" height="12.555" x="31.299" y="23.584" fill="#FFE154"/><g transform="translate(69.9 .02)"><polygon fill="#A5E1FF" points="15 20 7.929 22.071 10 15 7.929 7.929 15 10 22.071 7.929 20 15 22.071 22.071" transform="rotate(45 15 15)"/><circle cx="29.101" cy="28.979" r="4" fill="#FBB225"/></g><g transform="translate(55 44)"><circle cx="29.5" cy="29.5" r="29.5" fill="#68ADFF"/><path fill="#529EF8" d="M29.3044384,59 C45.7048442,59 59,45.7924001 59,29.5 C59,13.2075999 45.7048442,0 29.3044384,0 C12.9040326,0 23.1767829,6.71840275 23.1767829,27.3215774 C23.1767829,47.924752 12.9040326,59 29.3044384,59 Z"/><circle cx="29.5" cy="29.5" r="22" fill="#FFF4F8"/><circle cx="29.5" cy="29.5" r="22.5" fill="#FFF"/><path fill="#DEEAFF" d="M45.5922842,45.2254192 C49.556672,41.169128 52,35.6198989 52,29.5 C52,17.0735931 41.9264069,7 29.5,7 C29.1666667,14.5 29,22 29,29.5 L45.5922842,45.2254192 Z"/><rect width="7" height="15" x="26" y="17" fill="#68ADFF" rx="3.5" transform="rotate(-180 29.5 24.5)"/><rect width="7" height="15" x="30" y="26" fill="#68ADFF" rx="3.5" transform="rotate(-45 33.5 33.5)"/><circle cx="29.5" cy="29.5" r="3.5" fill="#000"/></g></g></svg>