<?xml version="1.0" encoding="UTF-8"?>
<svg width="currentSize" height="currentSize" viewBox="0 0 24 24" version="1.1" xmlns="http://www.w3.org/2000/svg" xmlns:xlink="http://www.w3.org/1999/xlink">
    <title>Icons / Fuel &amp; Auto</title>
    <defs>
        <path d="M17.4534949,2.49593185 L17.5553485,2.56956073 L21.6180669,5.90874179 C22.0340631,6.25065243 22.29263,6.74401823 22.3401834,7.27543733 L22.3481457,7.45383085 L22.3481457,17.8456866 C22.3481457,18.9000484 21.5322679,19.7638517 20.4974081,19.8402009 L20.3481457,19.8456866 L18.6887618,19.8456866 C17.6344,19.8456866 16.7705966,19.0298088 16.6942475,17.994949 L16.6887618,17.8456866 L16.6887618,13.6820536 L15.3478897,13.6810764 L15.3478897,19.8450764 L15.5558184,19.8456866 C16.1081031,19.8456866 16.5558184,20.2934019 16.5558184,20.8456866 C16.5558184,21.3585225 16.1697782,21.7811938 15.6724395,21.8389589 L15.5558184,21.8456866 L1.5548897,21.8456866 C1.00260495,21.8456866 0.554889699,21.3979714 0.554889699,20.8456866 C0.554889699,20.3328508 0.94092989,19.9101795 1.43826857,19.8524144 L1.5548897,19.8456866 L1.6808897,19.8450764 L1.68147905,5.79999995 C1.68147905,4.31087665 2.84394189,3.0932611 4.31091081,3.00511004 L4.481479,3 L12.5481458,3 C14.0372691,3 15.2548846,4.16246284 15.3430357,5.62943176 L15.3481457,5.79999995 L15.3478897,11.6810764 L16.6887618,11.6820536 C17.7431235,11.6820536 18.6069269,12.4979314 18.683276,13.5327913 L18.6887618,13.6820536 L18.6887618,17.8456866 L20.3481457,17.8456866 L20.3486888,10.680474 C19.9432337,10.8848811 19.4850606,11 19,11 C17.3431458,11 16,9.65685425 16,8 C16,6.80329653 16.7006928,5.77024863 17.71419,5.28874452 L16.2854273,4.11464979 C15.8587628,3.76397074 15.7971644,3.13380923 16.1478434,2.70714467 C16.4715471,2.31330046 17.0333898,2.23051852 17.4534949,2.49593185 Z M12.5481458,5 L4.481479,5 C4.07363798,5 3.73707747,5.30518813 3.68771219,5.69964966 L3.68147905,5.79999995 L3.681,19.845 L13.348,19.845 L13.3481457,5.79999995 C13.3481457,5.42923539 13.0959241,5.11738033 12.7537009,5.02665472 L12.6484961,5.00623314 L12.5481458,5 Z M9.17338152,7.36315422 C9.25734138,7.42007511 9.3335739,7.48729464 9.40036488,7.56309861 L9.49325593,7.68302862 L11.3277133,10.3889027 L11.3878544,10.4899295 C11.7882706,11.262571 12,11.9189093 12,12.5 C12,14.4329966 10.4329966,16 8.5,16 C6.56700338,16 5,14.4329966 5,12.5 C5,11.9834749 5.16729237,11.407495 5.48569354,10.7432255 L5.61214559,10.4899295 L5.67228673,10.3889027 L7.50674407,7.68302862 C7.87864242,7.13446852 8.62482142,6.99125587 9.17338152,7.36315422 Z M8.5,9.782 L7.363,11.458 L7.30442992,11.5763076 C7.14816907,11.8982074 7.05505767,12.1572812 7.01826827,12.3413643 L7.00453546,12.4271003 L7,12.5 C7,13.3284271 7.67157288,14 8.5,14 C9.32842712,14 10,13.3284271 10,12.5 C10,12.3230164 9.90391788,12.0055073 9.69557008,11.5763076 L9.6338897,11.4540764 L8.5,9.782 Z M19,7 C18.4477153,7 18,7.44771525 18,8 C18,8.55228475 18.4477153,9 19,9 C19.5522847,9 20,8.55228475 20,8 C20,7.44771525 19.5522847,7 19,7 Z" id="path-1"></path>
    </defs>
    <g id="Icons-/-Fuel-&amp;-Auto" stroke="none" stroke-width="1" fill="none" fill-rule="evenodd">
        <mask id="mask-2" fill="white">
            <use xlink:href="#path-1"></use>
        </mask>
        <use id="Combined-Shape" fill="currentColor" fill-rule="nonzero" xlink:href="#path-1"></use>
        <rect id="Color" fill="#0F0F0F" mask="url(#mask-2)" x="0" y="0" width="currentSize" height="currentSize"></rect>
    </g>
</svg>