<?xml version="1.0" encoding="UTF-8"?>
<svg width="currentSize" height="currentSize" viewBox="0 0 24 24" version="1.1" xmlns="http://www.w3.org/2000/svg" xmlns:xlink="http://www.w3.org/1999/xlink">
    <title>Icons / Sports &amp; Outdoor</title>
    <defs>
        <path d="M12,2 C17.5228475,2 22,6.4771525 22,12 C22,17.5228475 17.5228475,22 12,22 C6.4771525,22 2,17.5228475 2,12 C2,6.4771525 6.4771525,2 12,2 Z M12.366,12.925 L8.69329001,19.2867703 C9.70114112,19.7448596 10.8207749,20 12,20 C12.4796031,20 12.949349,19.9577964 13.4057265,19.8769003 C13.1313936,17.9072916 13.4490798,15.8898761 14.3516086,14.0725942 L12.366,12.925 Z M16.087997,15.0749073 C15.4576195,16.3954449 15.2092963,17.8406678 15.3458469,19.2673203 C16.6633647,18.6609665 17.7860983,17.7072903 18.5988516,16.524069 Z M4.66821007,14.4774611 L4.42566321,14.5815211 C4.92017335,16.0328566 5.82009701,17.2965792 6.99044459,18.2376991 L10.634,11.925 L8.8679302,10.9056508 C7.81779586,12.4871472 6.35995407,13.7129016 4.66821007,14.4774611 Z M19.9651403,11.2482162 L19.7842154,11.3322971 C18.7816409,11.8232499 17.89009,12.5202692 17.167731,13.3882275 L19.5166876,14.7448563 C19.8293822,13.8887814 20,12.9643156 20,12 C20,11.7464782 19.9882072,11.4957107 19.9651403,11.2482162 Z M4.78172142,8.54657942 C4.28064357,9.59203228 4,10.7632422 4,12 C4,12.192247 4.00678117,12.3829101 4.02011738,12.5717633 C5.26220606,11.9746551 6.33505999,11.0631228 7.13150144,9.90337325 Z M16.6565491,5.49413009 L13.366,11.193 L15.415789,12.3759175 C16.4940875,10.9859796 17.9088413,9.9189146 19.5180803,9.26085992 C18.9626131,7.73443176 17.9546027,6.42485898 16.6565491,5.49413009 Z M12,4 C11.4754443,4 10.9626802,4.05048578 10.4663016,4.1468634 C10.6756124,5.8313861 10.4537202,7.54575449 9.80481685,9.13623017 L11.634,10.193 L14.8979087,4.5410105 C14.0726485,4.22015816 13.1809633,4.03231487 12.2491793,4.00380682 Z M8.52174267,4.79461261 L8.51188764,4.79845221 C7.4894447,5.29459547 6.58857064,6.00206636 5.8660399,6.86409042 L8.05192399,8.12578196 C8.44684575,7.05441474 8.60391281,5.92061198 8.52174267,4.79461261 Z" id="path-1"></path>
    </defs>
    <g id="Icons-/-Sports-&amp;-Outdoor" stroke="none" stroke-width="1" fill="none" fill-rule="evenodd">
        <mask id="mask-2" fill="white">
            <use xlink:href="#path-1"></use>
        </mask>
        <use id="Combined-Shape" fill="currentColor" fill-rule="nonzero" xlink:href="#path-1"></use>
        <rect id="Color" fill="#0F0F0F" mask="url(#mask-2)" x="0" y="0" width="currentSize" height="currentSize"></rect>
    </g>
</svg>