<svg xmlns="http://www.w3.org/2000/svg" xmlns:xlink="http://www.w3.org/1999/xlink" width="currentSize" height="currentSize" viewBox="0 0 24 24"><defs><path id="a" d="M8.20290747,2.38038219 C9.22102788,2.38038219 10.0555571,3.16642949 10.1327274,4.16475635 L10.138551,4.31602576 L10.138551,9.00492089 C10.138551,10.6282651 9.30308093,12.1373368 7.92729931,12.9990045 C7.48954013,13.273178 7.0145082,13.4608637 6.52571885,13.5620616 L6.52476508,17.4708188 C6.59419187,17.4584119 6.66478112,17.4493599 6.7363591,17.4438366 L6.78767444,17.4413688 C7.07597839,13.999914 10.0042324,11.2134649 13.7031404,10.8187006 L13.7033369,9.6046403 C13.7033369,9.05235555 14.1510522,8.6046403 14.7033369,8.6046403 C15.2161727,8.6046403 15.6388441,8.99068049 15.6966092,9.48801918 L15.7033369,9.6046403 L15.703819,10.8416218 C19.38069,11.3206013 22.2441189,14.1709529 22.4264192,17.6474739 C23.099973,17.970137 23.5779624,18.6369968 23.6332523,19.4205581 L23.6386146,19.573077 L23.6386146,20.2500001 C23.6386146,21.3782016 22.7637912,22.3020772 21.6554899,22.3802815 L21.502971,22.3856437 L6.90297105,22.3856437 C5.80884274,22.3856437 4.9068849,21.5628641 4.78207168,20.5022791 L2.539604,20.5023101 C2.02286233,20.5023101 1.60396044,20.0834082 1.60396044,19.5666665 C1.60396044,19.086835 1.96515646,18.6913653 2.43048819,18.6373177 L2.539604,18.631023 L4.65301964,18.6293822 L4.65327603,13.5311387 C4.21309946,13.4247119 3.78602737,13.2473338 3.38953238,12.9990045 C2.07926416,12.1783686 1.25907442,10.7705181 1.18393224,9.23599227 L1.17828064,9.00492089 L1.17801964,7.47038219 L1.13501964,7.44550877 L1.17801964,7.37438219 L1.17828064,4.31602576 C1.17828064,3.29790535 1.96432794,2.46337614 2.9626548,2.38620583 L3.11392421,2.38038219 L8.20290747,2.38038219 Z M21.502971,19.3087206 L6.90297105,19.3087206 C6.77782814,19.3087206 6.67299484,19.3956763 6.64559641,19.5124625 L6.63861456,19.573077 L6.63861456,20.2500001 C6.63861456,20.375143 6.72557031,20.4799763 6.84235653,20.5073747 L6.90297105,20.5143566 L21.502971,20.5143566 C21.6281139,20.5143566 21.7329472,20.4274008 21.7603456,20.3106146 L21.7673274,20.2500001 L21.7673274,19.573077 C21.7673274,19.427077 21.648971,19.3087206 21.502971,19.3087206 Z M14.606931,12.6420536 C11.7605526,12.6420536 9.40394576,14.4447258 8.79100632,16.7924855 L8.74012293,17.0073848 L8.729,17.064 L20.471,17.064 L20.4602849,17.0065332 C20.4125931,16.7812894 20.349016,16.5606159 20.2706051,16.3455723 L16.641666,16.3457265 C16.1860311,16.3457265 15.816666,15.9763614 15.816666,15.5207265 C15.816666,15.1001404 16.1313913,14.7530623 16.5381798,14.7021544 L16.641666,14.6957265 L19.2869627,14.6958137 C18.2933845,13.5592455 16.7995882,12.7841912 15.0924313,12.6596809 L14.8371214,12.6459991 L14.606931,12.6420536 Z M7.29018537,7.58164431 C6.95795861,7.58164431 6.70183938,7.64637905 6.22980545,7.84201 L5.85863824,8.0007532 C5.19033812,8.28635435 4.73412884,8.41528387 4.14574105,8.41528387 C3.7867429,8.41528387 3.42131569,8.36870537 3.04936245,8.27680051 L3.04956777,9.00492089 C3.04956777,9.98369106 3.5533015,10.8935624 4.38280768,11.4130916 C5.16301649,11.9017452 6.1538152,11.9017452 6.93402401,11.4130916 C7.70822977,10.9281977 8.19865153,10.1032724 8.26060019,9.19966103 L8.26726391,9.00492089 L8.2670139,7.69159159 C7.93326936,7.61802537 7.60788327,7.58164431 7.29018537,7.58164431 Z M8.20290747,4.25166932 L3.11392421,4.25166932 C3.09022882,4.25166932 3.06952443,4.26447526 3.05835431,4.28354383 L3.04956777,4.31602576 L3.0500993,6.31835624 C3.44778331,6.47027148 3.81311245,6.54399674 4.14574105,6.54399674 C4.38756869,6.54399674 4.60640628,6.49069382 4.96202382,6.34715882 L5.29950097,6.20400445 C6.1148762,5.85148545 6.59276555,5.71035718 7.29018537,5.71035718 C7.61390149,5.71035718 7.9398932,5.73638265 8.26791147,5.78813485 L8.26726391,4.31602576 C8.26726391,4.28048268 8.23845055,4.25166932 8.20290747,4.25166932 Z"/></defs><g fill="none" fill-rule="evenodd"><mask id="b" fill="#fff"><use xlink:href="#a"/></mask><use xlink:href="#a" fill="currentColor" fill-rule="nonzero"/><rect width="currentSize" height="currentSize" fill="#0F0F0F" mask="url(#b)"/></g></svg>