<svg xmlns="http://www.w3.org/2000/svg" xmlns:xlink="http://www.w3.org/1999/xlink" width="currentSize" height="currentSize" viewBox="0 0 24 24"><defs><path id="a" d="M10.4860075,1.5 C11.1614844,1.5 11.7899152,1.83408982 12.1719799,2.38675491 L12.2622481,2.52940799 L14.79,6.909 L15.665651,6.90922986 C18.1057149,6.90922986 20.4097653,7.99696828 21.970225,9.86119213 L22.153872,10.0886062 L22.3301473,10.323355 L22.8264241,11.0091098 C23.6287693,12.1177896 23.3871612,13.6718851 22.2867773,14.4802793 C21.9175984,14.7514956 21.4819866,14.9132662 21.028919,14.9494711 L20.8338212,14.9572528 L15.4004053,14.9554506 L12.4868051,21.342659 C12.2323357,21.8644626 11.7753613,22.2484307 11.1970544,22.4159017 L11.0200035,22.4595695 L10.8361597,22.4897754 L10.6425501,22.5 L8.60727792,22.5 C8.40621844,22.5 8.20624756,22.4702691 8.01375764,22.4117576 C7.06253071,22.1226117 6.4631871,21.1950398 6.57323266,20.1694866 L6.5965556,20.0068216 L6.62454646,19.8892324 L6.66357638,19.7619983 L8.4806814,14.9564858 L4.61844258,14.9572528 L4.45219051,14.9518025 L4.28736327,14.9355186 L4.25589972,14.9295712 L3.99964943,14.9365406 C3.11414726,14.9575464 2.32878747,14.4068725 2.02682218,13.593035 L1.97596204,13.4374318 L1.93699286,13.2761127 L0.330723664,5.25241528 C0.162436125,4.41177892 0.702383329,3.59285599 1.5367295,3.42329972 L1.68832774,3.40032885 L1.84144104,3.39264655 L4.05512412,3.39264655 C4.55782388,3.39264655 5.02549615,3.63933183 5.31260214,4.04768419 L5.39317141,4.17495489 L6.94364993,6.90904857 L8.197,6.909 L7.26063296,4.2666795 C6.87893655,3.18987216 7.4359035,2.00518848 8.50465345,1.62061443 C8.67101155,1.56075291 8.84410189,1.52283805 9.01961494,1.50762197 L9.19577595,1.5 L10.4860075,1.5 Z M3.75656998,5.46291148 L2.46920338,5.46291148 L3.95075377,12.8664709 L4.29924301,12.8582347 L4.52409632,12.8777015 L4.570507,12.8845855 L4.61831204,12.8869062 L9.97227139,12.8862208 C10.652035,12.8861338 11.1329074,13.5339641 10.9683057,14.1767957 L10.932467,14.2900518 L8.61013726,20.429447 L10.5780484,20.4316954 L10.6427648,20.429649 L13.6246256,13.89444 L13.858649,13.44443 C14.0156947,13.1393236 14.3111193,12.9352094 14.6443602,12.8936654 L14.7709018,12.8858272 L20.8340027,12.8869062 C20.9210306,12.8869062 21.005812,12.8590709 21.0761318,12.8074107 C21.2595291,12.6726783 21.2997971,12.4136624 21.1660729,12.2288824 C21.1273922,12.2433355 21.0863272,12.2514532 21.0443893,12.2567411 L20.9283988,12.264 L16.9846984,12.264 C15.9579158,12.264 15.1162863,11.4652885 15.0384594,10.4508773 L15.0325862,10.2971708 L15.0325862,9.17511027 C15.0326539,9.10893417 15.0359646,9.04352476 15.0423664,8.9790345 L6.34762698,8.97947682 C6.01989848,8.97947331 5.71450597,8.82220052 5.52221326,8.56072831 L5.45558231,8.45789554 L3.75656998,5.46291148 Z M6.19671017,9.77958411 C6.76414269,9.77958411 7.22413762,10.243047 7.22413762,10.8147574 C7.22413762,11.3864678 6.76414269,11.8499307 6.19671017,11.8499307 C5.62927766,11.8499307 5.16928272,11.3864678 5.16928272,10.8147574 C5.16928272,10.243047 5.62927766,9.77958411 6.19671017,9.77958411 Z M9.27899253,9.77958411 C9.84642504,9.77958411 10.30642,10.243047 10.30642,10.8147574 C10.30642,11.3864678 9.84642504,11.8499307 9.27899253,11.8499307 C8.71156001,11.8499307 8.25156507,11.3864678 8.25156507,10.8147574 C8.25156507,10.243047 8.71156001,9.77958411 9.27899253,9.77958411 Z M12.3612749,9.77958411 C12.9287074,9.77958411 13.3887023,10.243047 13.3887023,10.8147574 C13.3887023,11.3864678 12.9287074,11.8499307 12.3612749,11.8499307 C11.7938424,11.8499307 11.3338474,11.3864678 11.3338474,10.8147574 C11.3338474,10.243047 11.7938424,9.77958411 12.3612749,9.77958411 Z M16.910431,9.1068363 L16.8900708,9.13633896 L16.8819557,9.17607 L16.8819557,10.2971708 C16.8819557,10.340049 16.9078304,10.3768384 16.9447063,10.3925532 L16.9846984,10.4006881 L19.6003054,10.4006362 C18.8229308,9.75634284 17.8993684,9.31127623 16.910431,9.1068363 Z M10.4860075,3.57034659 L9.19577595,3.57034659 L10.379,6.909 L12.413,6.909 L10.4860075,3.57034659 Z"/></defs><g fill="none" fill-rule="evenodd"><mask id="b" fill="#fff"><use xlink:href="#a"/></mask><use xlink:href="#a" fill="currentColor" fill-rule="nonzero"/><rect width="currentSize" height="currentSize" fill="#0F0F0F" mask="url(#b)"/></g></svg>