<?xml version="1.0" encoding="UTF-8"?>
<svg width="currentSize" height="currentSize" viewBox="0 0 24 24" version="1.1" xmlns="http://www.w3.org/2000/svg" xmlns:xlink="http://www.w3.org/1999/xlink">
    <title>Icons / Home &amp; Garden</title>
    <defs>
        <path d="M18,3 C19.5976809,3 20.9036609,4.24891996 20.9949073,5.82372721 L21,6 L21.0008388,8.14518909 C22.4461522,8.57573199 23.5,9.91479633 23.5,11.5 C23.5,12.7815743 22.8051617,13.9279515 21.7295461,14.5412574 L21.546805,14.638471 L21.499,14.66 L21.5,17 C21.5,17.9107963 20.8885,18.6887529 19.9991114,18.9295771 L19.8393437,18.9664174 L19.6742142,18.9916124 L19.5,19 L19,19 L19,20.429435 C19,20.9817197 18.5522847,21.429435 18,21.429435 C17.4871642,21.429435 17.0644928,21.0433948 17.0067277,20.5460561 L17,20.429435 L17,19 L7,18.998 L7,20.429435 C7,20.9817197 6.55228475,21.429435 6,21.429435 C5.48716416,21.429435 5.06449284,21.0433948 5.00672773,20.5460561 L5,20.429435 L5,19 L4.5,19 C3.4456382,19 2.58183488,18.1841222 2.50548574,17.1490986 L2.5,16.9998118 L2.5,14.662 L2.42100222,14.624624 C1.38638265,14.1014573 0.658800661,13.0844135 0.522970303,11.9021417 L0.505200942,11.6918572 L0.5,11.5 C0.5,9.91443023 1.55433459,8.5751135 3.00016263,8.14489094 L3,6 C3,4.40231912 4.24891996,3.09633912 5.82372721,3.00509269 L6,3 L18,3 Z M20,10 L19.9003944,10.0032179 C19.161698,10.051164 18.5730012,10.6335702 18.5062988,11.3618358 L18.5,11.5 L18.5,15 L5.5,15 L5.5,11.5 C5.5,10.6715729 4.82842712,10 4,10 C3.17157288,10 2.5,10.6715729 2.5,11.5 C2.5,12.1688121 2.94151949,12.7474578 3.56335921,12.935777 L3.69927539,12.9700473 L4.50072795,13.132537 L4.5,17 L5.45525673,17.0010015 L5.63560057,16.9969374 L5.68147905,17 L19.442407,17.0016599 L19.5,16.999 L19.4992772,13.1599747 L20.3811784,12.9516238 L20.443478,12.9336403 C21.0662741,12.7413537 21.5,12.1626095 21.5,11.5 C21.5,10.6715729 20.8284271,10 20,10 Z M18,5 L6,5 C5.48716416,5 5.06449284,5.38604019 5.00672773,5.88337887 L5,6 L5.0008388,8.14518909 C6.38740508,8.55823187 7.41368247,9.80744038 7.49482114,11.3079648 L7.5,11.5 L7.5,13 L16.5,13 L16.5,11.5 C16.5,9.92786505 17.5395529,8.58853271 19.0003371,8.14985921 L19,6 C19,5.48716416 18.6139598,5.06449284 18.1166211,5.00672773 L18,5 Z" id="path-1"></path>
    </defs>
    <g id="Icons-/-Home-&amp;-Garden" stroke="none" stroke-width="1" fill="none" fill-rule="evenodd">
        <mask id="mask-2" fill="white">
            <use xlink:href="#path-1"></use>
        </mask>
        <use id="Combined-Shape" fill="currentColor" fill-rule="nonzero" xlink:href="#path-1"></use>
        <rect id="Color" fill="#0F0F0F" mask="url(#mask-2)" x="0" y="0" width="currentSize" height="currentSize"></rect>
    </g>
</svg>