<?xml version="1.0" encoding="UTF-8"?>
<svg width="currentSize" height="currentSize" viewBox="0 0 24 24" version="1.1" xmlns="http://www.w3.org/2000/svg" xmlns:xlink="http://www.w3.org/1999/xlink">
    <title>Icons / Gaming &amp; Entertainment</title>
    <defs>
        <path d="M11.9577348,2.6735635 C12.4705706,2.6735635 12.893242,3.05960369 12.9510071,3.55694237 L12.9577348,3.6735635 L12.957,7.9875635 L17.3879551,7.98866122 L17.5441493,7.9818615 L17.5441493,7.9818615 L17.7008287,7.97959184 C20.8376892,7.97959184 23.35,10.6814828 23.35,13.9795918 C23.35,17.2777009 20.8376892,19.9795918 17.7008287,19.9795918 C15.3535702,19.9795918 13.3204814,18.4549548 12.4723421,16.2567351 L12.3888662,16.0269651 L12.354,15.9205635 L11.345,15.9205635 L11.3111338,16.0269651 C10.5713211,18.1956689 8.69635764,19.7624639 6.47263141,19.9587758 L6.2330763,19.97453 L5.99917127,19.9795918 C2.86231078,19.9795918 0.35,17.2777009 0.35,13.9795918 C0.35,10.758183 2.74681786,8.10558364 5.78135761,7.98394917 L6.07666135,7.98013323 L6.25403912,7.98697747 L10.957,7.9875635 L10.9577348,3.6735635 C10.9577348,3.12127875 11.4054501,2.6735635 11.9577348,2.6735635 Z M17.7008287,9.97959184 L17.4459609,9.98697747 L6.19603337,9.98529372 C6.13070181,9.98149772 6.06506936,9.97959184 5.99917127,9.97959184 C4.00069898,9.97959184 2.35,11.7548534 2.35,13.9795918 C2.35,16.2043303 4.00069898,17.9795918 5.99917127,17.9795918 C7.67809782,17.9795918 9.14069854,16.7183257 9.54122459,14.9459991 L9.58131384,14.747009 L9.72763616,13.9215497 L13.9723638,13.9215497 L14.1186862,14.747009 C14.4512574,16.6231684 15.9597197,17.9795918 17.7008287,17.9795918 C19.699301,17.9795918 21.35,16.2043303 21.35,13.9795918 C21.35,11.8243764 19.8008577,10.0909846 17.8871269,9.98475234 L17.7008287,9.97959184 Z M6.26933702,11.1 C6.72815819,11.1 7.1067888,11.4433367 7.16232474,11.8871059 L7.16933702,12 L7.169,13.0095635 L8.12900552,13.0102041 C8.6260618,13.0102041 9.02900552,13.4131478 9.02900552,13.9102041 C9.02900552,14.3690253 8.68566886,14.7476559 8.24189961,14.8031918 L8.12900552,14.8102041 L7.169,14.8095635 L7.16933702,15.7142857 C7.16933702,16.211342 6.76639329,16.6142857 6.26933702,16.6142857 C5.81051584,16.6142857 5.43188524,16.270949 5.37634929,15.8271798 L5.36933702,15.7142857 L5.369,14.8095635 L4.30027624,14.8102041 C3.80321997,14.8102041 3.40027624,14.4072604 3.40027624,13.9102041 C3.40027624,13.4513829 3.74361291,13.0727523 4.18738216,13.0172164 L4.30027624,13.0102041 L5.369,13.0095635 L5.36933702,12 C5.36933702,11.5029437 5.77228074,11.1 6.26933702,11.1 Z M18.50884,13.8877551 C19.1991959,13.8877551 19.75884,14.4473992 19.75884,15.1377551 C19.75884,15.828111 19.1991959,16.3877551 18.50884,16.3877551 C17.8184841,16.3877551 17.25884,15.828111 17.25884,15.1377551 C17.25884,14.4473992 17.8184841,13.8877551 18.50884,13.8877551 Z M16.851381,11.5 C17.5417369,11.5 18.101381,12.0596441 18.101381,12.75 C18.101381,13.4403559 17.5417369,14 16.851381,14 C16.1610251,14 15.601381,13.4403559 15.601381,12.75 C15.601381,12.0596441 16.1610251,11.5 16.851381,11.5 Z" id="path-1"></path>
    </defs>
    <g id="Icons-/-Gaming-&amp;-Entertainment" stroke="none" stroke-width="1" fill="none" fill-rule="evenodd">
        <mask id="mask-2" fill="white">
            <use xlink:href="#path-1"></use>
        </mask>
        <use id="Shape" fill="currentColor" fill-rule="nonzero" xlink:href="#path-1"></use>
        <rect id="Color" fill="#0F0F0F" mask="url(#mask-2)" x="0" y="0" width="currentSize" height="currentSize"></rect>
    </g>
</svg>