<?xml version="1.0" encoding="UTF-8"?>
<svg width="currentSize" height="currentSize" viewBox="0 0 24 24" version="1.1" xmlns="http://www.w3.org/2000/svg" xmlns:xlink="http://www.w3.org/1999/xlink">
    <title>Icons / General merchandise</title>
    <defs>
        <path d="M3.40763019,2.272594 C4.36280215,2.272594 5.18465991,2.94801148 5.36972984,3.88508276 L5.476997,4.420594 L21.6491942,4.421337 C22.4776213,4.421337 23.1491942,5.09290988 23.1491942,5.921337 C23.1491942,6.00832758 23.141627,6.09507026 23.1266203,6.18059014 L23.0985466,6.30783098 L20.9652133,14.307831 C20.8017853,14.9206858 20.2728621,15.3595324 19.6505449,15.4153215 L19.5158608,15.421337 L8.144997,15.420594 L8.30707838,16.0804213 C8.52950512,16.0278306 8.76150247,16 9,16 C10.3062521,16 11.4175144,16.8348501 11.8293257,18.0000889 L15.1706743,18.0000889 C15.5824856,16.8348501 16.6937479,16 18,16 C19.6568542,16 21,17.3431458 21,19 C21,20.6568542 19.6568542,22 18,22 C16.6937479,22 15.5824856,21.1651499 15.1706743,19.9999111 L11.8293257,19.9999111 C11.4175144,21.1651499 10.3062521,22 9,22 C7.34314575,22 6,20.6568542 6,19 C6,18.3624826 6.19885598,17.7714104 6.537924,17.2854276 L6.4693558,16.9817747 L5.97321567,14.9627671 L4.40193813,8.78203817 C4.10221678,7.53925528 3.83249631,6.34473116 3.58715394,5.1599525 L3.40763019,4.272594 L1.498997,4.272594 C0.94671225,4.272594 0.498997,3.82487875 0.498997,3.272594 C0.498997,2.75975816 0.88503719,2.33708684 1.38237587,2.27932173 L1.498997,2.272594 L3.40763019,2.272594 Z M9,18 C8.44771525,18 8,18.4477153 8,19 C8,19.5522847 8.44771525,20 9,20 C9.55228475,20 10,19.5522847 10,19 C10,18.4477153 9.55228475,18 9,18 Z M18,18 C17.4477153,18 17,18.4477153 17,19 C17,19.5522847 17.4477153,20 18,20 C18.5522847,20 19,19.5522847 19,19 C19,18.4477153 18.5522847,18 18,18 Z M15.046997,10.920594 L12.046997,10.920594 L12.046997,13.420594 L15.046997,13.420594 L15.046997,10.920594 Z M19.797997,10.920594 L17.046997,10.920594 L17.046997,13.420594 L19.131,13.421 L19.797997,10.920594 Z M10.046997,10.920594 L7.006997,10.920594 L7.642997,13.420594 L10.046997,13.420594 L10.046997,10.920594 Z M5.90515954,6.42026005 C5.9782291,6.74604435 6.05334436,7.07403604 6.13062279,7.40503095 L6.46054467,8.77337088 L6.497997,8.920594 L10.046997,8.920594 L10.046997,6.420594 L5.90515954,6.42026005 Z M20.998,6.421 L17.046997,6.420594 L17.046997,8.920594 L20.330997,8.920594 L20.998,6.421 Z M15.046997,6.420594 L12.046997,6.420594 L12.046997,8.920594 L15.046997,8.920594 L15.046997,6.420594 Z" id="path-1"></path>
    </defs>
    <g id="Icons-/-General-merchandise" stroke="none" stroke-width="1" fill="none" fill-rule="evenodd">
        <mask id="mask-2" fill="white">
            <use xlink:href="#path-1"></use>
        </mask>
        <use id="Combined-Shape" fill="currentColor" fill-rule="nonzero" xlink:href="#path-1"></use>
        <rect id="Color" fill="#0F0F0F" mask="url(#mask-2)" x="0" y="0" width="currentSize" height="currentSize"></rect>
    </g>
</svg>