<svg xmlns="http://www.w3.org/2000/svg" xmlns:xlink="http://www.w3.org/1999/xlink" width="currentSize" height="currentSize" viewBox="0 0 24 24"><defs><path id="a" d="M15.5645301,1.33274007 C15.7098553,1.80807735 15.4423277,2.31122369 14.9669904,2.45654888 C14.1266226,2.7134751 13.5215653,3.40731062 13.351583,4.22875448 C14.7142095,4.73948919 15.6820972,6.05223775 15.6820972,7.5910486 C15.6820972,7.7286197 15.6743137,7.86527498 15.6589196,8.00049705 L20.1,8 C21.6444249,8 22.9068722,9.2072893 22.9950771,10.729603 L23,10.9 L23,11.9092752 C23,12.6943147 22.6924329,13.4453021 22.1479184,14.0036703 L22.0068942,14.1391576 L21.9,14.2336359 L21.9,20.9090909 C21.9,22.0307589 20.8706058,22.8281773 19.6653613,22.8953977 L19.5,22.9 L4.5,22.9 C3.28053263,22.9 2.19811815,22.1513497 2.10630038,21.0599977 L2.1,20.9090909 L2.1,14.2346359 L1.99310581,14.1391576 C1.4095905,13.6139939 1.05713756,12.8829969 1.00636678,12.1047339 L1,11.9092752 L1,10.9 C1,9.35557515 2.2072893,8.09312782 3.72960297,8.00492294 L3.9,8 L8.52319719,8.0006691 C8.50779056,7.8653944 8.5,7.72868144 8.5,7.5910486 C8.5,5.78903487 9.82730488,4.29702982 11.5575971,4.03935095 C11.8040882,2.51224622 12.897421,1.20703458 14.4407213,0.73520032 C14.9160586,0.58987513 15.419205,0.857402787 15.5645301,1.33274007 Z M20.1,19.0996359 L3.9,19.0996359 L3.9,20.9090909 C3.9,20.9378305 4.07228125,21.0663192 4.37882626,21.0945175 L4.5,21.1 L19.5,21.1 C19.8395169,21.1 20.0495223,20.9747045 20.0919986,20.9241533 L20.1,20.9090909 L20.1,19.0996359 Z M6.41896473,14.6682941 C5.71392188,15.3028327 4.77283034,15.5272826 3.90079652,15.3416438 L3.9,17.0996359 L20.1,17.0996359 L20.1001978,15.341432 C19.2278851,15.5274532 18.2863461,15.3030739 17.5810353,14.6682941 C17.250718,14.3710086 16.749282,14.3710086 16.4189647,14.6682941 C15.3280375,15.6501286 13.6719625,15.6501286 12.5810353,14.6682941 C12.250718,14.3710086 11.749282,14.3710086 11.4189647,14.6682941 C10.3280375,15.6501286 8.67196247,15.6501286 7.58103527,14.6682941 C7.250718,14.3710086 6.749282,14.3710086 6.41896473,14.6682941 Z M20.1,10 L3.9,10 C3.44117882,10 3.06254822,10.3433367 3.00701228,10.7871059 L3,10.9 L3,11.9092752 C3,12.1522636 3.0883994,12.385465 3.24635082,12.56656 L3.33103527,12.6525693 L3.91896473,13.1817059 C4.249282,13.4789914 4.750718,13.4789914 5.08103527,13.1817059 C6.17196247,12.1998714 7.82803753,12.1998714 8.91896473,13.1817059 C9.249282,13.4789914 9.750718,13.4789914 10.0810353,13.1817059 C11.1719625,12.1998714 12.8280375,12.1998714 13.9189647,13.1817059 C14.249282,13.4789914 14.750718,13.4789914 15.0810353,13.1817059 C16.1719625,12.1998714 17.8280375,12.1998714 18.9189647,13.1817059 C19.2192532,13.4519654 19.660962,13.4765345 19.9869633,13.255413 L20.0810353,13.1817059 L20.6689647,12.6525693 C20.8495766,12.4900186 20.9637777,12.2683084 20.9927206,12.0297579 L21,11.9092752 L21,10.9 C21,10.4029437 20.5970563,10 20.1,10 Z M12.0910486,6 C11.2123367,6 10.5,6.71233672 10.5,7.5910486 C10.5,7.73127781 10.5179102,7.8682488 10.5527896,8.0000003 L13.6292001,8.00040502 C13.6641513,7.86852535 13.6820972,7.73142025 13.6820972,7.5910486 C13.6820972,6.71233672 12.9697605,6 12.0910486,6 Z"/></defs><g fill="none" fill-rule="evenodd"><mask id="b" fill="#fff"><use xlink:href="#a"/></mask><use xlink:href="#a" fill="currentColor" fill-rule="nonzero"/><rect width="currentSize" height="currentSize" fill="#0F0F0F" mask="url(#b)"/></g></svg>