<svg xmlns="http://www.w3.org/2000/svg" width="150" height="150" viewBox="0 0 150 150"><defs><linearGradient id="a" x1="50%" x2="50%" y1="0%" y2="100%"><stop offset="0%" stop-color="#F271A4"/><stop offset="54.826%" stop-color="#F896BC"/><stop offset="100%" stop-color="#FF81AA"/></linearGradient><linearGradient id="b" x1="74.711%" x2="20.198%" y1="66.849%" y2="59.325%"><stop offset="0%" stop-color="#FEEB46"/><stop offset="100%" stop-color="#FFDE41"/></linearGradient><linearGradient id="c" x1="50%" x2="50%" y1="0%" y2="100%"><stop offset="0%" stop-color="#FF91B8"/><stop offset="100%" stop-color="#FFA0BE"/></linearGradient><linearGradient id="d" x1="50%" x2="50%" y1="218.002%" y2="65.337%"><stop offset="0%" stop-color="#FFE325"/><stop offset="100%" stop-color="#FCCB27"/></linearGradient></defs><g fill="none" fill-rule="evenodd" transform="translate(30 7)"><path fill="#68ADFF" d="M14.4,0 L74.7,0 C82.6529004,-3.23728094e-15 89.1,6.4470996 89.1,14.4 L89.1,120.6 C89.1,129.547013 81.8470129,136.8 72.9,136.8 L16.2,136.8 C7.25298705,136.8 5.48952322e-15,129.547013 0,120.6 L0,14.4 C-2.75030624e-15,6.4470996 6.4470996,-3.15432737e-16 14.4,0 Z"/><circle cx="45.36" cy="123.84" r="6.48" fill="#ADD2FF"/><rect width="68.04" height="99.9" x="10.53" y="12.6" fill="#FFF" rx="9.72"/><circle cx="45.4" cy="71" r="20.7" fill="#F0F0F0"/><g transform="translate(21.1 29.6)"><path fill="url(#a)" d="M3.53146642,16.9929968 L44.731908,16.9929968 L44.731908,46.6992728 C44.731908,50.0361521 42.0268329,52.7412272 38.6899536,52.7412272 L9.57342085,52.7412272 C6.23654156,52.7412272 3.53146642,50.0361521 3.53146642,46.6992728 L3.53146642,16.9929968 L3.53146642,16.9929968 Z"/><rect width="10.594" height="26.486" x="18.834" y="26.255" fill="#FFDB30"/><polygon fill="#FB8EB5" points="3.531 19.423 44.732 19.423 44.732 28.021 24.132 28.911 3.531 28.021"/><path fill="#F67CA8" d="M3.53146642,19.4230653 L44.731908,19.4230653 L44.731908,29.1981177 C37.8651677,28.84899 30.9984275,28.6744261 24.1316872,28.6744261 C17.2649469,28.6744261 10.3982067,28.84899 3.53146642,29.1981177 L3.53146642,19.4230653 Z"/><path fill="url(#b)" d="M25.6783063,14.4295417 L20.6170034,7.62717943 C18.7535483,5.1227063 15.2126428,4.60305857 12.7081697,6.46651373 C11.9731187,7.01342894 11.3820333,7.73082883 10.9858232,8.55692424 L9.00051259,12.6962832 C7.82769317,15.1416036 8.68313544,18.0777438 10.9858232,19.5104778 L11.15374,19.6149558 C13.6884779,21.1920716 16.6141689,22.0279589 19.5994981,22.0279589 L25.6783063,22.0279589 L25.6783063,22.0279589 L25.6783063,14.4295417 Z"/><path fill="url(#b)" d="M42.0419329,14.4295417 L36.98063,7.62717943 C35.1171749,5.1227063 31.5762694,4.60305857 29.0717962,6.46651373 C28.3367453,7.01342894 27.7456599,7.73082883 27.3494498,8.55692424 L25.3641392,12.6962832 C24.1913197,15.1416036 25.046762,18.0777438 27.3494498,19.5104778 L27.5173666,19.6149558 C30.0521045,21.1920716 32.9777955,22.0279589 35.9631247,22.0279589 L42.0419329,22.0279589 L42.0419329,22.0279589 L42.0419329,14.4295417 Z" transform="matrix(-1 0 0 1 65.345 0)"/><rect width="48.263" height="10.006" y="16.48" fill="url(#c)" rx="3.524"/><path fill="url(#d)" d="M24.1316872,11.182977 C26.5389765,11.182977 28.6232801,12.8549461 29.1454944,15.2049108 L29.4288868,16.4801766 L29.4288868,16.4801766 L18.8344876,16.4801766 L19.11788,15.2049108 C19.6400944,12.8549461 21.7243979,11.182977 24.1316872,11.182977 Z"/><rect width="10.594" height="10.006" x="18.834" y="16.48" fill="#FFE154"/><path fill="#FCD621" d="M29.4288868,26.4854096 L29.4288868,28.6813931 C28.7514064,28.9576486 26.9856732,29.0957764 24.1316872,29.0957764 C21.2777012,29.0957764 19.511968,28.9576486 18.8344876,28.6813931 L18.8344876,26.4854096 L29.4288868,26.4854096 Z"/></g></g></svg>