<svg xmlns="http://www.w3.org/2000/svg" width="20" height="20" viewBox="0 0 20 20">
    <g fill="none" fill-rule="evenodd">
        <path d="M0 0h20v20H0z"/>
        <path fill="#FBBC05" d="M4.667 9.917c0-.63.098-1.233.275-1.8L1.857 5.622a10.168 10.168 0 0 0-.94 4.295c0 1.544.338 3 .938 4.293l3.084-2.5a6.049 6.049 0 0 1-.272-1.793"/>
        <path fill="#EA4335" d="M10.083 4.187c1.292 0 2.459.485 3.375 1.279l2.667-2.821C14.5 1.146 12.417.22 10.083.22c-3.622 0-6.736 2.195-8.226 5.402l3.085 2.495c.71-2.286 2.737-3.93 5.141-3.93"/>
        <path fill="#34A853" d="M10.083 15.647c-2.404 0-4.43-1.644-5.141-3.93l-3.085 2.496c1.49 3.207 4.604 5.401 8.226 5.401 2.236 0 4.37-.84 5.973-2.416l-2.929-2.399c-.826.552-1.866.848-3.044.848"/>
        <path fill="#4285F4" d="M18.833 9.917c0-.573-.083-1.19-.208-1.763h-8.542v3.747H15c-.246 1.277-.915 2.26-1.873 2.898l2.929 2.399c1.683-1.655 2.777-4.12 2.777-7.28"/>
    </g>
</svg>
